<?xml version="1.0" standalone="no"?>
<!DOCTYPE svg PUBLIC "-//W3C//DTD SVG 1.1//EN" "http://www.w3.org/Graphics/SVG/1.1/DTD/svg11.dtd" >
<svg xmlns="http://www.w3.org/2000/svg" xmlns:xlink="http://www.w3.org/1999/xlink" version="1.1">
<metadata>
Created by FontForge 20201107 at Mon Aug 24 04:23:55 2020
 By Jimmy Wärting
Copyright 2014 The Caveat Project Authors (https://github.com/googlefonts/caveat)
</metadata>
<defs>
<font id="Caveat-Medium" horiz-adv-x="0" >
  <font-face 
    font-family="Caveat Medium"
    font-weight="500"
    font-stretch="normal"
    units-per-em="1000"
    panose-1="0 0 0 0 0 0 0 0 0 0"
    ascent="800"
    descent="-200"
    x-height="355"
    cap-height="686"
    bbox="-109.5 -304 1235.91 960"
    underline-thickness="50"
    underline-position="-100"
    unicode-range="U+000D-FB04"
  />
<missing-glyph horiz-adv-x="603" 
d="M392 960h519l-455 -1250h-519zM375 -228l14 461l-318 -461h304zM393 341l14 469l-343 -946zM785 807l-330 -478l-14 -470zM777 897h-304l-14 -460z" />
    <glyph glyph-name="f_f" unicode="ff" horiz-adv-x="500" 
d="M336 -110q-6 -4 -18 3t-26 23q-7 8 -9 17t1 34q4 11 4.5 22t0.5 15q0 6 3.5 28t7.5 46.5t7 37.5q0 1 1 5t2 7q2 9 5.5 24t6.5 37q5 19 10 36t7 30q-12 0 -33 -2t-43 -5.5t-37.5 -6t-17.5 -4.5q-4 -2 -9.5 -16.5t-12 -35.5t-10.5 -45q-12 -46 -13 -94.5t5 -71.5
q6 -24 0.5 -40.5t-17.5 -21.5q-19 -1 -35 30t-16 80q-4 41 7 104.5t33 142.5q8 27 22 64t29.5 73t27.5 60.5t15 27.5q6 -2 6 9q0 2 8 15t15 28q13 19 32 38t39 34t36 21q15 6 30 6q25 0 49 -19.5t34 -45.5q17 20 38.5 39t34.5 29q22 11 35.5 15t34.5 4q19 0 29 -7t23 -19
q14 -15 16 -20t2 -19q-2 -10 -9 -25.5t-16 -32t-17 -28t-12 -11.5q-23 -7 -23 24q0 7 -5 13.5l-5 6.5q0 3 1.5 11t5.5 15q5 10 2.5 16.5t-13.5 3.5q-3 -2 -14.5 -11t-24.5 -19.5t-22.5 -20.5t-9.5 -13l-4 -8.5t-15 -21.5q-7 -10 -12.5 -19.5t-5.5 -11.5q0 -4 -0.5 -8.5
t-5.5 -4.5l-3 -9t-11 -23q-4 -10 -10 -20.5t-10 -14.5h1l-4.5 -12t-9.5 -25t-5 -15q0 -4 14 -4t33 3.5t35 7.5q14 4 19 4t20 -4q8 -5 13.5 -16t8 -21t-0.5 -14q-1 -4 -22 -11t-42 -11q-18 -4 -42.5 -9t-43 -9t-18.5 -7q-4 0 -7 -4.5t-3 -7.5q0 -14 -4 -21q-2 -6 -7 -23.5
t-10.5 -38.5t-9 -38.5t-3.5 -23.5q-6 -7 -7 -17.5t-1 -18.5q-4 -8 -5 -14.5t-1 -10.5v-4t-1 -6q-1 -10 -2.5 -26.5t-1.5 -32.5l-3 -29q-1 -13 -3.5 -24.5t-7.5 -16.5zM246 306q4 0 23.5 2.5t45.5 6.5t49 7l6 11q15 42 25 69.5t20 48.5l2 9q0 2 4.5 12t4.5 20q7 34 8.5 51.5
t-4.5 24.5t-24 7q-5 1 -15.5 -3t-19 -9.5t-8.5 -10.5v-4q-3 1 -17.5 -15t-31.5 -39t-29 -43q-8 -17 -19 -46t-28 -73l-8 -24z" />
    <glyph glyph-name="f_f_i" unicode="ffi" horiz-adv-x="654" 
d="M335 -110q-7 -3 -17.5 3.5t-23.5 21.5q-8 8 -10.5 18.5t0.5 35.5q4 11 4.5 21t0.5 14q0 10 3.5 30t7.5 42.5t8 38.5q0 2 1 6.5t2 8.5q2 10 5.5 24.5t5.5 34.5q5 19 10 36t7 30q-12 0 -33 -2t-43 -5.5t-37.5 -6t-17.5 -4.5q-4 -2 -10 -17.5t-12.5 -38.5t-10.5 -48
q-8 -36 -10 -68t-0.5 -56.5t4.5 -39.5q4 -22 -1.5 -37t-16.5 -20q-21 0 -36 32.5t-15 84.5q-3 41 8 102.5t32 137.5q8 27 22 64t29.5 73t27.5 60.5t15 27.5q4 -1 4 1t1 5q0 1 2.5 4.5t7.5 13.5l14 28q21 30 52 57t57 37q15 5 28 5q25 0 49 -19.5t34 -45.5q17 20 38.5 39
t34.5 29q22 11 35.5 15t33.5 4q19 0 28.5 -6t22.5 -17q16 -17 18 -22.5t2 -19.5q-2 -12 -10 -28.5t-17.5 -32t-17.5 -26t-12 -10.5q-11 -3 -15.5 4t-5.5 20q0 7 -3.5 13t-5.5 7q0 4 2.5 14t5.5 16q3 9 0.5 13.5t-11.5 2.5q-6 -3 -18 -12.5t-24.5 -20.5t-21 -20.5t-9.5 -12.5
q-1 -2 -5.5 -10t-13.5 -19q-6 -9 -10.5 -17t-5.5 -11q-1 -6 -2 -10.5t-5 -4.5q0 1 -3.5 -9t-10.5 -24q-4 -10 -10 -20t-10 -14h1l-4.5 -12t-9.5 -25t-5 -15q0 -3 9.5 -3t23.5 1.5t29 4.5t26 5q11 3 16 2.5t17 -4.5q11 -7 17.5 -23t3.5 -25q-1 -4 -19.5 -12.5t-46.5 -12.5
q-20 -4 -43 -9t-40 -8.5t-19 -6.5q-5 -2 -7.5 -6.5t-3.5 -9.5q0 -11 -3 -17q-3 -9 -8.5 -26.5t-10.5 -37t-8.5 -36.5t-3.5 -26q-5 -7 -6.5 -17t-1.5 -18q-3 -8 -4 -14t-1 -10q0 -1 -0.5 -4t-0.5 -7q-1 -10 -2.5 -26t-1.5 -32l-3 -29q-3 -15 -4 -26.5t-8 -14.5zM246 306
q4 0 23.5 2.5t45.5 6.5t49 7l6 11q15 44 25.5 71t19.5 47l2 9q0 2 4.5 12t4.5 20q7 34 9 51.5t-4.5 24.5t-24.5 7q-5 1 -15.5 -3t-19 -9.5t-8.5 -10.5v-4q-3 1 -17.5 -15t-31.5 -39t-29 -43q-8 -17 -19 -46t-28 -73l-8 -24zM638 27q-12 1 -24 16.5t-14 27.5q-1 11 -3.5 22.5
t-1.5 25.5q3 16 8.5 37.5t11 45t11 44t8.5 33.5q6 22 11 30t10 8t10 -1q6 -4 10 -11t5 -23t-3 -48q-1 -34 -6.5 -63.5t-8.5 -68.5q-4 -25 -7.5 -42t-7.5 -25t-9 -8zM732 389q-4 -1 -11.5 2t-15 9t-10.5 14q-5 3 -9 13.5t-6 21.5t-1 13q1 7 4.5 17t11.5 17.5t20 7.5
q6 -8 13 -14.5t17 -18.5q5 -13 9 -29t0 -29.5t-22 -23.5z" />
    <glyph glyph-name="f_f_l" unicode="ffl" horiz-adv-x="670" 
d="M336 -110q-6 -4 -18 3t-26 23q-7 8 -9 17t1 34q4 11 4.5 22t0.5 15q0 6 3.5 28t7.5 46.5t7 37.5q0 1 1 5t2 7q2 9 5.5 24t6.5 37q5 19 10 36t7 30q-12 0 -33 -2t-43 -5.5t-37.5 -6t-17.5 -4.5q-4 -2 -9.5 -16.5t-12 -35.5t-10.5 -45q-12 -46 -13 -94.5t5 -71.5
q6 -24 0.5 -40.5t-17.5 -21.5q-19 -1 -35 30t-16 80q-4 41 7 104.5t33 142.5q8 27 22 64t29.5 73t27.5 60.5t15 27.5q6 -2 6 9q0 2 8 15t15 28q13 19 32 38t39 34t36 21q15 6 30 6q25 0 49 -19.5t34 -45.5q17 20 38.5 39t34.5 29q22 11 35.5 15t34.5 4q19 0 29 -7t23 -19
q14 -15 16 -20t2 -19q-2 -10 -9 -25.5t-16 -32t-17 -28t-12 -11.5q-23 -7 -23 24q0 7 -5 13.5l-5 6.5q0 3 1.5 11t5.5 15q5 10 2.5 16.5t-13.5 3.5q-3 -2 -14.5 -11t-24.5 -19.5t-22.5 -20.5t-9.5 -13l-4 -8.5t-15 -21.5q-7 -10 -12.5 -19.5t-5.5 -11.5q0 -4 -0.5 -8.5
t-5.5 -4.5l-3 -9t-11 -23q-4 -10 -10 -20.5t-10 -14.5h1l-4.5 -12t-9.5 -25t-5 -15q0 -4 14 -4t33 3.5t35 7.5q14 4 19 4t20 -4q8 -5 13.5 -16t8 -21t-0.5 -14q-1 -4 -22 -11t-42 -11q-18 -4 -42.5 -9t-43 -9t-18.5 -7q-4 0 -7 -4.5t-3 -7.5q0 -14 -4 -21q-2 -6 -7 -23.5
t-10.5 -38.5t-9 -38.5t-3.5 -23.5q-6 -7 -7 -17.5t-1 -18.5q-4 -8 -5 -14.5t-1 -10.5v-4t-1 -6q-1 -10 -2.5 -26.5t-1.5 -32.5l-3 -29q-1 -13 -3.5 -24.5t-7.5 -16.5zM246 306q4 0 23.5 2.5t45.5 6.5t49 7l6 11q15 42 25 69.5t20 48.5l2 9q0 2 4.5 12t4.5 20q7 34 8.5 51.5
t-4.5 24.5t-24 7q-5 1 -15.5 -3t-19 -9.5t-8.5 -10.5v-4q-3 1 -17.5 -15t-31.5 -39t-29 -43q-8 -17 -19 -46t-28 -73l-8 -24zM604 -16q-13 5 -20 15.5t-8 30.5q0 12 3.5 34t7.5 48q0 2 0.5 4.5t0.5 3.5q1 4 2.5 12t2.5 13t1 0l7 27q5 18 10 36.5t9 32t5 15.5l4 11.5t8 23.5
q17 48 31 80.5t25 47.5q1 3 3 7.5t3 7.5q1 9 2.5 13.5t4.5 8.5q2 4 6 10.5t9 16.5l3 11q6 13 15 29.5t13 24.5q4 9 12.5 21.5t14.5 16.5l-1 1q5 9 14.5 12t18.5 3q14 0 18 -5.5t4 -19.5q0 -15 -0.5 -21.5t-8.5 -14.5h1q2 2 -1 -5t-5 -10q-2 -5 -4.5 -11t-5.5 -9
q-3 -4 -14.5 -27t-27 -53.5t-28.5 -59t-19 -43.5l-5 -15q-2 -4 -2 -6l-6 -14t-6 -12l-17 -59l-5 -21l-9 -23l-6 -19q-2 -6 -2.5 -11.5t-3.5 -8.5q0 -1 -0.5 -2.5t-0.5 -2.5q-4 -16 -11 -45t-9 -62q0 -1 -0.5 -2t-0.5 -2q-3 -21 -10.5 -29.5t-21.5 -4.5z" />
    <glyph glyph-name="f_i" unicode="fi" horiz-adv-x="459" 
d="M127 -111q-7 -3 -17 4t-23 22q-7 9 -10.5 18t-1.5 29q3 11 4.5 25t1.5 18q0 7 3.5 29t8 46t6.5 37q1 2 1.5 5.5t1.5 5.5q3 12 6.5 26.5t6.5 33.5q8 30 13 53t7 34q1 15 11 23q2 6 6.5 15.5t9.5 17.5q20 57 33 90t27 58q4 12 9 24.5t11 19.5q7 18 24.5 40.5t38.5 44.5
t39 38q22 11 37.5 16t35.5 5q19 0 29 -5.5t22 -17.5q14 -14 17.5 -22t3.5 -20q-3 -12 -10.5 -28.5t-17 -32t-17.5 -26t-12 -10.5q-11 -3 -15.5 4.5t-6.5 21.5q-1 6 -4 11.5t-4 6.5q0 4 2.5 13t5.5 17q3 9 0 14t-12 2q-5 -4 -16 -12.5t-23 -18.5t-22 -20.5t-13 -17.5
q-2 -2 -6 -9.5t-12 -17.5q-6 -10 -10.5 -18.5t-5.5 -11.5q-1 -5 -1.5 -8.5t-4.5 -3.5q0 1 -3.5 -9t-10.5 -24q-4 -10 -10 -20t-10 -14h1l-4.5 -12t-9.5 -25t-5 -15q0 -5 15.5 -4t36 5t35.5 7q12 2 17.5 1.5t16.5 -4.5q11 -8 14 -23.5t0 -23.5q-1 -5 -17 -11.5t-40 -11.5
q-21 -5 -44.5 -9.5t-40.5 -8.5t-20 -7q-5 -2 -8 -6.5t-4 -9.5q0 -6 -0.5 -10t-2.5 -8q-2 -5 -6 -21t-9 -35.5t-8.5 -36.5t-4.5 -26q-4 -8 -5.5 -17.5t-1.5 -16.5q-4 -7 -6 -17.5t-2 -17.5v-4t-1 -5q-1 -8 -2.5 -26t-1.5 -36l-3 -29q-1 -13 -3.5 -23.5t-8.5 -13.5zM426 23
q-15 1 -27 19.5t-13 38.5q1 12 3.5 28.5t5.5 36.5q5 18 12.5 45.5t15.5 55t14 47t8 23.5q3 7 12 5.5t16 -7.5q7 -5 12.5 -15.5t6 -29t-7.5 -49.5q-2 -14 -5.5 -25t-6.5 -21.5t-6 -24t-7.5 -32.5t-8.5 -48q-5 -31 -9 -39.5t-15 -7.5zM469 442q-1 11 4 28t14.5 31t23.5 15
q5 0 8.5 -1t15.5 -6q12 -12 21.5 -32.5t6 -41.5t-29.5 -37q-4 -2 -7.5 -2t-10.5 4q-11 0 -21.5 9t-17.5 19.5t-7 13.5z" />
    <glyph glyph-name="f_l" unicode="fl" horiz-adv-x="460" 
d="M126 -111q-6 -4 -18 4.5t-26 24.5q-7 8 -9 17t1 34q4 11 4.5 21t0.5 14q0 6 3.5 28t7.5 46.5t7 37.5q0 1 1 5t2 7q2 9 5.5 24t6.5 37q8 25 13.5 49.5t5.5 33.5q0 18 14 26q1 5 6 15.5t9 17.5q20 57 33 90.5t27 58.5q6 17 13.5 35t15.5 28q5 13 23 33.5t38 40t32 29.5
q22 11 37.5 16t36.5 5q19 0 29 -7t23 -19q14 -15 16 -20t2 -19q-2 -10 -9 -25.5t-16 -32t-17 -28t-12 -11.5q-23 -7 -23 24q0 7 -5 13.5l-5 6.5q0 3 1.5 10.5t5.5 14.5q5 10 3 17t-13 4q-3 -2 -15 -10.5t-24.5 -19.5t-22.5 -21t-10 -13l-4 -8.5t-15 -21.5
q-7 -10 -12.5 -19.5t-5.5 -11.5q0 -4 -0.5 -8.5t-5.5 -4.5l-3 -9t-11 -23q-4 -10 -10 -20.5t-10 -14.5h1l-4.5 -12t-9.5 -25t-5 -15q0 -4 14 -4t33 3.5t35 7.5q14 4 19 4t20 -4q8 -5 13.5 -16t8 -21t-0.5 -14q-1 -4 -22 -11t-42 -11q-18 -4 -43 -9t-44 -9t-19 -7
q-4 0 -7 -4.5t-3 -7.5q0 -14 -4 -21q-2 -6 -6.5 -24l-10 -40t-9 -40.5t-3.5 -24.5q-6 -7 -7 -17.5t-1 -18.5q-4 -8 -5 -14.5t-1 -10.5v-4t-1 -6q-1 -10 -2.5 -26.5t-1.5 -32.5l-3 -29q-1 -13 -3 -22.5t-7 -14.5zM393 -16q-13 5 -20 15.5t-8 30.5q0 12 3.5 34t7.5 48
q0 2 0.5 4.5t0.5 3.5q1 4 2.5 12t2.5 13t1 0l7 27q5 18 10 36.5t9 32t5 15.5l4 11.5t8 23.5q17 48 31 80.5t25 47.5q1 3 3 7.5t3 7.5q1 9 2.5 13.5t4.5 8.5q2 4 6 10.5t9 16.5l3 11q6 13 15 29.5t13 24.5q4 9 12.5 21.5t14.5 16.5l-1 1q5 9 14.5 12t18.5 3q14 0 18 -5.5
t4 -19.5q0 -15 -0.5 -21.5t-8.5 -14.5h1q2 2 -1 -5t-5 -10q-2 -5 -4.5 -11t-5.5 -9q-3 -4 -14.5 -27t-27 -53.5t-28.5 -59t-19 -43.5l-5 -15q-2 -4 -2 -6l-6 -14t-6 -12l-17 -59l-5 -21l-9 -23l-6 -19q-2 -6 -2.5 -11.5t-3.5 -8.5q0 -1 -0.5 -2.5t-0.5 -2.5q-4 -16 -11 -45
t-9 -62q0 -1 -0.5 -2t-0.5 -2q-3 -21 -10.5 -29.5t-21.5 -4.5z" />
    <glyph glyph-name="f_t" unicode="ft" horiz-adv-x="582" 
d="M127 -111q-6 -4 -15.5 2t-23.5 22q-7 8 -12 17t-2 34q4 11 4.5 23.5t0.5 16.5q0 6 3.5 28t7.5 46.5t7 37.5q0 1 1 5t2 7q2 9 5.5 24t6.5 37q8 25 13.5 49.5t5.5 33.5q0 18 14 26q1 5 6 15.5t9 17.5q20 57 32 90.5t26 58.5q6 17 15 35t17 28q5 13 23 33.5t38 40t32 29.5
q22 11 37.5 16t36.5 5q19 0 28.5 -6t22.5 -18q14 -15 16 -20t2 -19q-2 -10 -9 -26t-16 -33t-17 -28.5t-12 -11.5q-23 -7 -23 24q0 7 -4.5 13.5l-4.5 6.5q0 3 2 12.5t6 16.5q5 10 2.5 15t-13.5 2q-3 -2 -15 -11t-25 -19.5t-23 -20.5t-10 -13l-4 -8.5t-15 -21.5
q-7 -10 -12.5 -19.5t-5.5 -11.5q0 -4 -0.5 -8.5t-5.5 -4.5l-3 -9t-11 -23q-4 -10 -10 -20.5t-10 -14.5h1l-4 -14.5t-9 -30t-6 -19.5q14 1 37 6t48 8q39 5 77 11t73 22q9 22 20.5 47.5t22.5 45.5t15 25q17 9 28 9.5t21 -15.5q5 -7 8 -11t2.5 -12t-8 -24.5t-24.5 -48.5
q-5 -10 -9 -17.5l-4 -7.5q4 -1 12 -1t20 1q11 2 25.5 3.5t24.5 -0.5q23 0 34 -11t12 -31q2 -11 -7 -14.5t-36 -3.5q-9 0 -27 -1t-37.5 -1.5t-33.5 -2t-14 -3.5q-3 -2 -9 -18.5t-11.5 -37.5t-10.5 -38q-7 -34 -11.5 -66.5t-3 -56.5t10.5 -34q9 -9 34 -5t41 17q20 17 32.5 16
t14.5 -14t-11 -32q-12 -18 -31.5 -32t-40 -20t-37.5 -1q-14 4 -25.5 9.5t-26.5 18.5q-12 16 -18.5 31t-8.5 35t-2 49q0 12 4.5 36t11 50t12 47t6.5 27q-3 6 -14 7t-36 -2t-71 -10q-18 -4 -43.5 -9.5t-44.5 -10t-19 -7.5q-4 0 -7 -5.5t-3 -8.5q0 -14 -4 -21q-2 -6 -6.5 -23.5
t-10 -38t-8.5 -38t-3 -23.5q-6 -7 -7 -17.5t-1 -18.5q-4 -8 -5 -14.5t-1 -10.5v-4t-1 -6q-1 -10 -2.5 -26.5t-1.5 -32.5l-3 -29q-1 -13 -3 -25t-7 -17z" />
    <glyph glyph-name=".notdef" horiz-adv-x="603" 
d="M392 960h519l-455 -1250h-519zM375 -228l14 461l-318 -461h304zM393 341l14 469l-343 -946zM785 807l-330 -478l-14 -470zM777 897h-304l-14 -460z" />
    <glyph glyph-name="A" unicode="A" horiz-adv-x="505" 
d="M66 -33q-18 10 -19.5 22t13.5 42t47 93q24 45 35.5 70.5t14.5 36.5t3 14q-2 9 2 14.5t13 9.5q5 5 19 18t24 31q9 21 20.5 43t31.5 55.5t52 87.5q20 35 45 74t52 75q11 14 21 22.5t19 7.5q15 0 33 -9t32 -23.5t20 -29.5q5 -8 4 -34t-4 -63t-7 -79q-3 -41 -9 -97
t-11.5 -117t-8.5 -117.5t0 -98.5q1 -9 0 -17t-1 -13q-6 -6 -21.5 -5.5t-30 6.5t-16.5 15q-3 3 -4 7.5t0 22t3 59.5l5 159l-13 -1q-9 0 -33.5 -2t-53 -5.5t-52.5 -7t-33 -6.5q-9 0 -21.5 -12t-23.5 -31q-4 -14 -14.5 -29.5t-10.5 -20.5q-7 -5 -11.5 -12l-4.5 -7
q0 -6 -9.5 -29.5t-23 -52t-27.5 -49.5l-23 -34zM284 296l10.5 2t25.5 4.5t27 2.5q36 9 53.5 12.5t26 3.5t14.5 -3q4 -5 7.5 -6l3.5 -1q1 2 3.5 22.5t6 50.5t7 62.5t6 60t3.5 42.5q1 19 1 34.5v15.5q-6 0 -24.5 -21.5t-41.5 -57.5t-44 -77q-10 -19 -19 -32.5t-14 -13.5
q-2 -2 -11 -17t-19.5 -33.5t-17.5 -33.5t-4 -17z" />
    <glyph glyph-name="Aacute" unicode="&#xc1;" horiz-adv-x="502" 
d="M65 -33q-18 10 -19.5 22t13.5 42t47 93q24 45 35.5 70.5t14.5 36.5t3 14q-2 9 2 14.5t13 9.5q5 5 19 18t24 31q9 21 20.5 43t31.5 55.5t52 87.5q20 35 45 74t52 75q11 14 21 22.5t19 7.5q15 0 33 -9t32 -23.5t20 -29.5q5 -8 4 -34t-4 -63t-7 -79q-3 -41 -9 -97
t-11.5 -117t-8.5 -117.5t0 -98.5q1 -9 0 -17t-1 -13q-6 -6 -21.5 -5.5t-30 6.5t-16.5 15q-3 3 -4 7.5t0 22t3 59.5l5 159l-13 -1q-9 0 -33.5 -2t-53 -5.5t-52.5 -7t-33 -6.5q-9 0 -21.5 -12t-23.5 -31q-4 -14 -14.5 -29.5t-10.5 -20.5q-7 -5 -11.5 -12l-4.5 -7
q0 -6 -9.5 -29.5t-23 -52t-27.5 -49.5l-23 -34zM283 296l10.5 2t25.5 4.5t27 2.5q36 9 53.5 12.5t26 3.5t14.5 -3q4 -5 7.5 -6l3.5 -1q1 2 3.5 22.5t6 50.5t7 62.5t6 60t3.5 42.5q1 19 1 34.5v15.5q-6 0 -24.5 -21.5t-41.5 -57.5t-44 -77q-10 -19 -19 -32.5t-14 -13.5
q-2 -2 -11 -17t-19.5 -33.5t-17.5 -33.5t-4 -17zM482 714q-7 7 -10.5 20t-2.5 24q1 5 13.5 20t29.5 33t33.5 32.5t24.5 17.5q12 7 23.5 -4.5t18.5 -29.5q3 -9 -8 -21.5t-28 -26.5t-33 -27.5t-24 -24.5q-10 -16 -17.5 -18.5t-19.5 5.5z" />
    <glyph glyph-name="Abreve" unicode="&#x102;" horiz-adv-x="502" 
d="M65 -33q-18 10 -19.5 22t13.5 42t47 93q24 45 35.5 70.5t14.5 36.5t3 14q-2 9 2 14.5t13 9.5q5 5 19 18t24 31q9 21 20.5 43t31.5 55.5t52 87.5q20 35 45 74t52 75q11 14 21 22.5t19 7.5q15 0 33 -9t32 -23.5t20 -29.5q5 -8 4 -34t-4 -63t-7 -79q-3 -41 -9 -97
t-11.5 -117t-8.5 -117.5t0 -98.5q1 -9 0 -17t-1 -13q-6 -6 -21.5 -5.5t-30 6.5t-16.5 15q-3 3 -4 7.5t0 22t3 59.5l5 159l-13 -1q-9 0 -33.5 -2t-53 -5.5t-52.5 -7t-33 -6.5q-9 0 -21.5 -12t-23.5 -31q-4 -14 -14.5 -29.5t-10.5 -20.5q-7 -5 -11.5 -12l-4.5 -7
q0 -6 -9.5 -29.5t-23 -52t-27.5 -49.5l-23 -34zM283 296l10.5 2t25.5 4.5t27 2.5q36 9 53.5 12.5t26 3.5t14.5 -3q4 -5 7.5 -6l3.5 -1q1 2 3.5 22.5t6 50.5t7 62.5t6 60t3.5 42.5q1 19 1 34.5v15.5q-6 0 -24.5 -21.5t-41.5 -57.5t-44 -77q-10 -19 -19 -32.5t-14 -13.5
q-2 -2 -11 -17t-19.5 -33.5t-17.5 -33.5t-4 -17zM516 701q-32 3 -55.5 16.5t-33.5 37.5t-4 57q4 21 14.5 31t21 10t17 -9t1.5 -26q-3 -11 -1.5 -27t13.5 -27t42 -10q13 1 26.5 11.5t24.5 25.5t17 25q13 22 23.5 27.5t18 -0.5t10.5 -17t1 -20q-4 -13 -15 -31.5t-29 -36
t-41.5 -28.5t-50.5 -9z" />
    <glyph glyph-name="Acircumflex" unicode="&#xc2;" horiz-adv-x="502" 
d="M65 -33q-18 10 -19.5 22t13.5 42t47 93q24 45 35.5 70.5t14.5 36.5t3 14q-2 9 2 14.5t13 9.5q5 5 19 18t24 31q9 21 20.5 43t31.5 55.5t52 87.5q20 35 45 74t52 75q11 14 21 22.5t19 7.5q15 0 33 -9t32 -23.5t20 -29.5q5 -8 4 -34t-4 -63t-7 -79q-3 -41 -9 -97
t-11.5 -117t-8.5 -117.5t0 -98.5q1 -9 0 -17t-1 -13q-6 -6 -21.5 -5.5t-30 6.5t-16.5 15q-3 3 -4 7.5t0 22t3 59.5l5 159l-13 -1q-9 0 -33.5 -2t-53 -5.5t-52.5 -7t-33 -6.5q-9 0 -21.5 -12t-23.5 -31q-4 -14 -14.5 -29.5t-10.5 -20.5q-7 -5 -11.5 -12l-4.5 -7
q0 -6 -9.5 -29.5t-23 -52t-27.5 -49.5l-23 -34zM283 296l10.5 2t25.5 4.5t27 2.5q36 9 53.5 12.5t26 3.5t14.5 -3q4 -5 7.5 -6l3.5 -1q1 2 3.5 22.5t6 50.5t7 62.5t6 60t3.5 42.5q1 19 1 34.5v15.5q-6 0 -24.5 -21.5t-41.5 -57.5t-44 -77q-10 -19 -19 -32.5t-14 -13.5
q-2 -2 -11 -17t-19.5 -33.5t-17.5 -33.5t-4 -17zM430 729q-17 -17 -29.5 -13.5t-16 17.5t6.5 28q3 4 14.5 14.5t27 24t31 25t25.5 17.5q10 9 20 8t16 -10q12 -10 29.5 -27.5t32.5 -33t19 -20.5q6 -9 4.5 -20.5t-9 -19t-18.5 -5t-25 18.5q-7 8 -22.5 23.5t-30.5 28.5
q-12 -7 -27 -18t-28 -21.5t-20 -16.5z" />
    <glyph glyph-name="uni0200" unicode="&#x200;" horiz-adv-x="502" 
d="M65 -33q-18 10 -19.5 22t13.5 42t47 93q24 45 35.5 70.5t14.5 36.5t3 14q-2 9 2 14.5t13 9.5q5 5 19 18t24 31q9 21 20.5 43t31.5 55.5t52 87.5q20 35 45 74t52 75q11 14 21 22.5t19 7.5q15 0 33 -9t32 -23.5t20 -29.5q5 -8 4 -34t-4 -63t-7 -79q-3 -41 -9 -97
t-11.5 -117t-8.5 -117.5t0 -98.5q1 -9 0 -17t-1 -13q-6 -6 -21.5 -5.5t-30 6.5t-16.5 15q-3 3 -4 7.5t0 22t3 59.5l5 159l-13 -1q-9 0 -33.5 -2t-53 -5.5t-52.5 -7t-33 -6.5q-9 0 -21.5 -12t-23.5 -31q-4 -14 -14.5 -29.5t-10.5 -20.5q-7 -5 -11.5 -12l-4.5 -7
q0 -6 -9.5 -29.5t-23 -52t-27.5 -49.5l-23 -34zM283 296l10.5 2t25.5 4.5t27 2.5q36 9 53.5 12.5t26 3.5t14.5 -3q4 -5 7.5 -6l3.5 -1q1 2 3.5 22.5t6 50.5t7 62.5t6 60t3.5 42.5q1 19 1 34.5v15.5q-6 0 -24.5 -21.5t-41.5 -57.5t-44 -77q-10 -19 -19 -32.5t-14 -13.5
q-2 -2 -11 -17t-19.5 -33.5t-17.5 -33.5t-4 -17zM430 714q-10 -5 -15 -0.5t-11 23.5q-5 12 -16.5 27.5t-22.5 32t-16.5 29.5t-0.5 20q11 14 23 20.5t20 0.5q8 -5 19 -22t21.5 -37.5t18 -36.5t7.5 -19q1 -4 -4 -11.5t-11 -15t-12 -11.5zM550 715q-11 -5 -15.5 -1.5
t-10.5 22.5q-7 13 -18 29l-22 32t-16.5 29t-0.5 19q14 17 25 22t18 0q7 -4 17.5 -20t21.5 -36t18.5 -36.5t8.5 -23.5q1 -3 -6.5 -15.5t-19.5 -20.5z" />
    <glyph glyph-name="Adieresis" unicode="&#xc4;" horiz-adv-x="502" 
d="M65 -33q-18 10 -19.5 22t13.5 42t47 93q24 45 35.5 70.5t14.5 36.5t3 14q-2 9 2 14.5t13 9.5q5 5 19 18t24 31q9 21 20.5 43t31.5 55.5t52 87.5q20 35 45 74t52 75q11 14 21 22.5t19 7.5q15 0 33 -9t32 -23.5t20 -29.5q5 -8 4 -34t-4 -63t-7 -79q-3 -41 -9 -97
t-11.5 -117t-8.5 -117.5t0 -98.5q1 -9 0 -17t-1 -13q-6 -6 -21.5 -5.5t-30 6.5t-16.5 15q-3 3 -4 7.5t0 22t3 59.5l5 159l-13 -1q-9 0 -33.5 -2t-53 -5.5t-52.5 -7t-33 -6.5q-9 0 -21.5 -12t-23.5 -31q-4 -14 -14.5 -29.5t-10.5 -20.5q-7 -5 -11.5 -12l-4.5 -7
q0 -6 -9.5 -29.5t-23 -52t-27.5 -49.5l-23 -34zM283 296l10.5 2t25.5 4.5t27 2.5q36 9 53.5 12.5t26 3.5t14.5 -3q4 -5 7.5 -6l3.5 -1q1 2 3.5 22.5t6 50.5t7 62.5t6 60t3.5 42.5q1 19 1 34.5v15.5q-6 0 -24.5 -21.5t-41.5 -57.5t-44 -77q-10 -19 -19 -32.5t-14 -13.5
q-2 -2 -11 -17t-19.5 -33.5t-17.5 -33.5t-4 -17zM574 749q-7 7 -11.5 19t-3.5 16q2 5 7.5 20t11.5 20q4 4 10 11t10 8q12 10 24.5 4t18.5 -22q12 -17 7.5 -31.5t-19.5 -32.5q-17 -24 -30.5 -24.5t-24.5 12.5zM440 745q-9 8 -14.5 21t-4.5 18q2 8 9.5 24t14.5 22q3 2 7.5 7
t8.5 6q10 7 19 4.5t16 -10t10 -18.5q8 -14 4.5 -26.5t-17.5 -29.5q-16 -21 -29 -25t-24 7z" />
    <glyph glyph-name="Agrave" unicode="&#xc0;" horiz-adv-x="502" 
d="M65 -33q-18 10 -19.5 22t13.5 42t47 93q24 45 35.5 70.5t14.5 36.5t3 14q-2 9 2 14.5t13 9.5q5 5 19 18t24 31q9 21 20.5 43t31.5 55.5t52 87.5q20 35 45 74t52 75q11 14 21 22.5t19 7.5q15 0 33 -9t32 -23.5t20 -29.5q5 -8 4 -34t-4 -63t-7 -79q-3 -41 -9 -97
t-11.5 -117t-8.5 -117.5t0 -98.5q1 -9 0 -17t-1 -13q-6 -6 -21.5 -5.5t-30 6.5t-16.5 15q-3 3 -4 7.5t0 22t3 59.5l5 159l-13 -1q-9 0 -33.5 -2t-53 -5.5t-52.5 -7t-33 -6.5q-9 0 -21.5 -12t-23.5 -31q-4 -14 -14.5 -29.5t-10.5 -20.5q-7 -5 -11.5 -12l-4.5 -7
q0 -6 -9.5 -29.5t-23 -52t-27.5 -49.5l-23 -34zM283 296l10.5 2t25.5 4.5t27 2.5q36 9 53.5 12.5t26 3.5t14.5 -3q4 -5 7.5 -6l3.5 -1q1 2 3.5 22.5t6 50.5t7 62.5t6 60t3.5 42.5q1 19 1 34.5v15.5q-6 0 -24.5 -21.5t-41.5 -57.5t-44 -77q-10 -19 -19 -32.5t-14 -13.5
q-2 -2 -11 -17t-19.5 -33.5t-17.5 -33.5t-4 -17zM549 709q-9 -6 -13 -3.5t-7 11t-8 19.5q-8 17 -23.5 39.5t-24 43.5t0.5 33q16 15 26 19t20 -7q7 -4 16.5 -21t19 -38.5t16 -39.5t6.5 -24q1 -4 -8.5 -16.5t-20.5 -15.5z" />
    <glyph glyph-name="uni0202" unicode="&#x202;" horiz-adv-x="502" 
d="M65 -33q-18 10 -19.5 22t13.5 42t47 93q24 45 35.5 70.5t14.5 36.5t3 14q-2 9 2 14.5t13 9.5q5 5 19 18t24 31q9 21 20.5 43t31.5 55.5t52 87.5q20 35 45 74t52 75q11 14 21 22.5t19 7.5q15 0 33 -9t32 -23.5t20 -29.5q5 -8 4 -34t-4 -63t-7 -79q-3 -41 -9 -97
t-11.5 -117t-8.5 -117.5t0 -98.5q1 -9 0 -17t-1 -13q-6 -6 -21.5 -5.5t-30 6.5t-16.5 15q-3 3 -4 7.5t0 22t3 59.5l5 159l-13 -1q-9 0 -33.5 -2t-53 -5.5t-52.5 -7t-33 -6.5q-9 0 -21.5 -12t-23.5 -31q-4 -14 -14.5 -29.5t-10.5 -20.5q-7 -5 -11.5 -12l-4.5 -7
q0 -6 -9.5 -29.5t-23 -52t-27.5 -49.5l-23 -34zM283 296l10.5 2t25.5 4.5t27 2.5q36 9 53.5 12.5t26 3.5t14.5 -3q4 -5 7.5 -6l3.5 -1q1 2 3.5 22.5t6 50.5t7 62.5t6 60t3.5 42.5q1 19 1 34.5v15.5q-6 0 -24.5 -21.5t-41.5 -57.5t-44 -77q-10 -19 -19 -32.5t-14 -13.5
q-2 -2 -11 -17t-19.5 -33.5t-17.5 -33.5t-4 -17zM566 733q3 12 2.5 28t-11.5 27.5t-40 10.5q-13 1 -27.5 -10t-27.5 -26.5t-22 -31.5q-14 -24 -26 -24.5t-18 12.5t-5 28q5 12 17 30.5t30.5 36.5t41.5 29t48 9q36 -3 59 -19t32 -40t3 -53q-6 -28 -21.5 -36.5t-27 -0.5
t-7.5 30z" />
    <glyph glyph-name="Amacron" unicode="&#x100;" horiz-adv-x="502" 
d="M65 -33q-18 10 -19.5 22t13.5 42t47 93q24 45 35.5 70.5t14.5 36.5t3 14q-2 9 2 14.5t13 9.5q5 5 19 18t24 31q9 21 20.5 43t31.5 55.5t52 87.5q20 35 45 74t52 75q11 14 21 22.5t19 7.5q15 0 33 -9t32 -23.5t20 -29.5q5 -8 4 -34t-4 -63t-7 -79q-3 -41 -9 -97
t-11.5 -117t-8.5 -117.5t0 -98.5q1 -9 0 -17t-1 -13q-6 -6 -21.5 -5.5t-30 6.5t-16.5 15q-3 3 -4 7.5t0 22t3 59.5l5 159l-13 -1q-9 0 -33.5 -2t-53 -5.5t-52.5 -7t-33 -6.5q-9 0 -21.5 -12t-23.5 -31q-4 -14 -14.5 -29.5t-10.5 -20.5q-7 -5 -11.5 -12l-4.5 -7
q0 -6 -9.5 -29.5t-23 -52t-27.5 -49.5l-23 -34zM283 296l10.5 2t25.5 4.5t27 2.5q36 9 53.5 12.5t26 3.5t14.5 -3q4 -5 7.5 -6l3.5 -1q1 2 3.5 22.5t6 50.5t7 62.5t6 60t3.5 42.5q1 19 1 34.5v15.5q-6 0 -24.5 -21.5t-41.5 -57.5t-44 -77q-10 -19 -19 -32.5t-14 -13.5
q-2 -2 -11 -17t-19.5 -33.5t-17.5 -33.5t-4 -17zM457 761q-7 0 -16.5 1t-18.5 4q-15 0 -20.5 3t-10.5 12q-9 15 0.5 21t43.5 10q33 5 66.5 8.5t69.5 3.5q25 0 44 -3t30 -12q13 -14 9.5 -27.5t-24.5 -12.5q-6 0 -20.5 -1t-31 -1.5t-28.5 -0.5q-7 -1 -22 -2t-34 -2t-37 -1z
" />
    <glyph glyph-name="Aogonek" unicode="&#x104;" horiz-adv-x="502" 
d="M65 -33q-18 10 -19.5 22t13.5 42t47 93q24 45 35.5 70.5t14.5 36.5t3 14q-2 9 2 14.5t13 9.5q5 5 19 18t24 31q9 21 20.5 43t31.5 55.5t52 87.5q20 35 45 74t52 75q11 14 21 22.5t19 7.5q15 0 33 -9t32 -23.5t20 -29.5q5 -8 4 -34t-4 -63t-7 -79q-3 -41 -9 -97
t-11.5 -117t-8.5 -117.5t0 -98.5q1 -9 0 -17t-1 -13q-6 -6 -21.5 -5.5t-30 6.5t-16.5 15q-3 3 -4 7.5t0 22t3 59.5l5 159l-13 -1q-9 0 -33.5 -2t-53 -5.5t-52.5 -7t-33 -6.5q-9 0 -21.5 -12t-23.5 -31q-4 -14 -14.5 -29.5t-10.5 -20.5q-7 -5 -11.5 -12l-4.5 -7
q0 -6 -9.5 -29.5t-23 -52t-27.5 -49.5l-23 -34zM283 296l10.5 2t25.5 4.5t27 2.5q36 9 53.5 12.5t26 3.5t14.5 -3q4 -5 7.5 -6l3.5 -1q1 2 3.5 22.5t6 50.5t7 62.5t6 60t3.5 42.5q1 19 1 34.5v15.5q-6 0 -24.5 -21.5t-41.5 -57.5t-44 -77q-10 -19 -19 -32.5t-14 -13.5
q-2 -2 -11 -17t-19.5 -33.5t-17.5 -33.5t-4 -17zM388 -198q-20 6 -36 21.5t-21.5 37.5t6.5 44q12 23 34.5 46.5t48.5 44.5t48 35l38 -30q-22 -13 -52.5 -38.5t-48.5 -47.5q-14 -17 -19.5 -30.5t1.5 -24.5q3 -6 18 -6q23 4 39 14t41 22q13 7 20 3t8.5 -14t-3 -20t-16.5 -15
q-4 -1 -17 -7.5t-29.5 -13.5t-32.5 -13t-27 -8z" />
    <glyph glyph-name="Aring" unicode="&#xc5;" horiz-adv-x="502" 
d="M65 -33q-18 10 -19.5 22t13.5 42t47 93q24 45 35.5 70.5t14.5 36.5t3 14q-2 9 2 14.5t13 9.5q5 5 19 18t24 31q9 21 20.5 43t31.5 55.5t52 87.5q20 35 45 74t52 75q11 14 21 22.5t19 7.5q15 0 33 -9t32 -23.5t20 -29.5q5 -8 4 -34t-4 -63t-7 -79q-3 -41 -9 -97
t-11.5 -117t-8.5 -117.5t0 -98.5q1 -9 0 -17t-1 -13q-6 -6 -21.5 -5.5t-30 6.5t-16.5 15q-3 3 -4 7.5t0 22t3 59.5l5 159l-13 -1q-9 0 -33.5 -2t-53 -5.5t-52.5 -7t-33 -6.5q-9 0 -21.5 -12t-23.5 -31q-4 -14 -14.5 -29.5t-10.5 -20.5q-7 -5 -11.5 -12l-4.5 -7
q0 -6 -9.5 -29.5t-23 -52t-27.5 -49.5l-23 -34zM283 296l10.5 2t25.5 4.5t27 2.5q36 9 53.5 12.5t26 3.5t14.5 -3q4 -5 7.5 -6l3.5 -1q1 2 3.5 22.5t6 50.5t7 62.5t6 60t3.5 42.5q1 19 1 34.5v15.5q-6 0 -24.5 -21.5t-41.5 -57.5t-44 -77q-10 -19 -19 -32.5t-14 -13.5
q-2 -2 -11 -17t-19.5 -33.5t-17.5 -33.5t-4 -17zM528 688q-34 0 -49 20.5t-20 51.5q0 23 9 46.5t26 39t38 15.5q36 0 57.5 -16t21.5 -45q-1 -28 -11.5 -54t-28.5 -42t-43 -16zM526 734q18 0 28 12t9 32q0 14 -4.5 25t-20.5 11q-36 -1 -36 -47q0 -10 8 -21.5t16 -11.5z" />
    <glyph glyph-name="Aringacute" unicode="&#x1fa;" horiz-adv-x="502" 
d="M65 -33q-18 10 -19.5 22t13.5 42t47 93q24 45 35.5 70.5t14.5 36.5t3 14q-2 9 2 14.5t13 9.5q5 5 19 18t24 31q9 21 20.5 43t31.5 55.5t52 87.5q20 35 45 74t52 75q11 14 21 22.5t19 7.5q15 0 33 -9t32 -23.5t20 -29.5q5 -8 4 -34t-4 -63t-7 -79q-3 -41 -9 -97
t-11.5 -117t-8.5 -117.5t0 -98.5q1 -9 0 -17t-1 -13q-6 -6 -21.5 -5.5t-30 6.5t-16.5 15q-3 3 -4 7.5t0 22t3 59.5l5 159l-13 -1q-9 0 -33.5 -2t-53 -5.5t-52.5 -7t-33 -6.5q-9 0 -21.5 -12t-23.5 -31q-4 -14 -14.5 -29.5t-10.5 -20.5q-7 -5 -11.5 -12l-4.5 -7
q0 -6 -9.5 -29.5t-23 -52t-27.5 -49.5l-23 -34zM283 296l10.5 2t25.5 4.5t27 2.5q36 9 53.5 12.5t26 3.5t14.5 -3q4 -5 7.5 -6l3.5 -1q1 2 3.5 22.5t6 50.5t7 62.5t6 60t3.5 42.5q1 19 1 34.5v15.5q-6 0 -24.5 -21.5t-41.5 -57.5t-44 -77q-10 -19 -19 -32.5t-14 -13.5
q-2 -2 -11 -17t-19.5 -33.5t-17.5 -33.5t-4 -17zM528 688q-34 0 -49 20.5t-20 51.5q0 23 9 46.5t26 39t38 15.5q36 0 57.5 -16t21.5 -45q-1 -28 -11.5 -54t-28.5 -42t-43 -16zM526 734q18 0 28 12t9 32q0 14 -4.5 25t-20.5 11q-36 -1 -36 -47q0 -10 8 -21.5t16 -11.5z
M561 809q-7 7 -10.5 20t-2.5 24q1 5 13.5 20t29.5 33t33.5 32.5t24.5 17.5q12 7 23.5 -4.5t18.5 -29.5q3 -9 -8 -21.5t-28 -26.5t-33 -27.5t-24 -24.5q-10 -16 -17.5 -18.5t-19.5 5.5z" />
    <glyph glyph-name="Atilde" unicode="&#xc3;" horiz-adv-x="502" 
d="M65 -33q-18 10 -19.5 22t13.5 42t47 93q24 45 35.5 70.5t14.5 36.5t3 14q-2 9 2 14.5t13 9.5q5 5 19 18t24 31q9 21 20.5 43t31.5 55.5t52 87.5q20 35 45 74t52 75q11 14 21 22.5t19 7.5q15 0 33 -9t32 -23.5t20 -29.5q5 -8 4 -34t-4 -63t-7 -79q-3 -41 -9 -97
t-11.5 -117t-8.5 -117.5t0 -98.5q1 -9 0 -17t-1 -13q-6 -6 -21.5 -5.5t-30 6.5t-16.5 15q-3 3 -4 7.5t0 22t3 59.5l5 159l-13 -1q-9 0 -33.5 -2t-53 -5.5t-52.5 -7t-33 -6.5q-9 0 -21.5 -12t-23.5 -31q-4 -14 -14.5 -29.5t-10.5 -20.5q-7 -5 -11.5 -12l-4.5 -7
q0 -6 -9.5 -29.5t-23 -52t-27.5 -49.5l-23 -34zM283 296l10.5 2t25.5 4.5t27 2.5q36 9 53.5 12.5t26 3.5t14.5 -3q4 -5 7.5 -6l3.5 -1q1 2 3.5 22.5t6 50.5t7 62.5t6 60t3.5 42.5q1 19 1 34.5v15.5q-6 0 -24.5 -21.5t-41.5 -57.5t-44 -77q-10 -19 -19 -32.5t-14 -13.5
q-2 -2 -11 -17t-19.5 -33.5t-17.5 -33.5t-4 -17zM571 728q-18 0 -31.5 7.5t-32.5 21.5q-9 5 -23.5 19.5t-26.5 14.5q-10 0 -16.5 -8t-12.5 -16.5t-17 -10.5q-1 -5 -5.5 -12.5t-8.5 -2.5q-10 3 -16 10.5t-7 16.5q4 14 19 36t46 38q18 6 38.5 0t36.5 -22q23 -20 35.5 -27.5
t31.5 0.5q15 4 31.5 15t37.5 19q7 3 13.5 -2t10 -13t2.5 -14t-8 -16.5t-16 -15.5q-30 -17 -46.5 -25t-23.5 -10.5t-11 -2.5z" />
    <glyph glyph-name="AE" unicode="&#xc6;" horiz-adv-x="784" 
d="M554 -49q-40 0 -68.5 5t-54.5 25q-20 16 -29.5 38.5t-8.5 53t11 69.5q3 19 7.5 36.5t8.5 26.5h-12q-20 -2 -57 -0.5t-87 4.5l-17 -21q-4 -6 -16.5 -22.5t-23.5 -37.5q-10 -19 -25 -45t-32 -46q-21 -31 -31.5 -41.5t-15.5 -10.5q-10 0 -16.5 2t-14.5 9q-18 9 -14.5 28
t28.5 48q6 7 10.5 14l4.5 7q2 4 12 21.5t23.5 37.5t25 36t16.5 18q22 20 3 39q-7 3 -5 11t10.5 15.5t21.5 7.5l15 6t5 6q1 3 9 16t19 30.5t22.5 33.5t19.5 25q15 28 21.5 37t12.5 18q6 5 18.5 22.5t23.5 33.5q16 14 29.5 30t23.5 27q6 11 16.5 23.5t23.5 26.5q22 21 36 25.5
t31 -1.5q12 -3 37 -7.5t53 -11.5q20 8 48 14.5t50 7.5q6 4 26.5 6t47.5 2t50 -2q22 0 35 -6l26 -12q11 -9 13 -17.5t0.5 -14l-1.5 -5.5q-2 -2 -14 -3.5t-33 -2.5t-49 -1q-21 0 -43.5 -3t-40 -6t-24.5 -3q-12 -4 -25.5 -5t-14.5 -1q-2 0 -11.5 -14t-20 -32.5t-19 -34.5
t-8.5 -19q0 -10 -8 -23t-19 -29q-10 -13 -13 -24t6 -15q16 3 40.5 5.5l49 5t39.5 2.5q20 5 34 3t19 -6q13 -2 17.5 -9t2.5 -14t-11 -11q-5 -5 -28 -13t-54 -15.5t-62 -14t-54.5 -11t-29.5 -3.5q-6 12 -10 -1t-21 -58q-11 -25 -18.5 -44.5t-12.5 -41.5t-11 -53
q-6 -23 -1.5 -41.5t36.5 -33.5q20 -4 50 -3.5t73 11.5q18 11 34 18.5t23 11.5q5 0 15.5 3.5t14.5 3.5q4 5 8.5 8t11.5 3q2 0 10.5 -9.5t16 -20.5t6.5 -14q0 -10 -26.5 -22.5t-76.5 -32.5q-25 -11 -40.5 -17t-31 -8.5t-41.5 -2.5zM309 270l21 2.5t49 1.5q19 2 35.5 1.5
t27.5 -0.5q2 8 5 13.5t7 10.5q3 4 6 14.5t4 12.5l2 7.5t6 17.5q6 13 9.5 20.5t4.5 11.5q3 4 9 13t11 21q24 44 39.5 73.5t22.5 49.5q-13 3 -28 4t-33 1q-3 3 -14.5 -7.5t-27 -26.5t-28.5 -31t-18 -23q-4 -5 -19 -27t-32 -46q-28 -38 -42.5 -62.5t-18 -36.5t1.5 -15z" />
    <glyph glyph-name="AEacute" unicode="&#x1fc;" horiz-adv-x="784" 
d="M554 -49q-40 0 -68.5 5t-54.5 25q-20 16 -29.5 38.5t-8.5 53t11 69.5q3 19 7.5 36.5t8.5 26.5h-12q-20 -2 -57 -0.5t-87 4.5l-17 -21q-4 -6 -16.5 -22.5t-23.5 -37.5q-10 -19 -25 -45t-32 -46q-21 -31 -31.5 -41.5t-15.5 -10.5q-10 0 -16.5 2t-14.5 9q-18 9 -14.5 28
t28.5 48q6 7 10.5 14l4.5 7q2 4 12 21.5t23.5 37.5t25 36t16.5 18q22 20 3 39q-7 3 -5 11t10.5 15.5t21.5 7.5l15 6t5 6q1 3 9 16t19 30.5t22.5 33.5t19.5 25q15 28 21.5 37t12.5 18q6 5 18.5 22.5t23.5 33.5q16 14 29.5 30t23.5 27q6 11 16.5 23.5t23.5 26.5q22 21 36 25.5
t31 -1.5q12 -3 37 -7.5t53 -11.5q20 8 48 14.5t50 7.5q6 4 26.5 6t47.5 2t50 -2q22 0 35 -6l26 -12q11 -9 13 -17.5t0.5 -14l-1.5 -5.5q-2 -2 -14 -3.5t-33 -2.5t-49 -1q-21 0 -43.5 -3t-40 -6t-24.5 -3q-12 -4 -25.5 -5t-14.5 -1q-2 0 -11.5 -14t-20 -32.5t-19 -34.5
t-8.5 -19q0 -10 -8 -23t-19 -29q-10 -13 -13 -24t6 -15q16 3 40.5 5.5l49 5t39.5 2.5q20 5 34 3t19 -6q13 -2 17.5 -9t2.5 -14t-11 -11q-5 -5 -28 -13t-54 -15.5t-62 -14t-54.5 -11t-29.5 -3.5q-6 12 -10 -1t-21 -58q-11 -25 -18.5 -44.5t-12.5 -41.5t-11 -53
q-6 -23 -1.5 -41.5t36.5 -33.5q20 -4 50 -3.5t73 11.5q18 11 34 18.5t23 11.5q5 0 15.5 3.5t14.5 3.5q4 5 8.5 8t11.5 3q2 0 10.5 -9.5t16 -20.5t6.5 -14q0 -10 -26.5 -22.5t-76.5 -32.5q-25 -11 -40.5 -17t-31 -8.5t-41.5 -2.5zM309 270l21 2.5t49 1.5q19 2 35.5 1.5
t27.5 -0.5q2 8 5 13.5t7 10.5q3 4 6 14.5t4 12.5l2 7.5t6 17.5q6 13 9.5 20.5t4.5 11.5q3 4 9 13t11 21q24 44 39.5 73.5t22.5 49.5q-13 3 -28 4t-33 1q-3 3 -14.5 -7.5t-27 -26.5t-28.5 -31t-18 -23q-4 -5 -19 -27t-32 -46q-28 -38 -42.5 -62.5t-18 -36.5t1.5 -15zM661 714
q-7 7 -10.5 20t-2.5 24q1 5 13.5 20t29.5 33t33.5 32.5t24.5 17.5q12 7 23.5 -4.5t18.5 -29.5q3 -9 -8 -21.5t-28 -26.5t-33 -27.5t-24 -24.5q-10 -16 -17.5 -18.5t-19.5 5.5z" />
    <glyph glyph-name="B" unicode="B" horiz-adv-x="521" 
d="M204 -62q-43 28 -55.5 51t14.5 40q6 4 21 -4t24 -17q20 -18 48 -22.5t65 5.5q42 13 70.5 35t56.5 56q21 27 29.5 57t7 55t-11.5 36q-25 35 -67 48.5t-102 -2.5q-7 -1 -21 -4t-25 -5.5t-12 -2.5q-7 -2 -11 -3.5t-9.5 -13t-16.5 -42.5t-33 -92q-21 -61 -34 -86.5t-23 -23
t-24 21.5q-8 14 -12.5 28.5t5.5 32.5q5 9 8 16.5t8 26.5q5 15 19.5 52.5t34.5 88t42 104.5t42.5 102t34.5 81q14 31 17 45t-2 15q0 5 -3 9.5t-2 8.5q0 4 15 11t32.5 13t26.5 4q5 0 12 0.5t7 4.5q3 0 19 2t35 0q67 -6 106 -38.5t38 -93.5q-1 -17 -16.5 -45t-37.5 -56.5
t-44 -48.5q-13 -11 -27.5 -22.5t-25 -19l-10.5 -7.5l8 -3t17 -6q46 -17 75 -43t40 -72q4 -15 0.5 -37t-9.5 -43.5t-13 -36.5q-7 -7 -11 -14.5l-4 -7.5q0 -2 -8 -15.5t-19 -29.5t-21 -28q-10 -8 -25.5 -20t-33.5 -23.5t-37 -18.5q-28 -12 -61 -16.5t-63 -1t-48 14.5zM261 333
l18 3.5t39 8t31 8.5q5 3 14.5 8t19.5 15q14 13 34 35t39 46.5t30 46.5q23 36 25 53t-11 30q-9 11 -28.5 15t-42 3.5t-39.5 -5.5q-13 -4 -20 -9.5t-7 -16.5q0 -9 -5.5 -18t-10.5 -14q-1 -7 -5.5 -13l-4.5 -6q0 -4 -13.5 -30t-27.5 -64q-18 -43 -26.5 -67t-8.5 -29z" />
    <glyph glyph-name="C" unicode="C" horiz-adv-x="474" 
d="M216 -59q-15 6 -32 14t-32 22.5t-25 38.5q-10 29 -13.5 57t-2.5 65q0 52 7.5 90.5t23.5 78.5q2 3 7.5 17.5t13 31.5t11.5 26q8 17 24.5 45.5t35.5 55.5q29 43 48.5 69t37 43.5t39.5 34t56 39.5q22 16 51 18t55.5 -11t38.5 -43q11 -21 11 -51t-10 -63.5t-26 -63t-37 -48.5
q-13 -12 -27.5 -7.5t-28.5 17.5q-9 17 -9.5 20t3.5 4q6 7 16 24t20 36.5t14 31.5q8 42 11 58t-6 25q-4 4 -11.5 3t-24.5 -10q-23 -10 -58 -43t-66 -75q-40 -53 -67 -94t-41 -84q-2 -4 -6.5 -15l-4.5 -11q1 -4 -3 -19.5t-9 -26.5q-11 -46 -13 -93t5.5 -83t22.5 -51
q13 -9 34.5 -6t49.5 14t58 24q24 10 44 22t30 21q8 6 20.5 12.5t21.5 6.5q14 5 18 0t4 -17q0 -14 -17 -32t-41 -32q-8 -8 -21.5 -16t-27.5 -13q-21 -16 -52 -31t-62.5 -23t-57.5 -3z" />
    <glyph glyph-name="Cacute" unicode="&#x106;" horiz-adv-x="482" 
d="M215 -59q-15 6 -32 14t-32 22.5t-25 38.5q-10 29 -13.5 57t-2.5 65q0 52 7.5 90.5t23.5 78.5q2 3 7.5 17.5t13 31.5t11.5 26q8 17 24.5 45.5t35.5 55.5q29 43 48.5 69t37 43.5t39.5 34t56 39.5q22 16 51 18t55.5 -11t38.5 -43q11 -21 11 -51t-10 -63.5t-26 -63t-37 -48.5
q-13 -12 -27.5 -7.5t-28.5 17.5q-9 17 -9.5 20t3.5 4q6 7 16 24t20 36.5t14 31.5q8 42 11 58t-6 25q-4 4 -11.5 3t-24.5 -10q-23 -10 -58 -43t-66 -75q-40 -53 -67 -94t-41 -84q-2 -4 -6.5 -15l-4.5 -11q1 -4 -3 -19.5t-9 -26.5q-11 -46 -13 -93t5.5 -83t22.5 -51
q13 -9 34.5 -6t49.5 14t58 24q24 10 44 22t30 21q8 6 20.5 12.5t21.5 6.5q14 5 18 0t4 -17q0 -14 -17 -32t-41 -32q-8 -8 -21.5 -16t-27.5 -13q-21 -16 -52 -31t-62.5 -23t-57.5 -3zM470 714q-7 7 -10.5 20t-2.5 24q1 5 13.5 20t29.5 33t33.5 32.5t24.5 17.5q12 7 23.5 -4.5
t18.5 -29.5q3 -9 -8 -21.5t-28 -26.5t-33 -27.5t-24 -24.5q-10 -16 -17.5 -18.5t-19.5 5.5z" />
    <glyph glyph-name="Ccaron" unicode="&#x10c;" horiz-adv-x="482" 
d="M215 -59q-15 6 -32 14t-32 22.5t-25 38.5q-10 29 -13.5 57t-2.5 65q0 52 7.5 90.5t23.5 78.5q2 3 7.5 17.5t13 31.5t11.5 26q8 17 24.5 45.5t35.5 55.5q29 43 48.5 69t37 43.5t39.5 34t56 39.5q22 16 51 18t55.5 -11t38.5 -43q11 -21 11 -51t-10 -63.5t-26 -63t-37 -48.5
q-13 -12 -27.5 -7.5t-28.5 17.5q-9 17 -9.5 20t3.5 4q6 7 16 24t20 36.5t14 31.5q8 42 11 58t-6 25q-4 4 -11.5 3t-24.5 -10q-23 -10 -58 -43t-66 -75q-40 -53 -67 -94t-41 -84q-2 -4 -6.5 -15l-4.5 -11q1 -4 -3 -19.5t-9 -26.5q-11 -46 -13 -93t5.5 -83t22.5 -51
q13 -9 34.5 -6t49.5 14t58 24q24 10 44 22t30 21q8 6 20.5 12.5t21.5 6.5q14 5 18 0t4 -17q0 -14 -17 -32t-41 -32q-8 -8 -21.5 -16t-27.5 -13q-21 -16 -52 -31t-62.5 -23t-57.5 -3zM523 719q-8 -6 -17 -6.5t-17 8.5q-12 10 -30.5 28t-34.5 34t-19 21q-3 12 2.5 25t18 15.5
t28.5 -16.5q7 -10 23 -23.5t32 -27.5q12 7 27.5 17t29 20t20.5 16q22 15 33 11.5t13.5 -15.5t-1.5 -21q-1 -4 -14 -16t-30.5 -26t-34.5 -26t-29 -18z" />
    <glyph glyph-name="Ccedilla" unicode="&#xc7;" horiz-adv-x="482" 
d="M215 -59q-15 6 -32 14t-32 22.5t-25 38.5q-10 29 -13.5 57t-2.5 65q0 52 7.5 90.5t23.5 78.5q2 3 7.5 17.5t13 31.5t11.5 26q8 17 24.5 45.5t35.5 55.5q29 43 48.5 69t37 43.5t39.5 34t56 39.5q22 16 51 18t55.5 -11t38.5 -43q11 -21 11 -51t-10 -63.5t-26 -63t-37 -48.5
q-13 -12 -27.5 -7.5t-28.5 17.5q-9 17 -9.5 20t3.5 4q6 7 16 24t20 36.5t14 31.5q8 42 11 58t-6 25q-4 4 -11.5 3t-24.5 -10q-23 -10 -58 -43t-66 -75q-40 -53 -67 -94t-41 -84q-2 -4 -6.5 -15l-4.5 -11q1 -4 -3 -19.5t-9 -26.5q-11 -46 -13 -93t5.5 -83t22.5 -51
q13 -9 34.5 -6t49.5 14t58 24q24 10 44 22t30 21q8 6 20.5 12.5t21.5 6.5q14 5 18 0t4 -17q0 -14 -17 -32t-41 -32q-8 -8 -21.5 -16t-27.5 -13q-21 -16 -52 -31t-62.5 -23t-57.5 -3zM237 -255q-15 -3 -37.5 0t-41.5 8t-25 7q-12 4 -16.5 13.5t-2 19t11 14.5t22.5 1
q16 -4 35.5 -10.5t35 -6.5t22.5 14q7 11 1.5 22t-16.5 23q-7 9 -16 19.5t-20 20.5q-8 12 -10 24.5t14 28.5t64 40l41 -25q-25 -12 -40.5 -23t-15.5 -24q14 -20 31 -38.5t22 -38.5q6 -24 -1 -42.5t-22.5 -30.5t-35.5 -16z" />
    <glyph glyph-name="Ccircumflex" unicode="&#x108;" horiz-adv-x="482" 
d="M215 -59q-15 6 -32 14t-32 22.5t-25 38.5q-10 29 -13.5 57t-2.5 65q0 52 7.5 90.5t23.5 78.5q2 3 7.5 17.5t13 31.5t11.5 26q8 17 24.5 45.5t35.5 55.5q29 43 48.5 69t37 43.5t39.5 34t56 39.5q22 16 51 18t55.5 -11t38.5 -43q11 -21 11 -51t-10 -63.5t-26 -63t-37 -48.5
q-13 -12 -27.5 -7.5t-28.5 17.5q-9 17 -9.5 20t3.5 4q6 7 16 24t20 36.5t14 31.5q8 42 11 58t-6 25q-4 4 -11.5 3t-24.5 -10q-23 -10 -58 -43t-66 -75q-40 -53 -67 -94t-41 -84q-2 -4 -6.5 -15l-4.5 -11q1 -4 -3 -19.5t-9 -26.5q-11 -46 -13 -93t5.5 -83t22.5 -51
q13 -9 34.5 -6t49.5 14t58 24q24 10 44 22t30 21q8 6 20.5 12.5t21.5 6.5q14 5 18 0t4 -17q0 -14 -17 -32t-41 -32q-8 -8 -21.5 -16t-27.5 -13q-21 -16 -52 -31t-62.5 -23t-57.5 -3zM458 729q-17 -17 -29.5 -13.5t-16 17.5t6.5 28q3 4 14.5 14.5t27 24t31 25t25.5 17.5
q10 9 20 8t16 -10q12 -10 29.5 -27.5t32.5 -33t19 -20.5q6 -9 4.5 -20.5t-9 -19t-18.5 -5t-25 18.5q-7 8 -22.5 23.5t-30.5 28.5q-12 -7 -27 -18t-28 -21.5t-20 -16.5z" />
    <glyph glyph-name="Cdotaccent" unicode="&#x10a;" horiz-adv-x="482" 
d="M215 -59q-15 6 -32 14t-32 22.5t-25 38.5q-10 29 -13.5 57t-2.5 65q0 52 7.5 90.5t23.5 78.5q2 3 7.5 17.5t13 31.5t11.5 26q8 17 24.5 45.5t35.5 55.5q29 43 48.5 69t37 43.5t39.5 34t56 39.5q22 16 51 18t55.5 -11t38.5 -43q11 -21 11 -51t-10 -63.5t-26 -63t-37 -48.5
q-13 -12 -27.5 -7.5t-28.5 17.5q-9 17 -9.5 20t3.5 4q6 7 16 24t20 36.5t14 31.5q8 42 11 58t-6 25q-4 4 -11.5 3t-24.5 -10q-23 -10 -58 -43t-66 -75q-40 -53 -67 -94t-41 -84q-2 -4 -6.5 -15l-4.5 -11q1 -4 -3 -19.5t-9 -26.5q-11 -46 -13 -93t5.5 -83t22.5 -51
q13 -9 34.5 -6t49.5 14t58 24q24 10 44 22t30 21q8 6 20.5 12.5t21.5 6.5q14 5 18 0t4 -17q0 -14 -17 -32t-41 -32q-8 -8 -21.5 -16t-27.5 -13q-21 -16 -52 -31t-62.5 -23t-57.5 -3zM488 737q-7 7 -12 21t-4 21q2 5 8.5 22.5t20.5 29.5q3 2 6.5 6.5t7.5 5.5q12 8 24 4
t25 -21q11 -23 6.5 -37t-23.5 -37q-15 -20 -28.5 -24t-30.5 9z" />
    <glyph glyph-name="D" unicode="D" horiz-adv-x="581" 
d="M221 -99q-19 -3 -39 -2t-51 9q-16 5 -22.5 12t-21.5 26q-10 16 -14 31t0.5 25t17.5 9q4 0 12.5 -5.5t16.5 -13.5q16 -14 37.5 -21.5t50.5 -3.5q14 3 33.5 7t38.5 10t30 14q53 36 83 57.5l30 21.5q2 4 7.5 6.5t13.5 5.5q6 6 19.5 19t26 26t15.5 15q2 9 4 14.5t2 11.5
q8 8 21.5 33.5t27.5 57t20 57.5q13 65 7 112t-26.5 82t-52.5 62q-11 9 -30.5 19.5t-40 19t-36 13.5t-18.5 4q-4 -1 -16 -31t-29 -77t-36 -99.5t-36 -99.5q-6 -19 -13 -40t-12 -36.5t-5 -20.5q-11 -17 -19.5 -47.5t-16.5 -95.5q-9 -34 -13 -53t-8 -18l-0.5 -3.5t-3.5 -6.5
q0 -6 -9.5 -7t-22 4.5t-20.5 16.5q-3 11 -4 24.5t7 42.5q5 19 13 47.5t17.5 59t18 56t12.5 38.5q7 17 20 64q8 26 16.5 52t16.5 46.5t11 26.5q5 13 14.5 43.5t25.5 68.5l7 33l-11 5q-12 -4 -18.5 -2.5t-8.5 2.5q-6 -2 -16.5 3t-19 13.5t-10.5 14.5q-2 4 -2.5 10.5l-0.5 6.5
q1 6 16 12t38.5 10.5t50.5 6.5t52 0q26 -2 54 -11.5t55 -19.5q32 -12 68 -41t66 -69t40 -84q3 -12 6 -34t3.5 -42.5t-4.5 -26.5q-2 -4 -2.5 -9.5t3.5 -7.5q-1 -3 -7 -22.5t-11 -33.5q-2 -26 -12.5 -56t-23 -56.5t-22.5 -43.5q-4 0 -7.5 -1.5t0.5 -2.5q0 -5 -11 -19
q-4 -3 -12.5 -14.5t-13.5 -15.5q-1 -7 -6 -11.5t-9 -4.5h-1.5t-1.5 -4q-8 -12 -25.5 -29.5t-40 -36t-45.5 -34t-43 -23.5q-10 -7 -21 -11.5t-21 -9.5q-5 -4 -24.5 -10t-41 -11.5t-36.5 -8.5z" />
    <glyph glyph-name="Eth" unicode="&#xd0;" horiz-adv-x="578" 
d="M225 -98q-20 -3 -41 -3t-57 10q-10 4 -17.5 10.5t-14.5 17t-13 23.5q-11 24 -8.5 39t16.5 12q9 -1 17.5 -8.5t14.5 -15.5q17 -12 36 -17t47 -3q16 3 36 7t38 10t28 13q53 36 83.5 57.5l30.5 21.5q2 4 7.5 6.5t13.5 5.5l19.5 19.5t26 26.5t15.5 15q2 9 4 14.5t2 11.5
q8 8 22 33.5t28 57.5t20 58q13 68 6.5 115t-28 81t-53.5 61q-12 10 -31 20t-39 18t-35 12.5t-18 3.5t-13.5 -27.5t-26.5 -68t-33 -90.5t-34 -95h13q25 -1 34.5 -4t20.5 -11q14 -15 9 -28.5t-28 -11.5q-7 -1 -23.5 -2t-33.5 -1h-5t-6 -1q-7 -22 -14 -40.5t-7 -23.5
q-11 -17 -19 -47.5t-16 -95.5q-9 -34 -13 -53.5t-8 -18.5l-3 -5q0 -6 -10 -7t-22.5 3t-18.5 10q-3 11 -5.5 23t4.5 40q5 20 13 49.5t17.5 60.5t18.5 56.5t13 38.5q1 2 1 3.5t1 2.5h-12q-4 0 -12 1t-17 4q-15 0 -21.5 3.5t-10.5 11.5q-8 15 1.5 21t43.5 10q13 2 24 4t22 3
q1 2 1 3.5t1 2.5q8 26 16 51t15.5 45t11.5 27q5 13 14 43.5t25 68.5l7 33l-11 5q-10 -4 -17 -2.5t-10 2.5q-5 -2 -15 2.5t-18 12t-11 13.5t-3.5 12.5l-0.5 6.5q1 8 23.5 15.5t56.5 12t70 2.5q31 -1 60 -11t56 -20q33 -12 68.5 -41.5t64.5 -68t39 -80.5q5 -16 8 -39.5
t3 -43.5t-5 -26q-2 -4 -2.5 -9.5t3.5 -7.5q-1 -3 -7 -22.5t-11 -33.5q-2 -27 -12.5 -56t-22.5 -55t-22 -43q-4 0 -7.5 -1.5t0.5 -2.5q0 -5 -4 -9.5t-10 -12.5q-4 -3 -11 -13t-12 -14q-1 -7 -6 -11.5t-9 -4.5h-1.5t-1.5 -4q-8 -12 -25.5 -29.5t-40 -36t-45.5 -34t-43 -23.5
q-10 -7 -21 -11.5t-21 -9.5q-5 -4 -22.5 -10t-38.5 -11t-36 -8z" />
    <glyph glyph-name="Dcaron" unicode="&#x10e;" horiz-adv-x="578" 
d="M220 -99q-19 -3 -39 -2t-51 9q-16 5 -22.5 12t-21.5 26q-10 16 -14 31t0.5 25t17.5 9q4 0 12.5 -5.5t16.5 -13.5q16 -14 37.5 -21.5t50.5 -3.5q14 3 33.5 7t38.5 10t30 14q53 36 83 57.5l30 21.5q2 4 7.5 6.5t13.5 5.5q6 6 19.5 19t26 26t15.5 15q2 9 4 14.5t2 11.5
q8 8 21.5 33.5t27.5 57t20 57.5q13 65 7 112t-26.5 82t-52.5 62q-11 9 -30.5 19.5t-40 19t-36 13.5t-18.5 4q-4 -1 -16 -31t-29 -77t-36 -99.5t-36 -99.5q-6 -19 -13 -40t-12 -36.5t-5 -20.5q-11 -17 -19.5 -47.5t-16.5 -95.5q-9 -34 -13 -53t-8 -18l-0.5 -3.5t-3.5 -6.5
q0 -6 -9.5 -7t-22 4.5t-20.5 16.5q-3 11 -4 24.5t7 42.5q5 19 13 47.5t17.5 59t18 56t12.5 38.5q7 17 20 64q8 26 16.5 52t16.5 46.5t11 26.5q5 13 14.5 43.5t25.5 68.5l7 33l-11 5q-12 -4 -18.5 -2.5t-8.5 2.5q-6 -2 -16.5 3t-19 13.5t-10.5 14.5q-2 4 -2.5 10.5l-0.5 6.5
q1 6 16 12t38.5 10.5t50.5 6.5t52 0q26 -2 54 -11.5t55 -19.5q32 -12 68 -41t66 -69t40 -84q3 -12 6 -34t3.5 -42.5t-4.5 -26.5q-2 -4 -2.5 -9.5t3.5 -7.5q-1 -3 -7 -22.5t-11 -33.5q-2 -26 -12.5 -56t-23 -56.5t-22.5 -43.5q-4 0 -7.5 -1.5t0.5 -2.5q0 -5 -11 -19
q-4 -3 -12.5 -14.5t-13.5 -15.5q-1 -7 -6 -11.5t-9 -4.5h-1.5t-1.5 -4q-8 -12 -25.5 -29.5t-40 -36t-45.5 -34t-43 -23.5q-10 -7 -21 -11.5t-21 -9.5q-5 -4 -24.5 -10t-41 -11.5t-36.5 -8.5zM571 719q-8 -6 -17 -6.5t-17 8.5q-12 10 -30.5 28t-34.5 34t-19 21q-3 12 2.5 25
t18 15.5t28.5 -16.5q7 -10 23 -23.5t32 -27.5q12 7 27.5 17t29 20t20.5 16q22 15 33 11.5t13.5 -15.5t-1.5 -21q-1 -4 -14 -16t-30.5 -26t-34.5 -26t-29 -18z" />
    <glyph glyph-name="Dcroat" unicode="&#x110;" horiz-adv-x="578" 
d="M225 -98q-20 -3 -41 -3t-57 10q-10 4 -17.5 10.5t-14.5 17t-13 23.5q-11 24 -8.5 39t16.5 12q9 -1 17.5 -8.5t14.5 -15.5q17 -12 36 -17t47 -3q16 3 36 7t38 10t28 13q53 36 83.5 57.5l30.5 21.5q2 4 7.5 6.5t13.5 5.5l19.5 19.5t26 26.5t15.5 15q2 9 4 14.5t2 11.5
q8 8 22 33.5t28 57.5t20 58q13 68 6.5 115t-28 81t-53.5 61q-12 10 -31 20t-39 18t-35 12.5t-18 3.5t-13.5 -27.5t-26.5 -68t-33 -90.5t-34 -95h13q25 -1 34.5 -4t20.5 -11q14 -15 9 -28.5t-28 -11.5q-7 -1 -23.5 -2t-33.5 -1h-5t-6 -1q-7 -22 -14 -40.5t-7 -23.5
q-11 -17 -19 -47.5t-16 -95.5q-9 -34 -13 -53.5t-8 -18.5l-3 -5q0 -6 -10 -7t-22.5 3t-18.5 10q-3 11 -5.5 23t4.5 40q5 20 13 49.5t17.5 60.5t18.5 56.5t13 38.5q1 2 1 3.5t1 2.5h-12q-4 0 -12 1t-17 4q-15 0 -21.5 3.5t-10.5 11.5q-8 15 1.5 21t43.5 10q13 2 24 4t22 3
q1 2 1 3.5t1 2.5q8 26 16 51t15.5 45t11.5 27q5 13 14 43.5t25 68.5l7 33l-11 5q-10 -4 -17 -2.5t-10 2.5q-5 -2 -15 2.5t-18 12t-11 13.5t-3.5 12.5l-0.5 6.5q1 8 23.5 15.5t56.5 12t70 2.5q31 -1 60 -11t56 -20q33 -12 68.5 -41.5t64.5 -68t39 -80.5q5 -16 8 -39.5
t3 -43.5t-5 -26q-2 -4 -2.5 -9.5t3.5 -7.5q-1 -3 -7 -22.5t-11 -33.5q-2 -27 -12.5 -56t-22.5 -55t-22 -43q-4 0 -7.5 -1.5t0.5 -2.5q0 -5 -4 -9.5t-10 -12.5q-4 -3 -11 -13t-12 -14q-1 -7 -6 -11.5t-9 -4.5h-1.5t-1.5 -4q-8 -12 -25.5 -29.5t-40 -36t-45.5 -34t-43 -23.5
q-10 -7 -21 -11.5t-21 -9.5q-5 -4 -22.5 -10t-38.5 -11t-36 -8z" />
    <glyph glyph-name="uni1E0C" unicode="&#x1e0c;" horiz-adv-x="578" 
d="M220 -99q-19 -3 -39 -2t-51 9q-16 5 -22.5 12t-21.5 26q-10 16 -14 31t0.5 25t17.5 9q4 0 12.5 -5.5t16.5 -13.5q16 -14 37.5 -21.5t50.5 -3.5q14 3 33.5 7t38.5 10t30 14q53 36 83 57.5l30 21.5q2 4 7.5 6.5t13.5 5.5q6 6 19.5 19t26 26t15.5 15q2 9 4 14.5t2 11.5
q8 8 21.5 33.5t27.5 57t20 57.5q13 65 7 112t-26.5 82t-52.5 62q-11 9 -30.5 19.5t-40 19t-36 13.5t-18.5 4q-4 -1 -16 -31t-29 -77t-36 -99.5t-36 -99.5q-6 -19 -13 -40t-12 -36.5t-5 -20.5q-11 -17 -19.5 -47.5t-16.5 -95.5q-9 -34 -13 -53t-8 -18l-0.5 -3.5t-3.5 -6.5
q0 -6 -9.5 -7t-22 4.5t-20.5 16.5q-3 11 -4 24.5t7 42.5q5 19 13 47.5t17.5 59t18 56t12.5 38.5q7 17 20 64q8 26 16.5 52t16.5 46.5t11 26.5q5 13 14.5 43.5t25.5 68.5l7 33l-11 5q-12 -4 -18.5 -2.5t-8.5 2.5q-6 -2 -16.5 3t-19 13.5t-10.5 14.5q-2 4 -2.5 10.5l-0.5 6.5
q1 6 16 12t38.5 10.5t50.5 6.5t52 0q26 -2 54 -11.5t55 -19.5q32 -12 68 -41t66 -69t40 -84q3 -12 6 -34t3.5 -42.5t-4.5 -26.5q-2 -4 -2.5 -9.5t3.5 -7.5q-1 -3 -7 -22.5t-11 -33.5q-2 -26 -12.5 -56t-23 -56.5t-22.5 -43.5q-4 0 -7.5 -1.5t0.5 -2.5q0 -5 -11 -19
q-4 -3 -12.5 -14.5t-13.5 -15.5q-1 -7 -6 -11.5t-9 -4.5h-1.5t-1.5 -4q-8 -12 -25.5 -29.5t-40 -36t-45.5 -34t-43 -23.5q-10 -7 -21 -11.5t-21 -9.5q-5 -4 -24.5 -10t-41 -11.5t-36.5 -8.5zM230 -222q-9 9 -13 18.5t-3 14.5q3 9 9.5 24t12.5 19q5 4 9 7.5t8 4.5q12 8 23 3
t18 -20q10 -16 7.5 -27.5t-15.5 -27.5q-20 -23 -32.5 -25.5t-23.5 9.5z" />
    <glyph glyph-name="E" unicode="E" horiz-adv-x="531" 
d="M234 -29q-31 2 -57 20l-52 36q-17 17 -27 36.5t-16 51.5q-4 19 0 49t13 60t17 48q12 28 30.5 60.5t37 62t29.5 47.5q7 7 6.5 7.5l-0.5 0.5q0 5 10.5 25.5t18.5 36.5q15 16 17 26t-3 16q-2 4 7.5 15t28 25t41.5 27q24 19 46.5 20.5t26.5 -9.5q0 -3 11.5 -1.5t27 5
t27.5 5.5q5 6 23.5 9.5t43.5 6.5q13 -1 26.5 -0.5t23.5 1.5l10 1q7 2 18 -4t19 -24q7 -18 -7 -28.5t-55 -15.5q-30 -4 -50.5 -6.5t-42.5 -6t-57 -11.5q-25 -5 -41.5 -10t-28.5 -16.5t-27 -34.5q-7 -5 -18 -26l-22 -42q-28 -39 -46 -64t-14 -30l12 -3t16 -3q10 5 24.5 7
t23.5 4q62 16 95.5 24.5t50 12.5t26.5 5q14 11 27.5 2t21.5 -25q5 -14 0 -23t-26.5 -16.5t-62.5 -18t-106 -28.5q-55 -16 -92.5 -19t-35.5 17q-7 4 -15.5 -9t-16 -35t-13 -47t-7 -46.5t2.5 -32.5q8 -23 22.5 -37.5t48.5 -24.5q20 -1 39 -3t43 8q59 10 89.5 21t35.5 15
q8 4 10.5 5.5t7.5 1.5q-3 -5 2 0t16 14q14 13 33 20.5t33.5 9.5t15.5 -3q6 -10 -3.5 -29t-31.5 -40.5t-55 -40.5q-53 -28 -115 -39.5t-111 -12.5z" />
    <glyph glyph-name="Eacute" unicode="&#xc9;" horiz-adv-x="548" 
d="M233 -29q-31 2 -57 20l-52 36q-17 17 -27 36.5t-16 51.5q-4 19 0 49t13 60t17 48q12 28 30.5 60.5t37 62t29.5 47.5q7 7 6.5 7.5l-0.5 0.5q0 5 10.5 25.5t18.5 36.5q15 16 17 26t-3 16q-2 4 7.5 15t28 25t41.5 27q24 19 46.5 20.5t26.5 -9.5q0 -3 11.5 -1.5t27 5
t27.5 5.5q5 6 23.5 9.5t43.5 6.5q13 -1 26.5 -0.5t23.5 1.5l10 1q7 2 18 -4t19 -24q7 -18 -7 -28.5t-55 -15.5q-30 -4 -50.5 -6.5t-42.5 -6t-57 -11.5q-25 -5 -41.5 -10t-28.5 -16.5t-27 -34.5q-7 -5 -18 -26l-22 -42q-28 -39 -46 -64t-14 -30l12 -3t16 -3q10 5 24.5 7
t23.5 4q62 16 95.5 24.5t50 12.5t26.5 5q14 11 27.5 2t21.5 -25q5 -14 0 -23t-26.5 -16.5t-62.5 -18t-106 -28.5q-55 -16 -92.5 -19t-35.5 17q-7 4 -15.5 -9t-16 -35t-13 -47t-7 -46.5t2.5 -32.5q8 -23 22.5 -37.5t48.5 -24.5q20 -1 39 -3t43 8q59 10 89.5 21t35.5 15
q8 4 10.5 5.5t7.5 1.5q-3 -5 2 0t16 14q14 13 33 20.5t33.5 9.5t15.5 -3q6 -10 -3.5 -29t-31.5 -40.5t-55 -40.5q-53 -28 -115 -39.5t-111 -12.5zM504 714q-7 7 -10.5 20t-2.5 24q1 5 13.5 20t29.5 33t33.5 32.5t24.5 17.5q12 7 23.5 -4.5t18.5 -29.5q3 -9 -8 -21.5
t-28 -26.5t-33 -27.5t-24 -24.5q-10 -16 -17.5 -18.5t-19.5 5.5z" />
    <glyph glyph-name="Ebreve" unicode="&#x114;" horiz-adv-x="548" 
d="M233 -29q-31 2 -57 20l-52 36q-17 17 -27 36.5t-16 51.5q-4 19 0 49t13 60t17 48q12 28 30.5 60.5t37 62t29.5 47.5q7 7 6.5 7.5l-0.5 0.5q0 5 10.5 25.5t18.5 36.5q15 16 17 26t-3 16q-2 4 7.5 15t28 25t41.5 27q24 19 46.5 20.5t26.5 -9.5q0 -3 11.5 -1.5t27 5
t27.5 5.5q5 6 23.5 9.5t43.5 6.5q13 -1 26.5 -0.5t23.5 1.5l10 1q7 2 18 -4t19 -24q7 -18 -7 -28.5t-55 -15.5q-30 -4 -50.5 -6.5t-42.5 -6t-57 -11.5q-25 -5 -41.5 -10t-28.5 -16.5t-27 -34.5q-7 -5 -18 -26l-22 -42q-28 -39 -46 -64t-14 -30l12 -3t16 -3q10 5 24.5 7
t23.5 4q62 16 95.5 24.5t50 12.5t26.5 5q14 11 27.5 2t21.5 -25q5 -14 0 -23t-26.5 -16.5t-62.5 -18t-106 -28.5q-55 -16 -92.5 -19t-35.5 17q-7 4 -15.5 -9t-16 -35t-13 -47t-7 -46.5t2.5 -32.5q8 -23 22.5 -37.5t48.5 -24.5q20 -1 39 -3t43 8q59 10 89.5 21t35.5 15
q8 4 10.5 5.5t7.5 1.5q-3 -5 2 0t16 14q14 13 33 20.5t33.5 9.5t15.5 -3q6 -10 -3.5 -29t-31.5 -40.5t-55 -40.5q-53 -28 -115 -39.5t-111 -12.5zM538 701q-32 3 -55.5 16.5t-33.5 37.5t-4 57q4 21 14.5 31t21 10t17 -9t1.5 -26q-3 -11 -1.5 -27t13.5 -27t42 -10
q13 1 26.5 11.5t24.5 25.5t17 25q13 22 23.5 27.5t18 -0.5t10.5 -17t1 -20q-4 -13 -15 -31.5t-29 -36t-41.5 -28.5t-50.5 -9z" />
    <glyph glyph-name="Ecaron" unicode="&#x11a;" horiz-adv-x="548" 
d="M233 -29q-31 2 -57 20l-52 36q-17 17 -27 36.5t-16 51.5q-4 19 0 49t13 60t17 48q12 28 30.5 60.5t37 62t29.5 47.5q7 7 6.5 7.5l-0.5 0.5q0 5 10.5 25.5t18.5 36.5q15 16 17 26t-3 16q-2 4 7.5 15t28 25t41.5 27q24 19 46.5 20.5t26.5 -9.5q0 -3 11.5 -1.5t27 5
t27.5 5.5q5 6 23.5 9.5t43.5 6.5q13 -1 26.5 -0.5t23.5 1.5l10 1q7 2 18 -4t19 -24q7 -18 -7 -28.5t-55 -15.5q-30 -4 -50.5 -6.5t-42.5 -6t-57 -11.5q-25 -5 -41.5 -10t-28.5 -16.5t-27 -34.5q-7 -5 -18 -26l-22 -42q-28 -39 -46 -64t-14 -30l12 -3t16 -3q10 5 24.5 7
t23.5 4q62 16 95.5 24.5t50 12.5t26.5 5q14 11 27.5 2t21.5 -25q5 -14 0 -23t-26.5 -16.5t-62.5 -18t-106 -28.5q-55 -16 -92.5 -19t-35.5 17q-7 4 -15.5 -9t-16 -35t-13 -47t-7 -46.5t2.5 -32.5q8 -23 22.5 -37.5t48.5 -24.5q20 -1 39 -3t43 8q59 10 89.5 21t35.5 15
q8 4 10.5 5.5t7.5 1.5q-3 -5 2 0t16 14q14 13 33 20.5t33.5 9.5t15.5 -3q6 -10 -3.5 -29t-31.5 -40.5t-55 -40.5q-53 -28 -115 -39.5t-111 -12.5zM557 719q-8 -6 -17 -6.5t-17 8.5q-12 10 -30.5 28t-34.5 34t-19 21q-3 12 2.5 25t18 15.5t28.5 -16.5q7 -10 23 -23.5
t32 -27.5q12 7 27.5 17t29 20t20.5 16q22 15 33 11.5t13.5 -15.5t-1.5 -21q-1 -4 -14 -16t-30.5 -26t-34.5 -26t-29 -18z" />
    <glyph glyph-name="Ecircumflex" unicode="&#xca;" horiz-adv-x="548" 
d="M233 -29q-31 2 -57 20l-52 36q-17 17 -27 36.5t-16 51.5q-4 19 0 49t13 60t17 48q12 28 30.5 60.5t37 62t29.5 47.5q7 7 6.5 7.5l-0.5 0.5q0 5 10.5 25.5t18.5 36.5q15 16 17 26t-3 16q-2 4 7.5 15t28 25t41.5 27q24 19 46.5 20.5t26.5 -9.5q0 -3 11.5 -1.5t27 5
t27.5 5.5q5 6 23.5 9.5t43.5 6.5q13 -1 26.5 -0.5t23.5 1.5l10 1q7 2 18 -4t19 -24q7 -18 -7 -28.5t-55 -15.5q-30 -4 -50.5 -6.5t-42.5 -6t-57 -11.5q-25 -5 -41.5 -10t-28.5 -16.5t-27 -34.5q-7 -5 -18 -26l-22 -42q-28 -39 -46 -64t-14 -30l12 -3t16 -3q10 5 24.5 7
t23.5 4q62 16 95.5 24.5t50 12.5t26.5 5q14 11 27.5 2t21.5 -25q5 -14 0 -23t-26.5 -16.5t-62.5 -18t-106 -28.5q-55 -16 -92.5 -19t-35.5 17q-7 4 -15.5 -9t-16 -35t-13 -47t-7 -46.5t2.5 -32.5q8 -23 22.5 -37.5t48.5 -24.5q20 -1 39 -3t43 8q59 10 89.5 21t35.5 15
q8 4 10.5 5.5t7.5 1.5q-3 -5 2 0t16 14q14 13 33 20.5t33.5 9.5t15.5 -3q6 -10 -3.5 -29t-31.5 -40.5t-55 -40.5q-53 -28 -115 -39.5t-111 -12.5zM492 729q-17 -17 -29.5 -13.5t-16 17.5t6.5 28q3 4 14.5 14.5t27 24t31 25t25.5 17.5q10 9 20 8t16 -10q12 -10 29.5 -27.5
t32.5 -33t19 -20.5q6 -9 4.5 -20.5t-9 -19t-18.5 -5t-25 18.5q-7 8 -22.5 23.5t-30.5 28.5q-12 -7 -27 -18t-28 -21.5t-20 -16.5z" />
    <glyph glyph-name="uni0204" unicode="&#x204;" horiz-adv-x="548" 
d="M233 -29q-31 2 -57 20l-52 36q-17 17 -27 36.5t-16 51.5q-4 19 0 49t13 60t17 48q12 28 30.5 60.5t37 62t29.5 47.5q7 7 6.5 7.5l-0.5 0.5q0 5 10.5 25.5t18.5 36.5q15 16 17 26t-3 16q-2 4 7.5 15t28 25t41.5 27q24 19 46.5 20.5t26.5 -9.5q0 -3 11.5 -1.5t27 5
t27.5 5.5q5 6 23.5 9.5t43.5 6.5q13 -1 26.5 -0.5t23.5 1.5l10 1q7 2 18 -4t19 -24q7 -18 -7 -28.5t-55 -15.5q-30 -4 -50.5 -6.5t-42.5 -6t-57 -11.5q-25 -5 -41.5 -10t-28.5 -16.5t-27 -34.5q-7 -5 -18 -26l-22 -42q-28 -39 -46 -64t-14 -30l12 -3t16 -3q10 5 24.5 7
t23.5 4q62 16 95.5 24.5t50 12.5t26.5 5q14 11 27.5 2t21.5 -25q5 -14 0 -23t-26.5 -16.5t-62.5 -18t-106 -28.5q-55 -16 -92.5 -19t-35.5 17q-7 4 -15.5 -9t-16 -35t-13 -47t-7 -46.5t2.5 -32.5q8 -23 22.5 -37.5t48.5 -24.5q20 -1 39 -3t43 8q59 10 89.5 21t35.5 15
q8 4 10.5 5.5t7.5 1.5q-3 -5 2 0t16 14q14 13 33 20.5t33.5 9.5t15.5 -3q6 -10 -3.5 -29t-31.5 -40.5t-55 -40.5q-53 -28 -115 -39.5t-111 -12.5zM452 714q-10 -5 -15 -0.5t-11 23.5q-5 12 -16.5 27.5t-22.5 32t-16.5 29.5t-0.5 20q11 14 23 20.5t20 0.5q8 -5 19 -22
t21.5 -37.5t18 -36.5t7.5 -19q1 -4 -4 -11.5t-11 -15t-12 -11.5zM572 715q-11 -5 -15.5 -1.5t-10.5 22.5q-7 13 -18 29l-22 32t-16.5 29t-0.5 19q14 17 25 22t18 0q7 -4 17.5 -20t21.5 -36t18.5 -36.5t8.5 -23.5q1 -3 -6.5 -15.5t-19.5 -20.5z" />
    <glyph glyph-name="Edieresis" unicode="&#xcb;" horiz-adv-x="548" 
d="M233 -29q-31 2 -57 20l-52 36q-17 17 -27 36.5t-16 51.5q-4 19 0 49t13 60t17 48q12 28 30.5 60.5t37 62t29.5 47.5q7 7 6.5 7.5l-0.5 0.5q0 5 10.5 25.5t18.5 36.5q15 16 17 26t-3 16q-2 4 7.5 15t28 25t41.5 27q24 19 46.5 20.5t26.5 -9.5q0 -3 11.5 -1.5t27 5
t27.5 5.5q5 6 23.5 9.5t43.5 6.5q13 -1 26.5 -0.5t23.5 1.5l10 1q7 2 18 -4t19 -24q7 -18 -7 -28.5t-55 -15.5q-30 -4 -50.5 -6.5t-42.5 -6t-57 -11.5q-25 -5 -41.5 -10t-28.5 -16.5t-27 -34.5q-7 -5 -18 -26l-22 -42q-28 -39 -46 -64t-14 -30l12 -3t16 -3q10 5 24.5 7
t23.5 4q62 16 95.5 24.5t50 12.5t26.5 5q14 11 27.5 2t21.5 -25q5 -14 0 -23t-26.5 -16.5t-62.5 -18t-106 -28.5q-55 -16 -92.5 -19t-35.5 17q-7 4 -15.5 -9t-16 -35t-13 -47t-7 -46.5t2.5 -32.5q8 -23 22.5 -37.5t48.5 -24.5q20 -1 39 -3t43 8q59 10 89.5 21t35.5 15
q8 4 10.5 5.5t7.5 1.5q-3 -5 2 0t16 14q14 13 33 20.5t33.5 9.5t15.5 -3q6 -10 -3.5 -29t-31.5 -40.5t-55 -40.5q-53 -28 -115 -39.5t-111 -12.5zM596 749q-7 7 -11.5 19t-3.5 16q2 5 7.5 20t11.5 20q4 4 10 11t10 8q12 10 24.5 4t18.5 -22q12 -17 7.5 -31.5t-19.5 -32.5
q-17 -24 -30.5 -24.5t-24.5 12.5zM462 745q-9 8 -14.5 21t-4.5 18q2 8 9.5 24t14.5 22q3 2 7.5 7t8.5 6q10 7 19 4.5t16 -10t10 -18.5q8 -14 4.5 -26.5t-17.5 -29.5q-16 -21 -29 -25t-24 7z" />
    <glyph glyph-name="Edotaccent" unicode="&#x116;" horiz-adv-x="548" 
d="M233 -29q-31 2 -57 20l-52 36q-17 17 -27 36.5t-16 51.5q-4 19 0 49t13 60t17 48q12 28 30.5 60.5t37 62t29.5 47.5q7 7 6.5 7.5l-0.5 0.5q0 5 10.5 25.5t18.5 36.5q15 16 17 26t-3 16q-2 4 7.5 15t28 25t41.5 27q24 19 46.5 20.5t26.5 -9.5q0 -3 11.5 -1.5t27 5
t27.5 5.5q5 6 23.5 9.5t43.5 6.5q13 -1 26.5 -0.5t23.5 1.5l10 1q7 2 18 -4t19 -24q7 -18 -7 -28.5t-55 -15.5q-30 -4 -50.5 -6.5t-42.5 -6t-57 -11.5q-25 -5 -41.5 -10t-28.5 -16.5t-27 -34.5q-7 -5 -18 -26l-22 -42q-28 -39 -46 -64t-14 -30l12 -3t16 -3q10 5 24.5 7
t23.5 4q62 16 95.5 24.5t50 12.5t26.5 5q14 11 27.5 2t21.5 -25q5 -14 0 -23t-26.5 -16.5t-62.5 -18t-106 -28.5q-55 -16 -92.5 -19t-35.5 17q-7 4 -15.5 -9t-16 -35t-13 -47t-7 -46.5t2.5 -32.5q8 -23 22.5 -37.5t48.5 -24.5q20 -1 39 -3t43 8q59 10 89.5 21t35.5 15
q8 4 10.5 5.5t7.5 1.5q-3 -5 2 0t16 14q14 13 33 20.5t33.5 9.5t15.5 -3q6 -10 -3.5 -29t-31.5 -40.5t-55 -40.5q-53 -28 -115 -39.5t-111 -12.5zM522 737q-7 7 -12 21t-4 21q2 5 8.5 22.5t20.5 29.5q3 2 6.5 6.5t7.5 5.5q12 8 24 4t25 -21q11 -23 6.5 -37t-23.5 -37
q-15 -20 -28.5 -24t-30.5 9z" />
    <glyph glyph-name="uni1EB8" unicode="&#x1eb8;" horiz-adv-x="548" 
d="M233 -29q-31 2 -57 20l-52 36q-17 17 -27 36.5t-16 51.5q-4 19 0 49t13 60t17 48q12 28 30.5 60.5t37 62t29.5 47.5q7 7 6.5 7.5l-0.5 0.5q0 5 10.5 25.5t18.5 36.5q15 16 17 26t-3 16q-2 4 7.5 15t28 25t41.5 27q24 19 46.5 20.5t26.5 -9.5q0 -3 11.5 -1.5t27 5
t27.5 5.5q5 6 23.5 9.5t43.5 6.5q13 -1 26.5 -0.5t23.5 1.5l10 1q7 2 18 -4t19 -24q7 -18 -7 -28.5t-55 -15.5q-30 -4 -50.5 -6.5t-42.5 -6t-57 -11.5q-25 -5 -41.5 -10t-28.5 -16.5t-27 -34.5q-7 -5 -18 -26l-22 -42q-28 -39 -46 -64t-14 -30l12 -3t16 -3q10 5 24.5 7
t23.5 4q62 16 95.5 24.5t50 12.5t26.5 5q14 11 27.5 2t21.5 -25q5 -14 0 -23t-26.5 -16.5t-62.5 -18t-106 -28.5q-55 -16 -92.5 -19t-35.5 17q-7 4 -15.5 -9t-16 -35t-13 -47t-7 -46.5t2.5 -32.5q8 -23 22.5 -37.5t48.5 -24.5q20 -1 39 -3t43 8q59 10 89.5 21t35.5 15
q8 4 10.5 5.5t7.5 1.5q-3 -5 2 0t16 14q14 13 33 20.5t33.5 9.5t15.5 -3q6 -10 -3.5 -29t-31.5 -40.5t-55 -40.5q-53 -28 -115 -39.5t-111 -12.5zM222 -160q-9 9 -13 18.5t-3 14.5q3 9 9.5 24t12.5 19q5 4 9 7.5t8 4.5q12 8 23 3t18 -20q10 -16 7.5 -27.5t-15.5 -27.5
q-20 -23 -32.5 -25.5t-23.5 9.5z" />
    <glyph glyph-name="Egrave" unicode="&#xc8;" horiz-adv-x="548" 
d="M233 -29q-31 2 -57 20l-52 36q-17 17 -27 36.5t-16 51.5q-4 19 0 49t13 60t17 48q12 28 30.5 60.5t37 62t29.5 47.5q7 7 6.5 7.5l-0.5 0.5q0 5 10.5 25.5t18.5 36.5q15 16 17 26t-3 16q-2 4 7.5 15t28 25t41.5 27q24 19 46.5 20.5t26.5 -9.5q0 -3 11.5 -1.5t27 5
t27.5 5.5q5 6 23.5 9.5t43.5 6.5q13 -1 26.5 -0.5t23.5 1.5l10 1q7 2 18 -4t19 -24q7 -18 -7 -28.5t-55 -15.5q-30 -4 -50.5 -6.5t-42.5 -6t-57 -11.5q-25 -5 -41.5 -10t-28.5 -16.5t-27 -34.5q-7 -5 -18 -26l-22 -42q-28 -39 -46 -64t-14 -30l12 -3t16 -3q10 5 24.5 7
t23.5 4q62 16 95.5 24.5t50 12.5t26.5 5q14 11 27.5 2t21.5 -25q5 -14 0 -23t-26.5 -16.5t-62.5 -18t-106 -28.5q-55 -16 -92.5 -19t-35.5 17q-7 4 -15.5 -9t-16 -35t-13 -47t-7 -46.5t2.5 -32.5q8 -23 22.5 -37.5t48.5 -24.5q20 -1 39 -3t43 8q59 10 89.5 21t35.5 15
q8 4 10.5 5.5t7.5 1.5q-3 -5 2 0t16 14q14 13 33 20.5t33.5 9.5t15.5 -3q6 -10 -3.5 -29t-31.5 -40.5t-55 -40.5q-53 -28 -115 -39.5t-111 -12.5zM571 709q-9 -6 -13 -3.5t-7 11t-8 19.5q-8 17 -23.5 39.5t-24 43.5t0.5 33q16 15 26 19t20 -7q7 -4 16.5 -21t19 -38.5
t16 -39.5t6.5 -24q1 -4 -8.5 -16.5t-20.5 -15.5z" />
    <glyph glyph-name="uni0206" unicode="&#x206;" horiz-adv-x="548" 
d="M233 -29q-31 2 -57 20l-52 36q-17 17 -27 36.5t-16 51.5q-4 19 0 49t13 60t17 48q12 28 30.5 60.5t37 62t29.5 47.5q7 7 6.5 7.5l-0.5 0.5q0 5 10.5 25.5t18.5 36.5q15 16 17 26t-3 16q-2 4 7.5 15t28 25t41.5 27q24 19 46.5 20.5t26.5 -9.5q0 -3 11.5 -1.5t27 5
t27.5 5.5q5 6 23.5 9.5t43.5 6.5q13 -1 26.5 -0.5t23.5 1.5l10 1q7 2 18 -4t19 -24q7 -18 -7 -28.5t-55 -15.5q-30 -4 -50.5 -6.5t-42.5 -6t-57 -11.5q-25 -5 -41.5 -10t-28.5 -16.5t-27 -34.5q-7 -5 -18 -26l-22 -42q-28 -39 -46 -64t-14 -30l12 -3t16 -3q10 5 24.5 7
t23.5 4q62 16 95.5 24.5t50 12.5t26.5 5q14 11 27.5 2t21.5 -25q5 -14 0 -23t-26.5 -16.5t-62.5 -18t-106 -28.5q-55 -16 -92.5 -19t-35.5 17q-7 4 -15.5 -9t-16 -35t-13 -47t-7 -46.5t2.5 -32.5q8 -23 22.5 -37.5t48.5 -24.5q20 -1 39 -3t43 8q59 10 89.5 21t35.5 15
q8 4 10.5 5.5t7.5 1.5q-3 -5 2 0t16 14q14 13 33 20.5t33.5 9.5t15.5 -3q6 -10 -3.5 -29t-31.5 -40.5t-55 -40.5q-53 -28 -115 -39.5t-111 -12.5zM588 733q3 12 2.5 28t-11.5 27.5t-40 10.5q-13 1 -27.5 -10t-27.5 -26.5t-22 -31.5q-14 -24 -26 -24.5t-18 12.5t-5 28
q5 12 17 30.5t30.5 36.5t41.5 29t48 9q36 -3 59 -19t32 -40t3 -53q-6 -28 -21.5 -36.5t-27 -0.5t-7.5 30z" />
    <glyph glyph-name="Emacron" unicode="&#x112;" horiz-adv-x="548" 
d="M233 -29q-31 2 -57 20l-52 36q-17 17 -27 36.5t-16 51.5q-4 19 0 49t13 60t17 48q12 28 30.5 60.5t37 62t29.5 47.5q7 7 6.5 7.5l-0.5 0.5q0 5 10.5 25.5t18.5 36.5q15 16 17 26t-3 16q-2 4 7.5 15t28 25t41.5 27q24 19 46.5 20.5t26.5 -9.5q0 -3 11.5 -1.5t27 5
t27.5 5.5q5 6 23.5 9.5t43.5 6.5q13 -1 26.5 -0.5t23.5 1.5l10 1q7 2 18 -4t19 -24q7 -18 -7 -28.5t-55 -15.5q-30 -4 -50.5 -6.5t-42.5 -6t-57 -11.5q-25 -5 -41.5 -10t-28.5 -16.5t-27 -34.5q-7 -5 -18 -26l-22 -42q-28 -39 -46 -64t-14 -30l12 -3t16 -3q10 5 24.5 7
t23.5 4q62 16 95.5 24.5t50 12.5t26.5 5q14 11 27.5 2t21.5 -25q5 -14 0 -23t-26.5 -16.5t-62.5 -18t-106 -28.5q-55 -16 -92.5 -19t-35.5 17q-7 4 -15.5 -9t-16 -35t-13 -47t-7 -46.5t2.5 -32.5q8 -23 22.5 -37.5t48.5 -24.5q20 -1 39 -3t43 8q59 10 89.5 21t35.5 15
q8 4 10.5 5.5t7.5 1.5q-3 -5 2 0t16 14q14 13 33 20.5t33.5 9.5t15.5 -3q6 -10 -3.5 -29t-31.5 -40.5t-55 -40.5q-53 -28 -115 -39.5t-111 -12.5zM479 761q-7 0 -16.5 1t-18.5 4q-15 0 -20.5 3t-10.5 12q-9 15 0.5 21t43.5 10q33 5 66.5 8.5t69.5 3.5q25 0 44 -3t30 -12
q13 -14 9.5 -27.5t-24.5 -12.5q-6 0 -20.5 -1t-31 -1.5t-28.5 -0.5q-7 -1 -22 -2t-34 -2t-37 -1z" />
    <glyph glyph-name="Eogonek" unicode="&#x118;" horiz-adv-x="548" 
d="M233 -29q-31 2 -57 20l-52 36q-17 17 -27 36.5t-16 51.5q-4 19 0 49t13 60t17 48q12 28 30.5 60.5t37 62t29.5 47.5q7 7 6.5 7.5l-0.5 0.5q0 5 10.5 25.5t18.5 36.5q15 16 17 26t-3 16q-2 4 7.5 15t28 25t41.5 27q24 19 46.5 20.5t26.5 -9.5q0 -3 11.5 -1.5t27 5
t27.5 5.5q5 6 23.5 9.5t43.5 6.5q13 -1 26.5 -0.5t23.5 1.5l10 1q7 2 18 -4t19 -24q7 -18 -7 -28.5t-55 -15.5q-30 -4 -50.5 -6.5t-42.5 -6t-57 -11.5q-25 -5 -41.5 -10t-28.5 -16.5t-27 -34.5q-7 -5 -18 -26l-22 -42q-28 -39 -46 -64t-14 -30l12 -3t16 -3q10 5 24.5 7
t23.5 4q62 16 95.5 24.5t50 12.5t26.5 5q14 11 27.5 2t21.5 -25q5 -14 0 -23t-26.5 -16.5t-62.5 -18t-106 -28.5q-55 -16 -92.5 -19t-35.5 17q-7 4 -15.5 -9t-16 -35t-13 -47t-7 -46.5t2.5 -32.5q8 -23 22.5 -37.5t48.5 -24.5q20 -1 39 -3t43 8q59 10 89.5 21t35.5 15
q8 4 10.5 5.5t7.5 1.5q-3 -5 2 0t16 14q14 13 33 20.5t33.5 9.5t15.5 -3q6 -10 -3.5 -29t-31.5 -40.5t-55 -40.5q-53 -28 -115 -39.5t-111 -12.5zM368 -168q-20 6 -36 21.5t-21.5 37.5t6.5 44q12 23 34.5 46.5t48.5 44.5t48 35l38 -30q-22 -13 -52.5 -38.5t-48.5 -47.5
q-14 -17 -19.5 -30.5t1.5 -24.5q3 -6 18 -6q23 4 39 14t41 22q13 7 20 3t8.5 -14t-3 -20t-16.5 -15q-4 -1 -17 -7.5t-29.5 -13.5t-32.5 -13t-27 -8z" />
    <glyph glyph-name="uni1EBC" unicode="&#x1ebc;" horiz-adv-x="548" 
d="M233 -29q-31 2 -57 20l-52 36q-17 17 -27 36.5t-16 51.5q-4 19 0 49t13 60t17 48q12 28 30.5 60.5t37 62t29.5 47.5q7 7 6.5 7.5l-0.5 0.5q0 5 10.5 25.5t18.5 36.5q15 16 17 26t-3 16q-2 4 7.5 15t28 25t41.5 27q24 19 46.5 20.5t26.5 -9.5q0 -3 11.5 -1.5t27 5
t27.5 5.5q5 6 23.5 9.5t43.5 6.5q13 -1 26.5 -0.5t23.5 1.5l10 1q7 2 18 -4t19 -24q7 -18 -7 -28.5t-55 -15.5q-30 -4 -50.5 -6.5t-42.5 -6t-57 -11.5q-25 -5 -41.5 -10t-28.5 -16.5t-27 -34.5q-7 -5 -18 -26l-22 -42q-28 -39 -46 -64t-14 -30l12 -3t16 -3q10 5 24.5 7
t23.5 4q62 16 95.5 24.5t50 12.5t26.5 5q14 11 27.5 2t21.5 -25q5 -14 0 -23t-26.5 -16.5t-62.5 -18t-106 -28.5q-55 -16 -92.5 -19t-35.5 17q-7 4 -15.5 -9t-16 -35t-13 -47t-7 -46.5t2.5 -32.5q8 -23 22.5 -37.5t48.5 -24.5q20 -1 39 -3t43 8q59 10 89.5 21t35.5 15
q8 4 10.5 5.5t7.5 1.5q-3 -5 2 0t16 14q14 13 33 20.5t33.5 9.5t15.5 -3q6 -10 -3.5 -29t-31.5 -40.5t-55 -40.5q-53 -28 -115 -39.5t-111 -12.5zM593 728q-18 0 -31.5 7.5t-32.5 21.5q-9 5 -23.5 19.5t-26.5 14.5q-10 0 -16.5 -8t-12.5 -16.5t-17 -10.5q-1 -5 -5.5 -12.5
t-8.5 -2.5q-10 3 -16 10.5t-7 16.5q4 14 19 36t46 38q18 6 38.5 0t36.5 -22q23 -20 35.5 -27.5t31.5 0.5q15 4 31.5 15t37.5 19q7 3 13.5 -2t10 -13t2.5 -14t-8 -16.5t-16 -15.5q-30 -17 -46.5 -25t-23.5 -10.5t-11 -2.5z" />
    <glyph glyph-name="F" unicode="F" horiz-adv-x="458" 
d="M514 311q-4 -6 -23.5 -10.5t-63.5 -9.5q-13 -1 -38 -2t-54 -2t-52.5 -0.5t-32.5 2.5l-4.5 -5t-4.5 -13q-7 -12 -17 -36.5t-22.5 -54t-22.5 -58.5t-17 -50.5t-7 -29.5q-9 -24 -11 -41t-7 -20q-2 -8 -15 -6.5t-21 10.5q-15 10 -19 20.5t3 32.5q3 13 10.5 38.5t17 56.5
t20 60.5t20.5 48.5q11 19 14 34.5t8 28.5q-1 11 0 15t8 12q5 4 12.5 14.5t17.5 32.5q3 10 9.5 27.5t12.5 36t11 31.5t5 14q2 4 6 15.5t6 18.5q4 14 6.5 23t-1.5 9q-8 -2 -32 -3q-12 -2 -17.5 -2.5t-9.5 -1.5q-10 -1 -18 2t-8 12q2 16 11.5 29t24.5 14q7 2 15.5 3.5t23.5 5.5
q19 4 31 5t18 -1q5 3 9 6.5t4 7.5q2 9 9 14t16 5.5t16.5 -3.5t7.5 -14q2 -3 7 -5t22 0.5t51 9.5q18 2 45.5 4t43.5 -3q17 3 30.5 2.5t18.5 3.5q21 -4 30.5 -5.5t15.5 -6.5q4 -4 2.5 -7.5l-1.5 -3.5q-4 2 0.5 0t7.5 -5q7 -3 8.5 -9t1 -12t-1.5 -9q-1 -9 -10 -10.5t-45 -0.5
q-43 6 -83 4.5t-95 -9.5q-20 -1 -35.5 -5.5t-17.5 -4.5q-4 0 -14 -13.5t-19 -39.5q-4 -7 -13.5 -31t-20.5 -52t-19.5 -49t-10.5 -23q14 -4 45 -4t68.5 2.5t69.5 5.5q15 3 31.5 5.5t21.5 0.5q7 -2 12 -12.5t5 -22t-6 -17.5z" />
    <glyph glyph-name="G" unicode="G" horiz-adv-x="489" 
d="M167 -36q-27 18 -42 51.5t-14 65.5q-1 62 10.5 126.5t30.5 123.5q13 36 28.5 74t31.5 71.5t29 54.5q31 52 65 85t51 43q18 10 54 18t73 -1q26 -7 49.5 -18t34.5 -22q9 -11 15.5 -20.5t6.5 -21.5q1 -10 -8 -22.5t-21 -17.5t-21 5q-13 20 -26.5 28.5t-28.5 15.5
q-11 7 -30 7.5t-39 -5t-37 -18.5q-9 -8 -23.5 -23.5t-29 -34.5t-24.5 -39q-28 -46 -48.5 -93.5t-35.5 -103.5q-5 -17 -12 -46.5t-13.5 -58.5t-8.5 -48q-5 -45 -2 -76t24 -42.5t66 2.5q24 4 50.5 20t51.5 40.5t44 54.5q17 33 30 63t14 48.5t-19 17.5q-38 3 -61.5 3t-38.5 11
q-9 8 -8.5 22t14.5 25q13 6 40 8t57.5 -1.5t52.5 -14.5q19 -9 26.5 -26.5t7.5 -39t-4 -42.5q-6 -26 -22.5 -57.5t-40.5 -65.5q-15 -21 -41 -45.5t-54 -44t-49 -27.5q-40 -18 -82.5 -24.5t-72.5 15.5z" />
    <glyph glyph-name="uni01F4" unicode="&#x1f4;" horiz-adv-x="498" 
d="M166 -36q-27 18 -42 51.5t-14 65.5q-1 62 10.5 126.5t30.5 123.5q13 36 28.5 74t31.5 71.5t29 54.5q31 52 65 85t51 43q18 10 54 18t73 -1q26 -7 49.5 -18t34.5 -22q9 -11 15.5 -20.5t6.5 -21.5q1 -10 -8 -22.5t-21 -17.5t-21 5q-13 20 -26.5 28.5t-28.5 15.5
q-11 7 -30 7.5t-39 -5t-37 -18.5q-9 -8 -23.5 -23.5t-29 -34.5t-24.5 -39q-28 -46 -48.5 -93.5t-35.5 -103.5q-5 -17 -12 -46.5t-13.5 -58.5t-8.5 -48q-5 -45 -2 -76t24 -42.5t66 2.5q24 4 50.5 20t51.5 40.5t44 54.5q17 33 30 63t14 48.5t-19 17.5q-38 3 -61.5 3t-38.5 11
q-9 8 -8.5 22t14.5 25q13 6 40 8t57.5 -1.5t52.5 -14.5q19 -9 26.5 -26.5t7.5 -39t-4 -42.5q-6 -26 -22.5 -57.5t-40.5 -65.5q-15 -21 -41 -45.5t-54 -44t-49 -27.5q-40 -18 -82.5 -24.5t-72.5 15.5zM478 714q-7 7 -10.5 20t-2.5 24q1 5 13.5 20t29.5 33t33.5 32.5
t24.5 17.5q12 7 23.5 -4.5t18.5 -29.5q3 -9 -8 -21.5t-28 -26.5t-33 -27.5t-24 -24.5q-10 -16 -17.5 -18.5t-19.5 5.5z" />
    <glyph glyph-name="Gbreve" unicode="&#x11e;" horiz-adv-x="498" 
d="M166 -36q-27 18 -42 51.5t-14 65.5q-1 62 10.5 126.5t30.5 123.5q13 36 28.5 74t31.5 71.5t29 54.5q31 52 65 85t51 43q18 10 54 18t73 -1q26 -7 49.5 -18t34.5 -22q9 -11 15.5 -20.5t6.5 -21.5q1 -10 -8 -22.5t-21 -17.5t-21 5q-13 20 -26.5 28.5t-28.5 15.5
q-11 7 -30 7.5t-39 -5t-37 -18.5q-9 -8 -23.5 -23.5t-29 -34.5t-24.5 -39q-28 -46 -48.5 -93.5t-35.5 -103.5q-5 -17 -12 -46.5t-13.5 -58.5t-8.5 -48q-5 -45 -2 -76t24 -42.5t66 2.5q24 4 50.5 20t51.5 40.5t44 54.5q17 33 30 63t14 48.5t-19 17.5q-38 3 -61.5 3t-38.5 11
q-9 8 -8.5 22t14.5 25q13 6 40 8t57.5 -1.5t52.5 -14.5q19 -9 26.5 -26.5t7.5 -39t-4 -42.5q-6 -26 -22.5 -57.5t-40.5 -65.5q-15 -21 -41 -45.5t-54 -44t-49 -27.5q-40 -18 -82.5 -24.5t-72.5 15.5zM512 701q-32 3 -55.5 16.5t-33.5 37.5t-4 57q4 21 14.5 31t21 10t17 -9
t1.5 -26q-3 -11 -1.5 -27t13.5 -27t42 -10q13 1 26.5 11.5t24.5 25.5t17 25q13 22 23.5 27.5t18 -0.5t10.5 -17t1 -20q-4 -13 -15 -31.5t-29 -36t-41.5 -28.5t-50.5 -9z" />
    <glyph glyph-name="Gcircumflex" unicode="&#x11c;" horiz-adv-x="498" 
d="M166 -36q-27 18 -42 51.5t-14 65.5q-1 62 10.5 126.5t30.5 123.5q13 36 28.5 74t31.5 71.5t29 54.5q31 52 65 85t51 43q18 10 54 18t73 -1q26 -7 49.5 -18t34.5 -22q9 -11 15.5 -20.5t6.5 -21.5q1 -10 -8 -22.5t-21 -17.5t-21 5q-13 20 -26.5 28.5t-28.5 15.5
q-11 7 -30 7.5t-39 -5t-37 -18.5q-9 -8 -23.5 -23.5t-29 -34.5t-24.5 -39q-28 -46 -48.5 -93.5t-35.5 -103.5q-5 -17 -12 -46.5t-13.5 -58.5t-8.5 -48q-5 -45 -2 -76t24 -42.5t66 2.5q24 4 50.5 20t51.5 40.5t44 54.5q17 33 30 63t14 48.5t-19 17.5q-38 3 -61.5 3t-38.5 11
q-9 8 -8.5 22t14.5 25q13 6 40 8t57.5 -1.5t52.5 -14.5q19 -9 26.5 -26.5t7.5 -39t-4 -42.5q-6 -26 -22.5 -57.5t-40.5 -65.5q-15 -21 -41 -45.5t-54 -44t-49 -27.5q-40 -18 -82.5 -24.5t-72.5 15.5zM399 729q-17 -17 -29.5 -13.5t-16 17.5t6.5 28q3 4 14.5 14.5t27 24
t31 25t25.5 17.5q10 9 20 8t16 -10q12 -10 29.5 -27.5t32.5 -33t19 -20.5q6 -9 4.5 -20.5t-9 -19t-18.5 -5t-25 18.5q-7 8 -22.5 23.5t-30.5 28.5q-12 -7 -27 -18t-28 -21.5t-20 -16.5z" />
    <glyph glyph-name="uni0122" unicode="&#x122;" horiz-adv-x="498" 
d="M166 -36q-27 18 -42 51.5t-14 65.5q-1 62 10.5 126.5t30.5 123.5q13 36 28.5 74t31.5 71.5t29 54.5q31 52 65 85t51 43q18 10 54 18t73 -1q26 -7 49.5 -18t34.5 -22q9 -11 15.5 -20.5t6.5 -21.5q1 -10 -8 -22.5t-21 -17.5t-21 5q-13 20 -26.5 28.5t-28.5 15.5
q-11 7 -30 7.5t-39 -5t-37 -18.5q-9 -8 -23.5 -23.5t-29 -34.5t-24.5 -39q-28 -46 -48.5 -93.5t-35.5 -103.5q-5 -17 -12 -46.5t-13.5 -58.5t-8.5 -48q-5 -45 -2 -76t24 -42.5t66 2.5q24 4 50.5 20t51.5 40.5t44 54.5q17 33 30 63t14 48.5t-19 17.5q-38 3 -61.5 3t-38.5 11
q-9 8 -8.5 22t14.5 25q13 6 40 8t57.5 -1.5t52.5 -14.5q19 -9 26.5 -26.5t7.5 -39t-4 -42.5q-6 -26 -22.5 -57.5t-40.5 -65.5q-15 -21 -41 -45.5t-54 -44t-49 -27.5q-40 -18 -82.5 -24.5t-72.5 15.5zM155 -237q-10 0 -14.5 2t-7.5 7q0 7 14 19q18 17 33.5 39.5t17.5 41.5
q-1 24 11.5 35t33.5 -1q5 -14 6.5 -27t-6.5 -40q-1 -5 -7.5 -15.5t-14 -20.5t-11.5 -13q-2 -2 -7.5 -6.5t-10.5 -8.5t-8 -6q-3 -1 -5.5 -2.5t-7.5 -2.5t-16 -1z" />
    <glyph glyph-name="Gdotaccent" unicode="&#x120;" horiz-adv-x="498" 
d="M166 -36q-27 18 -42 51.5t-14 65.5q-1 62 10.5 126.5t30.5 123.5q13 36 28.5 74t31.5 71.5t29 54.5q31 52 65 85t51 43q18 10 54 18t73 -1q26 -7 49.5 -18t34.5 -22q9 -11 15.5 -20.5t6.5 -21.5q1 -10 -8 -22.5t-21 -17.5t-21 5q-13 20 -26.5 28.5t-28.5 15.5
q-11 7 -30 7.5t-39 -5t-37 -18.5q-9 -8 -23.5 -23.5t-29 -34.5t-24.5 -39q-28 -46 -48.5 -93.5t-35.5 -103.5q-5 -17 -12 -46.5t-13.5 -58.5t-8.5 -48q-5 -45 -2 -76t24 -42.5t66 2.5q24 4 50.5 20t51.5 40.5t44 54.5q17 33 30 63t14 48.5t-19 17.5q-38 3 -61.5 3t-38.5 11
q-9 8 -8.5 22t14.5 25q13 6 40 8t57.5 -1.5t52.5 -14.5q19 -9 26.5 -26.5t7.5 -39t-4 -42.5q-6 -26 -22.5 -57.5t-40.5 -65.5q-15 -21 -41 -45.5t-54 -44t-49 -27.5q-40 -18 -82.5 -24.5t-72.5 15.5zM496 737q-7 7 -12 21t-4 21q2 5 8.5 22.5t20.5 29.5q3 2 6.5 6.5t7.5 5.5
q12 8 24 4t25 -21q11 -23 6.5 -37t-23.5 -37q-15 -20 -28.5 -24t-30.5 9z" />
    <glyph glyph-name="H" unicode="H" horiz-adv-x="567" 
d="M138 -86l-5.5 2.5t-12.5 4t-13 1.5q-16 4 -23 17.5t-3 29.5q4 4 6 17t2 21q4 8 5 11.5t5 19.5q3 17 10.5 47.5t17 65.5t18.5 67t16.5 54t10.5 25v3.5v7.5l1.5 9.5t9.5 21.5q4 11 7 24t3 17q4 5 11.5 24.5t14.5 38.5q6 16 13.5 34t13 31l5.5 13v4.5v0.5q4 4 19.5 40.5
t42.5 94.5q4 8 11 20.5t7 16.5q8 10 19 8.5t21 -10t15 -19.5l10 -16l-36 -72q-16 -28 -27 -51t-11 -27l-5.5 -14.5t-13 -35.5t-13.5 -39q-11 -31 -20.5 -51t-9.5 -24q0 2 21.5 3t54.5 1t67.5 0.5t61.5 1t37 2.5l52 5l32 98q8 28 21 68t23 68q16 46 28 59.5t24 13.5
q3 0 9.5 -3t13 -7.5t8.5 -10.5q12 -11 11.5 -25t-16.5 -37q-16 -27 -26.5 -58.5t-18.5 -51.5q0 -12 -3 -19.5t-7 -11.5q-2 -2 -8 -15t-11 -26t-5 -16q0 -7 -3 -17t-7 -14q-2 -6 -9 -30t-16 -56.5t-19 -63t-18 -50.5q0 -7 -5 -17.5t-5 -18.5l-10 -30t-6 -23q-5 -23 -10.5 -49
t-9 -45.5t-3.5 -22.5q-11 -3 -20.5 2t-20.5 9q-19 11 -22.5 25t7.5 37q5 8 12.5 39.5t15.5 62.5q6 15 13 39.5t13.5 50t11.5 43t7 19.5v7v3q-2 2 -23 3.5t-53 1t-67 -2t-64 -5.5h-27h-24h-18.5h-7.5q-2 -3 -7.5 -20.5t-13.5 -42.5t-16 -51t-13.5 -47.5t-7.5 -30.5
q-4 -18 -10.5 -45t-14 -55.5t-13 -49.5t-7.5 -27z" />
    <glyph glyph-name="Hbar" unicode="&#x126;" horiz-adv-x="564" 
d="M657 478q-3 0 -34 0.5t-79 1.5t-102 2.5t-104 2.5t-85 1.5t-44 0.5q-6 0 -14.5 0.5t-17.5 3.5q-15 0 -20 2.5t-9 9.5q-9 15 -1 20.5t42 9.5q11 2 48 2.5t88 0t107.5 -1t108.5 -1.5t89.5 -1.5t50.5 -0.5q23 0 32 -2t20 -10q13 -15 9.5 -27.5t-25.5 -10.5q-7 -1 -24.5 -2
t-35.5 -1zM136 -86l-5 2.5t-12 4t-13 1.5q-16 4 -23 17.5t-3 29.5q4 4 6 17t2 21q4 8 5 11.5t5 19.5q3 17 10.5 47.5t17 65.5t18.5 67t16.5 54t10.5 25v3.5v7.5l1.5 9.5t9.5 21.5q4 11 7 24t3 17q4 5 11.5 24.5t14.5 38.5q6 16 13.5 34t13 31l5.5 13v4.5v0.5q4 4 19.5 40.5
t42.5 94.5q4 8 10.5 20.5t6.5 16.5q9 10 19.5 8.5t21 -10t15.5 -19.5l10 -16l-37 -72q-16 -28 -26.5 -51t-10.5 -27l-5.5 -14.5t-13 -35.5t-13.5 -39q-11 -31 -20.5 -51t-9.5 -24q0 2 21.5 3t54.5 1t67.5 0.5t61.5 1t37 2.5l52 5l32 98q8 28 21 68t23 68q16 46 28 59.5
t24 13.5q3 0 9.5 -3t13 -7.5t8.5 -10.5q12 -11 11.5 -25t-16.5 -37q-16 -27 -26.5 -58.5t-18.5 -51.5q0 -12 -3 -19.5t-7 -11.5q-2 -2 -8 -15t-11 -26t-5 -16q0 -7 -3 -17t-7 -14q-2 -6 -9 -30t-16 -56.5t-19 -63t-18 -50.5q0 -7 -5 -17.5t-5 -18.5l-10 -30t-6 -23
q-5 -23 -10.5 -49t-9 -45.5t-3.5 -22.5q-11 -3 -21 2t-21 9q-19 11 -22.5 25t7.5 37q5 8 12.5 39.5t15.5 62.5q6 15 13 39.5t14 50t12 43t7 19.5v7v3q-2 2 -23.5 3.5t-53 1t-66.5 -2t-64 -5.5h-27.5h-24.5h-18.5h-7.5q-1 -3 -7 -20.5t-13.5 -42.5t-16 -51t-14 -47.5
t-7.5 -30.5q-4 -18 -10.5 -45t-14 -55.5t-13 -49.5t-7.5 -27z" />
    <glyph glyph-name="Hcircumflex" unicode="&#x124;" horiz-adv-x="564" 
d="M137 -86l-5.5 2.5t-12.5 4t-13 1.5q-16 4 -23 17.5t-3 29.5q4 4 6 17t2 21q4 8 5 11.5t5 19.5q3 17 10.5 47.5t17 65.5t18.5 67t16.5 54t10.5 25v3.5v7.5l1.5 9.5t9.5 21.5q4 11 7 24t3 17q4 5 11.5 24.5t14.5 38.5q6 16 13.5 34t13 31l5.5 13v4.5v0.5q4 4 19.5 40.5
t42.5 94.5q4 8 11 20.5t7 16.5q8 10 19 8.5t21 -10t15 -19.5l10 -16l-36 -72q-16 -28 -27 -51t-11 -27l-5.5 -14.5t-13 -35.5t-13.5 -39q-11 -31 -20.5 -51t-9.5 -24q0 2 21.5 3t54.5 1t67.5 0.5t61.5 1t37 2.5l52 5l32 98q8 28 21 68t23 68q16 46 28 59.5t24 13.5
q3 0 9.5 -3t13 -7.5t8.5 -10.5q12 -11 11.5 -25t-16.5 -37q-16 -27 -26.5 -58.5t-18.5 -51.5q0 -12 -3 -19.5t-7 -11.5q-2 -2 -8 -15t-11 -26t-5 -16q0 -7 -3 -17t-7 -14q-2 -6 -9 -30t-16 -56.5t-19 -63t-18 -50.5q0 -7 -5 -17.5t-5 -18.5l-10 -30t-6 -23q-5 -23 -10.5 -49
t-9 -45.5t-3.5 -22.5q-11 -3 -20.5 2t-20.5 9q-19 11 -22.5 25t7.5 37q5 8 12.5 39.5t15.5 62.5q6 15 13 39.5t13.5 50t11.5 43t7 19.5v7v3q-2 2 -23 3.5t-53 1t-67 -2t-64 -5.5h-27h-24h-18.5h-7.5q-2 -3 -7.5 -20.5t-13.5 -42.5t-16 -51t-13.5 -47.5t-7.5 -30.5
q-4 -18 -10.5 -45t-14 -55.5t-13 -49.5t-7.5 -27zM500 729q-17 -17 -29.5 -13.5t-16 17.5t6.5 28q3 4 14.5 14.5t27 24t31 25t25.5 17.5q10 9 20 8t16 -10q12 -10 29.5 -27.5t32.5 -33t19 -20.5q6 -9 4.5 -20.5t-9 -19t-18.5 -5t-25 18.5q-7 8 -22.5 23.5t-30.5 28.5
q-12 -7 -27 -18t-28 -21.5t-20 -16.5z" />
    <glyph glyph-name="uni1E24" unicode="&#x1e24;" horiz-adv-x="564" 
d="M137 -86l-5.5 2.5t-12.5 4t-13 1.5q-16 4 -23 17.5t-3 29.5q4 4 6 17t2 21q4 8 5 11.5t5 19.5q3 17 10.5 47.5t17 65.5t18.5 67t16.5 54t10.5 25v3.5v7.5l1.5 9.5t9.5 21.5q4 11 7 24t3 17q4 5 11.5 24.5t14.5 38.5q6 16 13.5 34t13 31l5.5 13v4.5v0.5q4 4 19.5 40.5
t42.5 94.5q4 8 11 20.5t7 16.5q8 10 19 8.5t21 -10t15 -19.5l10 -16l-36 -72q-16 -28 -27 -51t-11 -27l-5.5 -14.5t-13 -35.5t-13.5 -39q-11 -31 -20.5 -51t-9.5 -24q0 2 21.5 3t54.5 1t67.5 0.5t61.5 1t37 2.5l52 5l32 98q8 28 21 68t23 68q16 46 28 59.5t24 13.5
q3 0 9.5 -3t13 -7.5t8.5 -10.5q12 -11 11.5 -25t-16.5 -37q-16 -27 -26.5 -58.5t-18.5 -51.5q0 -12 -3 -19.5t-7 -11.5q-2 -2 -8 -15t-11 -26t-5 -16q0 -7 -3 -17t-7 -14q-2 -6 -9 -30t-16 -56.5t-19 -63t-18 -50.5q0 -7 -5 -17.5t-5 -18.5l-10 -30t-6 -23q-5 -23 -10.5 -49
t-9 -45.5t-3.5 -22.5q-11 -3 -20.5 2t-20.5 9q-19 11 -22.5 25t7.5 37q5 8 12.5 39.5t15.5 62.5q6 15 13 39.5t13.5 50t11.5 43t7 19.5v7v3q-2 2 -23 3.5t-53 1t-67 -2t-64 -5.5h-27h-24h-18.5h-7.5q-2 -3 -7.5 -20.5t-13.5 -42.5t-16 -51t-13.5 -47.5t-7.5 -30.5
q-4 -18 -10.5 -45t-14 -55.5t-13 -49.5t-7.5 -27zM237 -169q-9 9 -13 18.5t-3 14.5q3 9 9.5 24t12.5 19q5 4 9 7.5t8 4.5q12 8 23 3t18 -20q10 -16 7.5 -27.5t-15.5 -27.5q-20 -23 -32.5 -25.5t-23.5 9.5z" />
    <glyph glyph-name="I" unicode="I" horiz-adv-x="403" 
d="M188 -34q-7 11 -29 14t-57 1q-14 -2 -27.5 1.5t-21.5 11t-6 15.5q1 12 23 21.5t65 10.5l49 1l10 20q4 11 9 28.5t12 40.5q4 14 12 38.5t17 52t16 49.5t9 31q4 9 11 30.5t13.5 44t8.5 32.5q26 79 34 112t4 34q-4 0 -19.5 -1t-33.5 -2.5t-32.5 -3.5t-17.5 -4
q-5 -7 -17 -1.5t-15 15.5q-1 9 -0.5 15t5.5 9q7 6 28 13.5t47 13.5t49 9q17 2 34 7.5t27 13.5q9 3 17.5 5t17.5 1q8 -5 27.5 -5t41.5 1q56 5 76.5 1t27.5 -18q5 -19 0.5 -30t-21.5 -10q-9 -2 -30 -3.5t-47 -2.5q-69 -6 -74 -14q-4 -4 -6.5 -8t-6.5 -9q1 -4 -4.5 -25
t-13.5 -43q-4 -13 -12 -37l-16.5 -49.5t-15.5 -46t-10 -27.5q-4 -9 -6.5 -19.5t-3.5 -15.5q-14 -49 -24 -82.5t-18 -59t-15 -48.5t-15 -51l16 1.5t42 3.5q47 5 66.5 6t25 -2.5t8.5 -12.5q20 -27 2.5 -39.5t-73.5 -11.5q-52 -2 -78.5 -3.5t-35.5 -4.5t-11 -10
q1 -11 -11.5 -12t-26.5 8z" />
    <glyph glyph-name="IJ" unicode="&#x132;" horiz-adv-x="746" 
d="M187 -34q-7 11 -29 14t-57 1q-14 -2 -27.5 1.5t-21.5 11t-6 15.5q1 12 23 21.5t65 10.5l49 1l10 20q4 11 9 28.5t12 40.5q4 14 12 38.5t17 52t16 49.5t9 31q4 9 11 30.5t13.5 44t8.5 32.5q26 79 34 112t4 34q-4 0 -19.5 -1t-33.5 -2.5t-32.5 -3.5t-17.5 -4
q-5 -7 -17 -1.5t-15 15.5q-1 9 -0.5 15t5.5 9q7 6 28 13.5t47 13.5t49 9q17 2 34 7.5t27 13.5q9 3 17.5 5t17.5 1q8 -5 27.5 -5t41.5 1q56 5 76.5 1t27.5 -18q5 -19 0.5 -30t-21.5 -10q-9 -2 -30 -3.5t-47 -2.5q-69 -6 -74 -14q-4 -4 -6.5 -8t-6.5 -9q1 -4 -4.5 -25
t-13.5 -43q-4 -13 -12 -37l-16.5 -49.5t-15.5 -46t-10 -27.5q-4 -9 -6.5 -19.5t-3.5 -15.5q-14 -49 -24 -82.5t-18 -59t-15 -48.5t-15 -51l16 1.5t42 3.5q47 5 66.5 6t25 -2.5t8.5 -12.5q20 -27 2.5 -39.5t-73.5 -11.5q-52 -2 -78.5 -3.5t-35.5 -4.5t-11 -10
q1 -11 -11.5 -12t-26.5 8zM528 -189q-19 -9 -42.5 -8t-45.5 12t-38 28q-7 8 -8 20t3 25q5 18 13 18q11 0 25 -19q28 -25 55.5 -14t58.5 59q6 15 19 43t27.5 60t26.5 59.5t16 39.5l0.5 3.5t4.5 7.5q1 4 5 16t8 28q4 11 11.5 33t16 46t14.5 40q5 21 12.5 45.5t12.5 37.5
q4 8 12 32.5t18 53.5q12 39 22.5 71t16.5 52t4 23l-17.5 -3t-38.5 -7q-17 -7 -34 -6t-15 8v5.5v1.5q-3 -2 -8 2.5t-9 12t-4 12.5q0 8 21 16t52 12q20 3 42.5 5.5t35.5 4.5q4 3 16 -1t24.5 -9.5t17.5 -11.5q6 -8 7.5 -17t-2.5 -25t-14.5 -45.5t-29.5 -80.5
q-22 -62 -39 -112.5t-31 -83.5q-3 -11 -10.5 -32t-14.5 -42.5t-11 -35.5q-8 -19 -15 -41t-11 -35q0 -8 -4 -18t-9 -15l-7 -17.5t-17 -41.5q-8 -20 -17.5 -44.5t-17.5 -37.5q-5 -12 -12 -22.5t-7 -14.5l-0.5 -3t-4.5 -3l-3 -2.5t-3 -7.5q-2 -6 -11.5 -17t-21.5 -23.5
t-24.5 -22t-20.5 -14.5z" />
    <glyph glyph-name="Iacute" unicode="&#xcd;" horiz-adv-x="400" 
d="M187 -34q-7 11 -29 14t-57 1q-14 -2 -27.5 1.5t-21.5 11t-6 15.5q1 12 23 21.5t65 10.5l49 1l10 20q4 11 9 28.5t12 40.5q4 14 12 38.5t17 52t16 49.5t9 31q4 9 11 30.5t13.5 44t8.5 32.5q26 79 34 112t4 34q-4 0 -19.5 -1t-33.5 -2.5t-32.5 -3.5t-17.5 -4
q-5 -7 -17 -1.5t-15 15.5q-1 9 -0.5 15t5.5 9q7 6 28 13.5t47 13.5t49 9q17 2 34 7.5t27 13.5q9 3 17.5 5t17.5 1q8 -5 27.5 -5t41.5 1q56 5 76.5 1t27.5 -18q5 -19 0.5 -30t-21.5 -10q-9 -2 -30 -3.5t-47 -2.5q-69 -6 -74 -14q-4 -4 -6.5 -8t-6.5 -9q1 -4 -4.5 -25
t-13.5 -43q-4 -13 -12 -37l-16.5 -49.5t-15.5 -46t-10 -27.5q-4 -9 -6.5 -19.5t-3.5 -15.5q-14 -49 -24 -82.5t-18 -59t-15 -48.5t-15 -51l16 1.5t42 3.5q47 5 66.5 6t25 -2.5t8.5 -12.5q20 -27 2.5 -39.5t-73.5 -11.5q-52 -2 -78.5 -3.5t-35.5 -4.5t-11 -10
q1 -11 -11.5 -12t-26.5 8zM403 714q-7 7 -10.5 20t-2.5 24q1 5 13.5 20t29.5 33t33.5 32.5t24.5 17.5q12 7 23.5 -4.5t18.5 -29.5q3 -9 -8 -21.5t-28 -26.5t-33 -27.5t-24 -24.5q-10 -16 -17.5 -18.5t-19.5 5.5z" />
    <glyph glyph-name="Ibreve" unicode="&#x12c;" horiz-adv-x="400" 
d="M187 -34q-7 11 -29 14t-57 1q-14 -2 -27.5 1.5t-21.5 11t-6 15.5q1 12 23 21.5t65 10.5l49 1l10 20q4 11 9 28.5t12 40.5q4 14 12 38.5t17 52t16 49.5t9 31q4 9 11 30.5t13.5 44t8.5 32.5q26 79 34 112t4 34q-4 0 -19.5 -1t-33.5 -2.5t-32.5 -3.5t-17.5 -4
q-5 -7 -17 -1.5t-15 15.5q-1 9 -0.5 15t5.5 9q7 6 28 13.5t47 13.5t49 9q17 2 34 7.5t27 13.5q9 3 17.5 5t17.5 1q8 -5 27.5 -5t41.5 1q56 5 76.5 1t27.5 -18q5 -19 0.5 -30t-21.5 -10q-9 -2 -30 -3.5t-47 -2.5q-69 -6 -74 -14q-4 -4 -6.5 -8t-6.5 -9q1 -4 -4.5 -25
t-13.5 -43q-4 -13 -12 -37l-16.5 -49.5t-15.5 -46t-10 -27.5q-4 -9 -6.5 -19.5t-3.5 -15.5q-14 -49 -24 -82.5t-18 -59t-15 -48.5t-15 -51l16 1.5t42 3.5q47 5 66.5 6t25 -2.5t8.5 -12.5q20 -27 2.5 -39.5t-73.5 -11.5q-52 -2 -78.5 -3.5t-35.5 -4.5t-11 -10
q1 -11 -11.5 -12t-26.5 8zM437 701q-32 3 -55.5 16.5t-33.5 37.5t-4 57q4 21 14.5 31t21 10t17 -9t1.5 -26q-3 -11 -1.5 -27t13.5 -27t42 -10q13 1 26.5 11.5t24.5 25.5t17 25q13 22 23.5 27.5t18 -0.5t10.5 -17t1 -20q-4 -13 -15 -31.5t-29 -36t-41.5 -28.5t-50.5 -9z" />
    <glyph glyph-name="Icircumflex" unicode="&#xce;" horiz-adv-x="400" 
d="M187 -34q-7 11 -29 14t-57 1q-14 -2 -27.5 1.5t-21.5 11t-6 15.5q1 12 23 21.5t65 10.5l49 1l10 20q4 11 9 28.5t12 40.5q4 14 12 38.5t17 52t16 49.5t9 31q4 9 11 30.5t13.5 44t8.5 32.5q26 79 34 112t4 34q-4 0 -19.5 -1t-33.5 -2.5t-32.5 -3.5t-17.5 -4
q-5 -7 -17 -1.5t-15 15.5q-1 9 -0.5 15t5.5 9q7 6 28 13.5t47 13.5t49 9q17 2 34 7.5t27 13.5q9 3 17.5 5t17.5 1q8 -5 27.5 -5t41.5 1q56 5 76.5 1t27.5 -18q5 -19 0.5 -30t-21.5 -10q-9 -2 -30 -3.5t-47 -2.5q-69 -6 -74 -14q-4 -4 -6.5 -8t-6.5 -9q1 -4 -4.5 -25
t-13.5 -43q-4 -13 -12 -37l-16.5 -49.5t-15.5 -46t-10 -27.5q-4 -9 -6.5 -19.5t-3.5 -15.5q-14 -49 -24 -82.5t-18 -59t-15 -48.5t-15 -51l16 1.5t42 3.5q47 5 66.5 6t25 -2.5t8.5 -12.5q20 -27 2.5 -39.5t-73.5 -11.5q-52 -2 -78.5 -3.5t-35.5 -4.5t-11 -10
q1 -11 -11.5 -12t-26.5 8zM391 729q-17 -17 -29.5 -13.5t-16 17.5t6.5 28q3 4 14.5 14.5t27 24t31 25t25.5 17.5q10 9 20 8t16 -10q12 -10 29.5 -27.5t32.5 -33t19 -20.5q6 -9 4.5 -20.5t-9 -19t-18.5 -5t-25 18.5q-7 8 -22.5 23.5t-30.5 28.5q-12 -7 -27 -18t-28 -21.5
t-20 -16.5z" />
    <glyph glyph-name="uni0208" unicode="&#x208;" horiz-adv-x="400" 
d="M187 -34q-7 11 -29 14t-57 1q-14 -2 -27.5 1.5t-21.5 11t-6 15.5q1 12 23 21.5t65 10.5l49 1l10 20q4 11 9 28.5t12 40.5q4 14 12 38.5t17 52t16 49.5t9 31q4 9 11 30.5t13.5 44t8.5 32.5q26 79 34 112t4 34q-4 0 -19.5 -1t-33.5 -2.5t-32.5 -3.5t-17.5 -4
q-5 -7 -17 -1.5t-15 15.5q-1 9 -0.5 15t5.5 9q7 6 28 13.5t47 13.5t49 9q17 2 34 7.5t27 13.5q9 3 17.5 5t17.5 1q8 -5 27.5 -5t41.5 1q56 5 76.5 1t27.5 -18q5 -19 0.5 -30t-21.5 -10q-9 -2 -30 -3.5t-47 -2.5q-69 -6 -74 -14q-4 -4 -6.5 -8t-6.5 -9q1 -4 -4.5 -25
t-13.5 -43q-4 -13 -12 -37l-16.5 -49.5t-15.5 -46t-10 -27.5q-4 -9 -6.5 -19.5t-3.5 -15.5q-14 -49 -24 -82.5t-18 -59t-15 -48.5t-15 -51l16 1.5t42 3.5q47 5 66.5 6t25 -2.5t8.5 -12.5q20 -27 2.5 -39.5t-73.5 -11.5q-52 -2 -78.5 -3.5t-35.5 -4.5t-11 -10
q1 -11 -11.5 -12t-26.5 8zM351 714q-10 -5 -15 -0.5t-11 23.5q-5 12 -16.5 27.5t-22.5 32t-16.5 29.5t-0.5 20q11 14 23 20.5t20 0.5q8 -5 19 -22t21.5 -37.5t18 -36.5t7.5 -19q1 -4 -4 -11.5t-11 -15t-12 -11.5zM471 715q-11 -5 -15.5 -1.5t-10.5 22.5q-7 13 -18 29l-22 32
t-16.5 29t-0.5 19q14 17 25 22t18 0q7 -4 17.5 -20t21.5 -36t18.5 -36.5t8.5 -23.5q1 -3 -6.5 -15.5t-19.5 -20.5z" />
    <glyph glyph-name="Idieresis" unicode="&#xcf;" horiz-adv-x="403" 
d="M188 -34q-7 11 -29 14t-57 1q-14 -2 -27.5 1.5t-21.5 11t-6 15.5q1 12 23 21.5t65 10.5l49 1l10 20q4 11 9 28.5t12 40.5q4 14 12 38.5t17 52t16 49.5t9 31q4 9 11 30.5t13.5 44t8.5 32.5q26 79 34 112t4 34q-4 0 -19.5 -1t-33.5 -2.5t-32.5 -3.5t-17.5 -4
q-5 -7 -17 -1.5t-15 15.5q-1 9 -0.5 15t5.5 9q7 6 28 13.5t47 13.5t49 9q17 2 34 7.5t27 13.5q9 3 17.5 5t17.5 1q8 -5 27.5 -5t41.5 1q56 5 76.5 1t27.5 -18q5 -19 0.5 -30t-21.5 -10q-9 -2 -30 -3.5t-47 -2.5q-69 -6 -74 -14q-4 -4 -6.5 -8t-6.5 -9q1 -4 -4.5 -25
t-13.5 -43q-4 -13 -12 -37l-16.5 -49.5t-15.5 -46t-10 -27.5q-4 -9 -6.5 -19.5t-3.5 -15.5q-14 -49 -24 -82.5t-18 -59t-15 -48.5t-15 -51l16 1.5t42 3.5q47 5 66.5 6t25 -2.5t8.5 -12.5q20 -27 2.5 -39.5t-73.5 -11.5q-52 -2 -78.5 -3.5t-35.5 -4.5t-11 -10
q1 -11 -11.5 -12t-26.5 8zM495 749q-7 7 -11.5 19t-3.5 16q2 5 7.5 20t11.5 20q4 4 10 11t10 8q12 10 24.5 4t18.5 -22q12 -17 7.5 -31.5t-19.5 -32.5q-17 -24 -30.5 -24.5t-24.5 12.5zM361 745q-9 8 -14.5 21t-4.5 18q2 8 9.5 24t14.5 22q3 2 7.5 7t8.5 6q10 7 19 4.5
t16 -10t10 -18.5q8 -14 4.5 -26.5t-17.5 -29.5q-16 -21 -29 -25t-24 7z" />
    <glyph glyph-name="Idotaccent" unicode="&#x130;" horiz-adv-x="400" 
d="M187 -34q-7 11 -29 14t-57 1q-14 -2 -27.5 1.5t-21.5 11t-6 15.5q1 12 23 21.5t65 10.5l49 1l10 20q4 11 9 28.5t12 40.5q4 14 12 38.5t17 52t16 49.5t9 31q4 9 11 30.5t13.5 44t8.5 32.5q26 79 34 112t4 34q-4 0 -19.5 -1t-33.5 -2.5t-32.5 -3.5t-17.5 -4
q-5 -7 -17 -1.5t-15 15.5q-1 9 -0.5 15t5.5 9q7 6 28 13.5t47 13.5t49 9q17 2 34 7.5t27 13.5q9 3 17.5 5t17.5 1q8 -5 27.5 -5t41.5 1q56 5 76.5 1t27.5 -18q5 -19 0.5 -30t-21.5 -10q-9 -2 -30 -3.5t-47 -2.5q-69 -6 -74 -14q-4 -4 -6.5 -8t-6.5 -9q1 -4 -4.5 -25
t-13.5 -43q-4 -13 -12 -37l-16.5 -49.5t-15.5 -46t-10 -27.5q-4 -9 -6.5 -19.5t-3.5 -15.5q-14 -49 -24 -82.5t-18 -59t-15 -48.5t-15 -51l16 1.5t42 3.5q47 5 66.5 6t25 -2.5t8.5 -12.5q20 -27 2.5 -39.5t-73.5 -11.5q-52 -2 -78.5 -3.5t-35.5 -4.5t-11 -10
q1 -11 -11.5 -12t-26.5 8zM421 737q-7 7 -12 21t-4 21q2 5 8.5 22.5t20.5 29.5q3 2 6.5 6.5t7.5 5.5q12 8 24 4t25 -21q11 -23 6.5 -37t-23.5 -37q-15 -20 -28.5 -24t-30.5 9z" />
    <glyph glyph-name="uni1ECA" unicode="&#x1eca;" horiz-adv-x="400" 
d="M187 -34q-7 11 -29 14t-57 1q-14 -2 -27.5 1.5t-21.5 11t-6 15.5q1 12 23 21.5t65 10.5l49 1l10 20q4 11 9 28.5t12 40.5q4 14 12 38.5t17 52t16 49.5t9 31q4 9 11 30.5t13.5 44t8.5 32.5q26 79 34 112t4 34q-4 0 -19.5 -1t-33.5 -2.5t-32.5 -3.5t-17.5 -4
q-5 -7 -17 -1.5t-15 15.5q-1 9 -0.5 15t5.5 9q7 6 28 13.5t47 13.5t49 9q17 2 34 7.5t27 13.5q9 3 17.5 5t17.5 1q8 -5 27.5 -5t41.5 1q56 5 76.5 1t27.5 -18q5 -19 0.5 -30t-21.5 -10q-9 -2 -30 -3.5t-47 -2.5q-69 -6 -74 -14q-4 -4 -6.5 -8t-6.5 -9q1 -4 -4.5 -25
t-13.5 -43q-4 -13 -12 -37l-16.5 -49.5t-15.5 -46t-10 -27.5q-4 -9 -6.5 -19.5t-3.5 -15.5q-14 -49 -24 -82.5t-18 -59t-15 -48.5t-15 -51l16 1.5t42 3.5q47 5 66.5 6t25 -2.5t8.5 -12.5q20 -27 2.5 -39.5t-73.5 -11.5q-52 -2 -78.5 -3.5t-35.5 -4.5t-11 -10
q1 -11 -11.5 -12t-26.5 8zM142 -178q-9 9 -13 18.5t-3 14.5q3 9 9.5 24t12.5 19q5 4 9 7.5t8 4.5q12 8 23 3t18 -20q10 -16 7.5 -27.5t-15.5 -27.5q-20 -23 -32.5 -25.5t-23.5 9.5z" />
    <glyph glyph-name="Igrave" unicode="&#xcc;" horiz-adv-x="400" 
d="M187 -34q-7 11 -29 14t-57 1q-14 -2 -27.5 1.5t-21.5 11t-6 15.5q1 12 23 21.5t65 10.5l49 1l10 20q4 11 9 28.5t12 40.5q4 14 12 38.5t17 52t16 49.5t9 31q4 9 11 30.5t13.5 44t8.5 32.5q26 79 34 112t4 34q-4 0 -19.5 -1t-33.5 -2.5t-32.5 -3.5t-17.5 -4
q-5 -7 -17 -1.5t-15 15.5q-1 9 -0.5 15t5.5 9q7 6 28 13.5t47 13.5t49 9q17 2 34 7.5t27 13.5q9 3 17.5 5t17.5 1q8 -5 27.5 -5t41.5 1q56 5 76.5 1t27.5 -18q5 -19 0.5 -30t-21.5 -10q-9 -2 -30 -3.5t-47 -2.5q-69 -6 -74 -14q-4 -4 -6.5 -8t-6.5 -9q1 -4 -4.5 -25
t-13.5 -43q-4 -13 -12 -37l-16.5 -49.5t-15.5 -46t-10 -27.5q-4 -9 -6.5 -19.5t-3.5 -15.5q-14 -49 -24 -82.5t-18 -59t-15 -48.5t-15 -51l16 1.5t42 3.5q47 5 66.5 6t25 -2.5t8.5 -12.5q20 -27 2.5 -39.5t-73.5 -11.5q-52 -2 -78.5 -3.5t-35.5 -4.5t-11 -10
q1 -11 -11.5 -12t-26.5 8zM470 709q-9 -6 -13 -3.5t-7 11t-8 19.5q-8 17 -23.5 39.5t-24 43.5t0.5 33q16 15 26 19t20 -7q7 -4 16.5 -21t19 -38.5t16 -39.5t6.5 -24q1 -4 -8.5 -16.5t-20.5 -15.5z" />
    <glyph glyph-name="uni020A" unicode="&#x20a;" horiz-adv-x="400" 
d="M187 -34q-7 11 -29 14t-57 1q-14 -2 -27.5 1.5t-21.5 11t-6 15.5q1 12 23 21.5t65 10.5l49 1l10 20q4 11 9 28.5t12 40.5q4 14 12 38.5t17 52t16 49.5t9 31q4 9 11 30.5t13.5 44t8.5 32.5q26 79 34 112t4 34q-4 0 -19.5 -1t-33.5 -2.5t-32.5 -3.5t-17.5 -4
q-5 -7 -17 -1.5t-15 15.5q-1 9 -0.5 15t5.5 9q7 6 28 13.5t47 13.5t49 9q17 2 34 7.5t27 13.5q9 3 17.5 5t17.5 1q8 -5 27.5 -5t41.5 1q56 5 76.5 1t27.5 -18q5 -19 0.5 -30t-21.5 -10q-9 -2 -30 -3.5t-47 -2.5q-69 -6 -74 -14q-4 -4 -6.5 -8t-6.5 -9q1 -4 -4.5 -25
t-13.5 -43q-4 -13 -12 -37l-16.5 -49.5t-15.5 -46t-10 -27.5q-4 -9 -6.5 -19.5t-3.5 -15.5q-14 -49 -24 -82.5t-18 -59t-15 -48.5t-15 -51l16 1.5t42 3.5q47 5 66.5 6t25 -2.5t8.5 -12.5q20 -27 2.5 -39.5t-73.5 -11.5q-52 -2 -78.5 -3.5t-35.5 -4.5t-11 -10
q1 -11 -11.5 -12t-26.5 8zM487 733q3 12 2.5 28t-11.5 27.5t-40 10.5q-13 1 -27.5 -10t-27.5 -26.5t-22 -31.5q-14 -24 -26 -24.5t-18 12.5t-5 28q5 12 17 30.5t30.5 36.5t41.5 29t48 9q36 -3 59 -19t32 -40t3 -53q-6 -28 -21.5 -36.5t-27 -0.5t-7.5 30z" />
    <glyph glyph-name="Imacron" unicode="&#x12a;" horiz-adv-x="400" 
d="M187 -34q-7 11 -29 14t-57 1q-14 -2 -27.5 1.5t-21.5 11t-6 15.5q1 12 23 21.5t65 10.5l49 1l10 20q4 11 9 28.5t12 40.5q4 14 12 38.5t17 52t16 49.5t9 31q4 9 11 30.5t13.5 44t8.5 32.5q26 79 34 112t4 34q-4 0 -19.5 -1t-33.5 -2.5t-32.5 -3.5t-17.5 -4
q-5 -7 -17 -1.5t-15 15.5q-1 9 -0.5 15t5.5 9q7 6 28 13.5t47 13.5t49 9q17 2 34 7.5t27 13.5q9 3 17.5 5t17.5 1q8 -5 27.5 -5t41.5 1q56 5 76.5 1t27.5 -18q5 -19 0.5 -30t-21.5 -10q-9 -2 -30 -3.5t-47 -2.5q-69 -6 -74 -14q-4 -4 -6.5 -8t-6.5 -9q1 -4 -4.5 -25
t-13.5 -43q-4 -13 -12 -37l-16.5 -49.5t-15.5 -46t-10 -27.5q-4 -9 -6.5 -19.5t-3.5 -15.5q-14 -49 -24 -82.5t-18 -59t-15 -48.5t-15 -51l16 1.5t42 3.5q47 5 66.5 6t25 -2.5t8.5 -12.5q20 -27 2.5 -39.5t-73.5 -11.5q-52 -2 -78.5 -3.5t-35.5 -4.5t-11 -10
q1 -11 -11.5 -12t-26.5 8zM378 761q-7 0 -16.5 1t-18.5 4q-15 0 -20.5 3t-10.5 12q-9 15 0.5 21t43.5 10q33 5 66.5 8.5t69.5 3.5q25 0 44 -3t30 -12q13 -14 9.5 -27.5t-24.5 -12.5q-6 0 -20.5 -1t-31 -1.5t-28.5 -0.5q-7 -1 -22 -2t-34 -2t-37 -1z" />
    <glyph glyph-name="Iogonek" unicode="&#x12e;" horiz-adv-x="400" 
d="M187 -34q-7 11 -29 14t-57 1q-14 -2 -27.5 1.5t-21.5 11t-6 15.5q1 12 23 21.5t65 10.5l49 1l10 20q4 11 9 28.5t12 40.5q4 14 12 38.5t17 52t16 49.5t9 31q4 9 11 30.5t13.5 44t8.5 32.5q26 79 34 112t4 34q-4 0 -19.5 -1t-33.5 -2.5t-32.5 -3.5t-17.5 -4
q-5 -7 -17 -1.5t-15 15.5q-1 9 -0.5 15t5.5 9q7 6 28 13.5t47 13.5t49 9q17 2 34 7.5t27 13.5q9 3 17.5 5t17.5 1q8 -5 27.5 -5t41.5 1q56 5 76.5 1t27.5 -18q5 -19 0.5 -30t-21.5 -10q-9 -2 -30 -3.5t-47 -2.5q-69 -6 -74 -14q-4 -4 -6.5 -8t-6.5 -9q1 -4 -4.5 -25
t-13.5 -43q-4 -13 -12 -37l-16.5 -49.5t-15.5 -46t-10 -27.5q-4 -9 -6.5 -19.5t-3.5 -15.5q-14 -49 -24 -82.5t-18 -59t-15 -48.5t-15 -51l16 1.5t42 3.5q47 5 66.5 6t25 -2.5t8.5 -12.5q20 -27 2.5 -39.5t-73.5 -11.5q-52 -2 -78.5 -3.5t-35.5 -4.5t-11 -10
q1 -11 -11.5 -12t-26.5 8zM137 -209q-20 6 -36 21.5t-21.5 37.5t6.5 44q12 23 34.5 46.5t48.5 44.5t48 35l38 -30q-22 -13 -52.5 -38.5t-48.5 -47.5q-14 -17 -19.5 -30.5t1.5 -24.5q3 -6 18 -6q23 4 39 14t41 22q13 7 20 3t8.5 -14t-3 -20t-16.5 -15q-4 -1 -17 -7.5
t-29.5 -13.5t-32.5 -13t-27 -8z" />
    <glyph glyph-name="Itilde" unicode="&#x128;" horiz-adv-x="400" 
d="M187 -34q-7 11 -29 14t-57 1q-14 -2 -27.5 1.5t-21.5 11t-6 15.5q1 12 23 21.5t65 10.5l49 1l10 20q4 11 9 28.5t12 40.5q4 14 12 38.5t17 52t16 49.5t9 31q4 9 11 30.5t13.5 44t8.5 32.5q26 79 34 112t4 34q-4 0 -19.5 -1t-33.5 -2.5t-32.5 -3.5t-17.5 -4
q-5 -7 -17 -1.5t-15 15.5q-1 9 -0.5 15t5.5 9q7 6 28 13.5t47 13.5t49 9q17 2 34 7.5t27 13.5q9 3 17.5 5t17.5 1q8 -5 27.5 -5t41.5 1q56 5 76.5 1t27.5 -18q5 -19 0.5 -30t-21.5 -10q-9 -2 -30 -3.5t-47 -2.5q-69 -6 -74 -14q-4 -4 -6.5 -8t-6.5 -9q1 -4 -4.5 -25
t-13.5 -43q-4 -13 -12 -37l-16.5 -49.5t-15.5 -46t-10 -27.5q-4 -9 -6.5 -19.5t-3.5 -15.5q-14 -49 -24 -82.5t-18 -59t-15 -48.5t-15 -51l16 1.5t42 3.5q47 5 66.5 6t25 -2.5t8.5 -12.5q20 -27 2.5 -39.5t-73.5 -11.5q-52 -2 -78.5 -3.5t-35.5 -4.5t-11 -10
q1 -11 -11.5 -12t-26.5 8zM492 728q-18 0 -31.5 7.5t-32.5 21.5q-9 5 -23.5 19.5t-26.5 14.5q-10 0 -16.5 -8t-12.5 -16.5t-17 -10.5q-1 -5 -5.5 -12.5t-8.5 -2.5q-10 3 -16 10.5t-7 16.5q4 14 19 36t46 38q18 6 38.5 0t36.5 -22q23 -20 35.5 -27.5t31.5 0.5q15 4 31.5 15
t37.5 19q7 3 13.5 -2t10 -13t2.5 -14t-8 -16.5t-16 -15.5q-30 -17 -46.5 -25t-23.5 -10.5t-11 -2.5z" />
    <glyph glyph-name="J" unicode="J" horiz-adv-x="309" 
d="M90 -189q-19 -9 -42.5 -8t-45.5 12t-38 28q-7 8 -8 20t3 25q5 18 13 18q11 0 25 -19q28 -25 55.5 -14t58.5 59q6 15 19 43t27.5 60t26.5 59.5t16 39.5l0.5 3.5t4.5 7.5q1 4 5 16t8 28q4 11 11.5 33t16 46t14.5 40q5 21 12.5 45.5t12.5 37.5q4 8 12 32.5t18 53.5
q12 39 22.5 71t16.5 52t4 23l-17.5 -3t-38.5 -7q-17 -7 -34 -6t-15 8v5.5v1.5q-3 -2 -8 2.5t-9 12t-4 12.5q0 8 21 16t52 12q20 3 42.5 5.5t35.5 4.5q4 3 16 -1t24.5 -9.5t17.5 -11.5q6 -8 7.5 -17t-2.5 -25t-14.5 -45.5t-29.5 -80.5q-22 -62 -39 -112.5t-31 -83.5
q-3 -11 -10.5 -32t-14.5 -42.5t-11 -35.5q-8 -19 -15 -41t-11 -35q0 -8 -4 -18t-9 -15l-7 -17.5t-17 -41.5q-8 -20 -17.5 -44.5t-17.5 -37.5q-5 -12 -12 -22.5t-7 -14.5l-0.5 -3t-4.5 -3l-3 -2.5t-3 -7.5q-2 -6 -11.5 -17t-21.5 -23.5t-24.5 -22t-20.5 -14.5z" />
    <glyph glyph-name="Jcircumflex" unicode="&#x134;" horiz-adv-x="306" 
d="M89 -189q-19 -9 -42.5 -8t-45.5 12t-38 28q-7 8 -8 20t3 25q5 18 13 18q11 0 25 -19q28 -25 55.5 -14t58.5 59q6 15 19 43t27.5 60t26.5 59.5t16 39.5l0.5 3.5t4.5 7.5q1 4 5 16t8 28q4 11 11.5 33t16 46t14.5 40q5 21 12.5 45.5t12.5 37.5q4 8 12 32.5t18 53.5
q12 39 22.5 71t16.5 52t4 23l-17.5 -3t-38.5 -7q-17 -7 -34 -6t-15 8v5.5v1.5q-3 -2 -8 2.5t-9 12t-4 12.5q0 8 21 16t52 12q20 3 42.5 5.5t35.5 4.5q4 3 16 -1t24.5 -9.5t17.5 -11.5q6 -8 7.5 -17t-2.5 -25t-14.5 -45.5t-29.5 -80.5q-22 -62 -39 -112.5t-31 -83.5
q-3 -11 -10.5 -32t-14.5 -42.5t-11 -35.5q-8 -19 -15 -41t-11 -35q0 -8 -4 -18t-9 -15l-7 -17.5t-17 -41.5q-8 -20 -17.5 -44.5t-17.5 -37.5q-5 -12 -12 -22.5t-7 -14.5l-0.5 -3t-4.5 -3l-3 -2.5t-3 -7.5q-2 -6 -11.5 -17t-21.5 -23.5t-24.5 -22t-20.5 -14.5zM330 729
q-17 -17 -29.5 -13.5t-16 17.5t6.5 28q3 4 14.5 14.5t27 24t31 25t25.5 17.5q10 9 20 8t16 -10q12 -10 29.5 -27.5t32.5 -33t19 -20.5q6 -9 4.5 -20.5t-9 -19t-18.5 -5t-25 18.5q-7 8 -22.5 23.5t-30.5 28.5q-12 -7 -27 -18t-28 -21.5t-20 -16.5z" />
    <glyph glyph-name="K" unicode="K" horiz-adv-x="501" 
d="M100 -40q-13 8 -17.5 16.5t1.5 29.5q-1 13 1.5 24t3.5 15q5 0 6 6t1 10q0 8 6.5 27t11.5 39q8 19 15.5 37t7.5 22q0 8 4 16.5t9 16.5q5 12 7.5 26.5t2.5 22.5q6 13 13 28t11 31q6 17 18 50t25 67q9 19 17.5 39.5t15.5 35.5t10 15v3.5v7.5q0 5 8 19.5t15 30.5
q10 15 14 28.5l4 13.5l4 6t8 10q17 11 31 9.5t21 -20.5q8 -18 7 -28t-8 -22q-8 -18 -21 -45.5t-27.5 -58.5t-27 -59.5t-20 -49t-7.5 -25.5l-41 -102q-1 -3 -6.5 -18t-13 -39t-17 -54.5t-21.5 -66.5q-15 -48 -24 -75.5t-15 -38.5t-13 -11q-4 0 -8.5 3t-11.5 8zM453 -45
q-9 -1 -24.5 8.5t-33 23.5t-33 29t-24.5 26q-16 23 -40 61t-36 81q-7 32 -14 51t-9 32l1 67l59 -9q5 -54 15.5 -89.5t25.5 -62.5q12 -26 27 -51.5t32 -42.5q23 -25 41 -37t27 -12q10 -4 19 -10.5t16 -13t7 -11.5q1 -3 0.5 -11t-3 -15t-6.5 -10q-4 -7 -12.5 -11.5t-34.5 7.5z
M227 330l73 53q3 3 20 19t60 48l126 102q25 13 49.5 31.5t38.5 27.5q17 12 31.5 22.5t18.5 9.5q8 4 17.5 -4t15.5 -20.5t5 -20.5q2 -10 -3.5 -17t-27.5 -19q-21 -10 -35.5 -19.5t-17.5 -14.5l-19.5 -15t-48.5 -35q-40 -27 -67.5 -49t-35.5 -34q-4 0 -7.5 -3t-7.5 -2l-7.5 -5
t-11.5 -11q-2 -5 -8.5 -13.5t-16.5 -7.5q-7 -4 -25 -16.5t-37.5 -27.5t-33.5 -27t-15 -14z" />
    <glyph glyph-name="uni0136" unicode="&#x136;" horiz-adv-x="494" 
d="M99 -40q-13 8 -17.5 16.5t1.5 29.5q-1 13 1.5 24t3.5 15q5 0 6 6t1 10q0 8 6.5 27t11.5 39q8 19 15.5 37t7.5 22q0 8 4 16.5t9 16.5q5 12 7.5 26.5t2.5 22.5q6 13 13 28t11 31q6 17 18 50t25 67q9 19 17.5 39.5t15.5 35.5t10 15v3.5v7.5q0 5 8 19.5t15 30.5
q10 15 14 28.5l4 13.5l4 6t8 10q17 11 31 9.5t21 -20.5q8 -18 7 -28t-8 -22q-8 -18 -21 -45.5t-27.5 -58.5t-27 -59.5t-20 -49t-7.5 -25.5l-41 -102q-1 -3 -6.5 -18t-13 -39t-17 -54.5t-21.5 -66.5q-15 -48 -24 -75.5t-15 -38.5t-13 -11q-4 0 -8.5 3t-11.5 8zM452 -45
q-9 -1 -24.5 8.5t-33 23.5t-33 29t-24.5 26q-16 23 -40 61t-36 81q-7 32 -14 51t-9 32l1 67l59 -9q5 -54 15.5 -89.5t25.5 -62.5q12 -26 27 -51.5t32 -42.5q23 -25 41 -37t27 -12q10 -4 19 -10.5t16 -13t7 -11.5q1 -3 0.5 -11t-3 -15t-6.5 -10q-4 -7 -12.5 -11.5t-34.5 7.5z
M226 330l73 53q3 3 20 19t60 48l126 102q25 13 49.5 31.5t38.5 27.5q17 12 31.5 22.5t18.5 9.5q8 4 17.5 -4t15.5 -20.5t5 -20.5q2 -10 -3.5 -17t-27.5 -19q-21 -10 -35.5 -19.5t-17.5 -14.5l-19.5 -15t-48.5 -35q-40 -27 -67.5 -49t-35.5 -34q-4 0 -7.5 -3t-7.5 -2l-7.5 -5
t-11.5 -11q-2 -5 -8.5 -13.5t-16.5 -7.5q-7 -4 -25 -16.5t-37.5 -27.5t-33.5 -27t-15 -14zM161 -186q-10 0 -14.5 2t-7.5 7q0 7 14 19q18 17 33.5 39.5t17.5 41.5q-1 24 11.5 35t33.5 -1q5 -14 6.5 -27t-6.5 -40q-1 -5 -7.5 -15.5t-14 -20.5t-11.5 -13q-2 -2 -7.5 -6.5
t-10.5 -8.5t-8 -6q-3 -1 -5.5 -2.5t-7.5 -2.5t-16 -1z" />
    <glyph glyph-name="L" unicode="L" horiz-adv-x="426" 
d="M209 -46q-40 10 -69 40.5t-40 66.5q-1 13 -2 35t0 40.5t3 21.5q3 2 3 12q-1 4 1.5 13.5t5.5 19.5q5 12 5 19.5t-1 11.5l3 6.5t7 10.5q6 6 5.5 12l-0.5 6q-1 4 2 11t6 11q2 2 5.5 8.5l3.5 6.5q0 3 4.5 16t10.5 28.5t11.5 28.5t8.5 17v2q4 10 11 21q1 5 5 16.5t9 22.5
q11 24 27.5 54.5t35.5 61t36.5 55t30.5 36.5q17 19 29.5 22.5t27.5 -11.5q7 -7 11 -18t3.5 -20t-6.5 -10q-7 -4 -20 -22.5t-29.5 -43.5t-32.5 -51.5t-28 -47.5q-13 -29 -24 -50.5l-11 -21.5q-1 -3 -2 -5l-2 -4q-15 -31 -25 -56.5t-20 -53.5q-6 -7 -7 -14l-1 -7q-2 1 -3 -4.5
t-4 -12.5q-5 -4 -6 -12.5t-1 -16.5q-7 -18 -13 -43.5t-8.5 -49t-1.5 -36.5q2 -17 15 -30t32 -21q11 -4 19.5 -7t15.5 -3q8 -1 20.5 0.5t34.5 5.5h-1q13 2 27.5 5.5t27.5 6.5q12 2 23 4.5t17 4.5l33 9t16 -1t8.5 -11.5t0.5 -16.5q-2 -5 -17.5 -16.5t-36 -22.5t-39.5 -17
q-20 -9 -49.5 -13.5t-57 -4t-43.5 5.5z" />
    <glyph glyph-name="Lacute" unicode="&#x139;" horiz-adv-x="426" 
d="M209 -46q-40 10 -69 40.5t-40 66.5q-1 13 -2 35t0 40.5t3 21.5q3 2 3 12q-1 4 1.5 13.5t5.5 19.5q5 12 5 19.5t-1 11.5l3 6.5t7 10.5q6 6 5.5 12l-0.5 6q-1 4 2 11t6 11q2 2 5.5 8.5l3.5 6.5q0 3 4.5 16t10.5 28.5t11.5 28.5t8.5 17v2q4 10 11 21q1 5 5 16.5t9 22.5
q11 24 27.5 54.5t35.5 61t36.5 55t30.5 36.5q17 19 29.5 22.5t27.5 -11.5q7 -7 11 -18t3.5 -20t-6.5 -10q-7 -4 -20 -22.5t-29.5 -43.5t-32.5 -51.5t-28 -47.5q-13 -29 -24 -50.5l-11 -21.5q-1 -3 -2 -5l-2 -4q-15 -31 -25 -56.5t-20 -53.5q-6 -7 -7 -14l-1 -7q-2 1 -3 -4.5
t-4 -12.5q-5 -4 -6 -12.5t-1 -16.5q-7 -18 -13 -43.5t-8.5 -49t-1.5 -36.5q2 -17 15 -30t32 -21q11 -4 19.5 -7t15.5 -3q8 -1 20.5 0.5t34.5 5.5h-1q13 2 27.5 5.5t27.5 6.5q12 2 23 4.5t17 4.5l33 9t16 -1t8.5 -11.5t0.5 -16.5q-2 -5 -17.5 -16.5t-36 -22.5t-39.5 -17
q-20 -9 -49.5 -13.5t-57 -4t-43.5 5.5zM443 714q-7 7 -10.5 20t-2.5 24q1 5 13.5 20t29.5 33t33.5 32.5t24.5 17.5q12 7 23.5 -4.5t18.5 -29.5q3 -9 -8 -21.5t-28 -26.5t-33 -27.5t-24 -24.5q-10 -16 -17.5 -18.5t-19.5 5.5z" />
    <glyph glyph-name="Lcaron" unicode="&#x13d;" horiz-adv-x="426" 
d="M209 -46q-40 10 -69 40.5t-40 66.5q-1 13 -2 35t0 40.5t3 21.5q3 2 3 12q-1 4 1.5 13.5t5.5 19.5q5 12 5 19.5t-1 11.5l3 6.5t7 10.5q6 6 5.5 12l-0.5 6q-1 4 2 11t6 11q2 2 5.5 8.5l3.5 6.5q0 3 4.5 16t10.5 28.5t11.5 28.5t8.5 17v2q4 10 11 21q1 5 5 16.5t9 22.5
q11 24 27.5 54.5t35.5 61t36.5 55t30.5 36.5q17 19 29.5 22.5t27.5 -11.5q7 -7 11 -18t3.5 -20t-6.5 -10q-7 -4 -20 -22.5t-29.5 -43.5t-32.5 -51.5t-28 -47.5q-13 -29 -24 -50.5l-11 -21.5q-1 -3 -2 -5l-2 -4q-15 -31 -25 -56.5t-20 -53.5q-6 -7 -7 -14l-1 -7q-2 1 -3 -4.5
t-4 -12.5q-5 -4 -6 -12.5t-1 -16.5q-7 -18 -13 -43.5t-8.5 -49t-1.5 -36.5q2 -17 15 -30t32 -21q11 -4 19.5 -7t15.5 -3q8 -1 20.5 0.5t34.5 5.5h-1q13 2 27.5 5.5t27.5 6.5q12 2 23 4.5t17 4.5l33 9t16 -1t8.5 -11.5t0.5 -16.5q-2 -5 -17.5 -16.5t-36 -22.5t-39.5 -17
q-20 -9 -49.5 -13.5t-57 -4t-43.5 5.5zM473 517q-10 0 -12.5 1.5t-6.5 8.5q0 7 3.5 13t10.5 12q10 10 22.5 24.5t22 29.5t8.5 25q-1 22 8.5 37t23.5 19t29 -11q4 -21 1.5 -40.5t-13.5 -44.5q-2 -7 -12.5 -20.5t-21 -25t-13.5 -11.5q-4 0 -8 -4l-8 -8t-13.5 -4.5t-20.5 -0.5z
" />
    <glyph glyph-name="uni013B" unicode="&#x13b;" horiz-adv-x="426" 
d="M209 -46q-40 10 -69 40.5t-40 66.5q-1 13 -2 35t0 40.5t3 21.5q3 2 3 12q-1 4 1.5 13.5t5.5 19.5q5 12 5 19.5t-1 11.5l3 6.5t7 10.5q6 6 5.5 12l-0.5 6q-1 4 2 11t6 11q2 2 5.5 8.5l3.5 6.5q0 3 4.5 16t10.5 28.5t11.5 28.5t8.5 17v2q4 10 11 21q1 5 5 16.5t9 22.5
q11 24 27.5 54.5t35.5 61t36.5 55t30.5 36.5q17 19 29.5 22.5t27.5 -11.5q7 -7 11 -18t3.5 -20t-6.5 -10q-7 -4 -20 -22.5t-29.5 -43.5t-32.5 -51.5t-28 -47.5q-13 -29 -24 -50.5l-11 -21.5q-1 -3 -2 -5l-2 -4q-15 -31 -25 -56.5t-20 -53.5q-6 -7 -7 -14l-1 -7q-2 1 -3 -4.5
t-4 -12.5q-5 -4 -6 -12.5t-1 -16.5q-7 -18 -13 -43.5t-8.5 -49t-1.5 -36.5q2 -17 15 -30t32 -21q11 -4 19.5 -7t15.5 -3q8 -1 20.5 0.5t34.5 5.5h-1q13 2 27.5 5.5t27.5 6.5q12 2 23 4.5t17 4.5l33 9t16 -1t8.5 -11.5t0.5 -16.5q-2 -5 -17.5 -16.5t-36 -22.5t-39.5 -17
q-20 -9 -49.5 -13.5t-57 -4t-43.5 5.5zM130 -231q-10 0 -14.5 2t-7.5 7q0 7 14 19q18 17 33.5 39.5t17.5 41.5q-1 24 11.5 35t33.5 -1q5 -14 6.5 -27t-6.5 -40q-1 -5 -7.5 -15.5t-14 -20.5t-11.5 -13q-2 -2 -7.5 -6.5t-10.5 -8.5t-8 -6q-3 -1 -5.5 -2.5t-7.5 -2.5t-16 -1z
" />
    <glyph glyph-name="Ldot" unicode="&#x13f;" horiz-adv-x="426" 
d="M209 -46q-40 10 -69 40.5t-40 66.5q-1 13 -2 35t0 40.5t3 21.5q3 2 3 12q-1 4 1.5 13.5t5.5 19.5q5 12 5 19.5t-1 11.5l3 6.5t7 10.5q6 6 5.5 12l-0.5 6q-1 4 2 11t6 11q2 2 5.5 8.5l3.5 6.5q0 3 4.5 16t10.5 28.5t11.5 28.5t8.5 17v2q4 10 11 21q1 5 5 16.5t9 22.5
q11 24 27.5 54.5t35.5 61t36.5 55t30.5 36.5q17 19 29.5 22.5t27.5 -11.5q7 -7 11 -18t3.5 -20t-6.5 -10q-7 -4 -20 -22.5t-29.5 -43.5t-32.5 -51.5t-28 -47.5q-13 -29 -24 -50.5l-11 -21.5q-1 -3 -2 -5l-2 -4q-15 -31 -25 -56.5t-20 -53.5q-6 -7 -7 -14l-1 -7q-2 1 -3 -4.5
t-4 -12.5q-5 -4 -6 -12.5t-1 -16.5q-7 -18 -13 -43.5t-8.5 -49t-1.5 -36.5q2 -17 15 -30t32 -21q11 -4 19.5 -7t15.5 -3q8 -1 20.5 0.5t34.5 5.5h-1q13 2 27.5 5.5t27.5 6.5q12 2 23 4.5t17 4.5l33 9t16 -1t8.5 -11.5t0.5 -16.5q-2 -5 -17.5 -16.5t-36 -22.5t-39.5 -17
q-20 -9 -49.5 -13.5t-57 -4t-43.5 5.5zM394 243q-5 5 -9 16t-5.5 20.5t1.5 9.5q5 1 12.5 9t13 19t4.5 19q0 10 10 12q12 8 26 2.5t24 -21.5q9 -19 5 -34t-22 -37q-15 -20 -30.5 -23t-29.5 8z" />
    <glyph glyph-name="Lslash" unicode="&#x141;" horiz-adv-x="426" 
d="M59 220q-16 8 -11.5 20t37.5 25q10 11 35 26t57.5 30.5t65.5 30.5t60.5 27t41.5 19q23 10 32.5 12t22.5 -1q20 -6 22 -19.5t-19 -21.5q-4 -7 -21 -17t-31 -22q-4 0 -25.5 -8.5t-51 -21.5t-60.5 -27t-55.5 -25t-34.5 -16q-5 -3 -13 -6t-20 -4q-13 -7 -19.5 -6t-12.5 5z
M209 -46q-40 10 -69 40.5t-40 66.5q-1 13 -2 35t0 40.5t3 21.5q3 2 3 12q-1 4 1.5 13.5t5.5 19.5q5 12 5 19.5t-1 11.5l3 6.5t7 10.5q6 6 5.5 12l-0.5 6q-1 4 2 11t6 11q2 2 5.5 8.5l3.5 6.5q0 3 4.5 16t10.5 28.5t11.5 28.5t8.5 17v2q4 10 11 21q1 5 5 16.5t9 22.5
q11 24 27.5 54.5t35.5 61t36.5 55t30.5 36.5q17 19 29.5 22.5t27.5 -11.5q7 -7 11 -18t3.5 -20t-6.5 -10q-7 -4 -20 -22.5t-29.5 -43.5t-32.5 -51.5t-28 -47.5q-13 -29 -24 -50.5l-11 -21.5q-1 -3 -2 -5l-2 -4q-15 -31 -25 -56.5t-20 -53.5q-6 -7 -7 -14l-1 -7q-2 1 -3 -4.5
t-4 -12.5q-5 -4 -6 -12.5t-1 -16.5q-7 -18 -13 -43.5t-8.5 -49t-1.5 -36.5q2 -17 15 -30t32 -21q11 -4 19.5 -7t15.5 -3q8 -1 20.5 0.5t34.5 5.5h-1q13 2 27.5 5.5t27.5 6.5q12 2 23 4.5t17 4.5l33 9t16 -1t8.5 -11.5t0.5 -16.5q-2 -5 -17.5 -16.5t-36 -22.5t-39.5 -17
q-20 -9 -49.5 -13.5t-57 -4t-43.5 5.5z" />
    <glyph glyph-name="M" unicode="M" horiz-adv-x="723" 
d="M666 -48q-2 -5 -14 -3t-21 14q-7 18 -7.5 34.5t0.5 48.5q6 35 17.5 91.5t27 127t33.5 146.5q11 39 17.5 69t10 48.5l3.5 18.5q0 1 -4 -3.5t-8 -9.5t-3 -9l-6 -9t-17 -26q-9 -10 -21 -35.5t-29 -51.5q-16 -30 -34.5 -66t-32.5 -59q-8 -12 -16 -26t-10 -19
q-4 -11 -13.5 -27t-21.5 -31q-6 -9 -13.5 -19t-12 -17.5l-4.5 -7.5q-1 -4 -11 -18.5t-24 -31.5t-27 -30q-35 -34 -56.5 -41t-48.5 17q-13 16 -20 35.5t-6 49.5t8 78q7 34 14 70t13.5 68.5t12 55.5t8.5 31q2 22 -0.5 24t-11.5 -12q-5 -8 -22.5 -38t-40.5 -72.5t-45 -89.5
q-41 -76 -68 -126t-43 -79.5t-24 -44t-11.5 -20t-5.5 -7.5q-11 0 -21 9.5t-19 22.5q-3 8 -3 16t5.5 21.5t15.5 37.5q13 26 24.5 45t16.5 23q5 8 8.5 16t4.5 18q5 6 15.5 24.5t21.5 40.5q8 13 21 35t28 48t26 49q45 79 75 131t45 67q5 5 10.5 15.5t7.5 17.5q4 24 14.5 41.5
t20.5 16.5q9 0 18.5 -3.5t19.5 -14.5q9 -12 16.5 -27t0.5 -51q0 -15 -3.5 -34t-6.5 -36t-5 -27q-11 -41 -21.5 -87t-19.5 -90.5t-14.5 -81t-7 -60.5t2.5 -28q5 -3 10.5 0t14.5 20q6 11 16 25t21 28q11 17 28 44.5t43 70t62 104.5t85 147q23 35 43.5 69t34.5 47q15 14 32.5 8
t31.5 -26t15 -50q1 -14 -4 -46.5t-15 -73.5t-24 -83q-3 -17 -9.5 -43.5t-14.5 -54t-16 -51.5q-5 -33 -11 -61t-5 -44q-9 -16 -12 -46t-3 -62q-4 -39 -9.5 -55t-9.5 -15q-12 4 -13 -5z" />
    <glyph glyph-name="N" unicode="N" horiz-adv-x="606" 
d="M101 -70q-13 11 -17.5 21t-2 23t7.5 32q8 32 17.5 53.5t19 45t16.5 60.5q16 37 28.5 70t19.5 54l7 21q1 4 8.5 21t20 41.5t23.5 49.5q17 48 29 82.5t24.5 62t30.5 54.5q12 21 30 26.5t34 -2t22 -27.5q5 -10 8.5 -23.5t7 -39.5t4.5 -74q2 -57 1.5 -110t1.5 -97.5t11 -77.5
q3 -18 7.5 -43.5t10 -50.5t11.5 -42t10 -17q5 0 12.5 11.5t20.5 43.5t31 93t42 159q5 17 13.5 55t12.5 77q7 25 14 55t12.5 53t5.5 26q0 7 0.5 12t-0.5 10q5 0 9 13.5t4 23.5q0 17 4.5 27.5t9.5 15.5q6 12 20 12t27 -7.5t16 -19.5q2 -11 -5.5 -49.5t-22.5 -103.5
q0 -11 -6 -36t-12.5 -53t-9.5 -48q-4 -26 -9 -48.5t-10 -21.5q-26 -113 -54.5 -192.5t-50.5 -129.5q-24 -55 -55.5 -68t-63.5 28q-19 26 -31 51.5t-19 60t-16 85.5q-12 41 -14.5 82.5t-0.5 85.5t4 92q-1 51 -4.5 65t-12.5 -4.5t-26 -66.5q-7 -19 -18 -45.5t-21.5 -52.5
t-18.5 -45t-10 -24q-6 -12 -14 -31.5t-13 -41.5q-36 -94 -53.5 -154t-25.5 -82q-10 -28 -20 -36t-32 10z" />
    <glyph glyph-name="Nacute" unicode="&#x143;" horiz-adv-x="566" 
d="M100 -70q-13 11 -17.5 21t-2 23t7.5 32q8 32 17.5 53.5t19 45t16.5 60.5q16 37 28.5 70t19.5 54l7 21q1 4 8.5 21t20 41.5t23.5 49.5q17 48 29 82.5t24.5 62t30.5 54.5q12 21 30 26.5t34 -2t22 -27.5q5 -10 8.5 -23.5t7 -39.5t4.5 -74q2 -57 1.5 -110t1.5 -97.5t11 -77.5
q3 -18 7.5 -43.5t10 -50.5t11.5 -42t10 -17q5 0 12.5 11.5t20.5 43.5t31 93t42 159q5 17 13.5 55t12.5 77q7 25 14 55t12.5 53t5.5 26q0 7 0.5 12t-0.5 10q5 0 9 13.5t4 23.5q0 17 4.5 27.5t9.5 15.5q6 12 20 12t27 -7.5t16 -19.5q2 -11 -5.5 -49.5t-22.5 -103.5
q0 -11 -6 -36t-12.5 -53t-9.5 -48q-4 -26 -9 -48.5t-10 -21.5q-26 -113 -54.5 -192.5t-50.5 -129.5q-24 -55 -55.5 -68t-63.5 28q-19 26 -31 51.5t-19 60t-16 85.5q-12 41 -14.5 82.5t-0.5 85.5t4 92q-1 51 -4.5 65t-12.5 -4.5t-26 -66.5q-7 -19 -18 -45.5t-21.5 -52.5
t-18.5 -45t-10 -24q-6 -12 -14 -31.5t-13 -41.5q-36 -94 -53.5 -154t-25.5 -82q-10 -28 -20 -36t-32 10zM457 714q-7 7 -10.5 20t-2.5 24q1 5 13.5 20t29.5 33t33.5 32.5t24.5 17.5q12 7 23.5 -4.5t18.5 -29.5q3 -9 -8 -21.5t-28 -26.5t-33 -27.5t-24 -24.5
q-10 -16 -17.5 -18.5t-19.5 5.5z" />
    <glyph glyph-name="Ncaron" unicode="&#x147;" horiz-adv-x="566" 
d="M100 -70q-13 11 -17.5 21t-2 23t7.5 32q8 32 17.5 53.5t19 45t16.5 60.5q16 37 28.5 70t19.5 54l7 21q1 4 8.5 21t20 41.5t23.5 49.5q17 48 29 82.5t24.5 62t30.5 54.5q12 21 30 26.5t34 -2t22 -27.5q5 -10 8.5 -23.5t7 -39.5t4.5 -74q2 -57 1.5 -110t1.5 -97.5t11 -77.5
q3 -18 7.5 -43.5t10 -50.5t11.5 -42t10 -17q5 0 12.5 11.5t20.5 43.5t31 93t42 159q5 17 13.5 55t12.5 77q7 25 14 55t12.5 53t5.5 26q0 7 0.5 12t-0.5 10q5 0 9 13.5t4 23.5q0 17 4.5 27.5t9.5 15.5q6 12 20 12t27 -7.5t16 -19.5q2 -11 -5.5 -49.5t-22.5 -103.5
q0 -11 -6 -36t-12.5 -53t-9.5 -48q-4 -26 -9 -48.5t-10 -21.5q-26 -113 -54.5 -192.5t-50.5 -129.5q-24 -55 -55.5 -68t-63.5 28q-19 26 -31 51.5t-19 60t-16 85.5q-12 41 -14.5 82.5t-0.5 85.5t4 92q-1 51 -4.5 65t-12.5 -4.5t-26 -66.5q-7 -19 -18 -45.5t-21.5 -52.5
t-18.5 -45t-10 -24q-6 -12 -14 -31.5t-13 -41.5q-36 -94 -53.5 -154t-25.5 -82q-10 -28 -20 -36t-32 10zM510 719q-8 -6 -17 -6.5t-17 8.5q-12 10 -30.5 28t-34.5 34t-19 21q-3 12 2.5 25t18 15.5t28.5 -16.5q7 -10 23 -23.5t32 -27.5q12 7 27.5 17t29 20t20.5 16
q22 15 33 11.5t13.5 -15.5t-1.5 -21q-1 -4 -14 -16t-30.5 -26t-34.5 -26t-29 -18z" />
    <glyph glyph-name="uni0145" unicode="&#x145;" horiz-adv-x="566" 
d="M100 -70q-13 11 -17.5 21t-2 23t7.5 32q8 32 17.5 53.5t19 45t16.5 60.5q16 37 28.5 70t19.5 54l7 21q1 4 8.5 21t20 41.5t23.5 49.5q17 48 29 82.5t24.5 62t30.5 54.5q12 21 30 26.5t34 -2t22 -27.5q5 -10 8.5 -23.5t7 -39.5t4.5 -74q2 -57 1.5 -110t1.5 -97.5t11 -77.5
q3 -18 7.5 -43.5t10 -50.5t11.5 -42t10 -17q5 0 12.5 11.5t20.5 43.5t31 93t42 159q5 17 13.5 55t12.5 77q7 25 14 55t12.5 53t5.5 26q0 7 0.5 12t-0.5 10q5 0 9 13.5t4 23.5q0 17 4.5 27.5t9.5 15.5q6 12 20 12t27 -7.5t16 -19.5q2 -11 -5.5 -49.5t-22.5 -103.5
q0 -11 -6 -36t-12.5 -53t-9.5 -48q-4 -26 -9 -48.5t-10 -21.5q-26 -113 -54.5 -192.5t-50.5 -129.5q-24 -55 -55.5 -68t-63.5 28q-19 26 -31 51.5t-19 60t-16 85.5q-12 41 -14.5 82.5t-0.5 85.5t4 92q-1 51 -4.5 65t-12.5 -4.5t-26 -66.5q-7 -19 -18 -45.5t-21.5 -52.5
t-18.5 -45t-10 -24q-6 -12 -14 -31.5t-13 -41.5q-36 -94 -53.5 -154t-25.5 -82q-10 -28 -20 -36t-32 10zM204 -186q-10 0 -14.5 2t-7.5 7q0 7 14 19q18 17 33.5 39.5t17.5 41.5q-1 24 11.5 35t33.5 -1q5 -14 6.5 -27t-6.5 -40q-1 -5 -7.5 -15.5t-14 -20.5t-11.5 -13
q-2 -2 -7.5 -6.5t-10.5 -8.5t-8 -6q-3 -1 -5.5 -2.5t-7.5 -2.5t-16 -1z" />
    <glyph glyph-name="uni1E44" unicode="&#x1e44;" horiz-adv-x="566" 
d="M100 -70q-13 11 -17.5 21t-2 23t7.5 32q8 32 17.5 53.5t19 45t16.5 60.5q16 37 28.5 70t19.5 54l7 21q1 4 8.5 21t20 41.5t23.5 49.5q17 48 29 82.5t24.5 62t30.5 54.5q12 21 30 26.5t34 -2t22 -27.5q5 -10 8.5 -23.5t7 -39.5t4.5 -74q2 -57 1.5 -110t1.5 -97.5t11 -77.5
q3 -18 7.5 -43.5t10 -50.5t11.5 -42t10 -17q5 0 12.5 11.5t20.5 43.5t31 93t42 159q5 17 13.5 55t12.5 77q7 25 14 55t12.5 53t5.5 26q0 7 0.5 12t-0.5 10q5 0 9 13.5t4 23.5q0 17 4.5 27.5t9.5 15.5q6 12 20 12t27 -7.5t16 -19.5q2 -11 -5.5 -49.5t-22.5 -103.5
q0 -11 -6 -36t-12.5 -53t-9.5 -48q-4 -26 -9 -48.5t-10 -21.5q-26 -113 -54.5 -192.5t-50.5 -129.5q-24 -55 -55.5 -68t-63.5 28q-19 26 -31 51.5t-19 60t-16 85.5q-12 41 -14.5 82.5t-0.5 85.5t4 92q-1 51 -4.5 65t-12.5 -4.5t-26 -66.5q-7 -19 -18 -45.5t-21.5 -52.5
t-18.5 -45t-10 -24q-6 -12 -14 -31.5t-13 -41.5q-36 -94 -53.5 -154t-25.5 -82q-10 -28 -20 -36t-32 10zM475 737q-7 7 -12 21t-4 21q2 5 8.5 22.5t20.5 29.5q3 2 6.5 6.5t7.5 5.5q12 8 24 4t25 -21q11 -23 6.5 -37t-23.5 -37q-15 -20 -28.5 -24t-30.5 9z" />
    <glyph glyph-name="Eng" unicode="&#x14a;" horiz-adv-x="566" 
d="M367 -156q-15 -13 -39.5 -16.5t-48.5 3t-39 24.5q-5 15 -0.5 25.5t14.5 14t22 -3.5q11 -3 34 -1.5t36 20.5q9 10 20.5 32.5t24.5 49.5t24 50q-17 14 -31.5 43t-22.5 68q-4 22 -7.5 44t-5.5 54t-4 84q-4 62 -4.5 104t-1.5 46q-1 0 -9.5 -20.5t-21.5 -53t-27 -71
t-27.5 -75.5t-24 -65.5t-14.5 -41.5q-22 -58 -33.5 -94t-13.5 -47q1 -8 -4 -18t-11.5 -17t-12.5 -8q-9 -1 -19.5 7t-18 18t-8.5 15q3 20 15.5 61.5t31 96.5t41 116t45.5 119q21 48 37.5 90.5t27 70.5t10.5 30q5 1 10.5 5.5t9.5 5.5q5 1 8 5t5 6q-1 5 3 10.5t10 5.5
q13 2 22 -6.5t19 -24.5q5 -9 9.5 -18.5t7.5 -29t6 -58.5t4 -107q2 -47 4 -88.5t3 -69t1 -30.5q-2 -3 2.5 -18.5t4.5 -24.5q6 -10 6.5 -16.5t3.5 -6.5l7.5 8.5t14.5 19.5q10 9 15 21.5l5 12.5q5 4 12.5 20.5t15.5 34.5t13 29q3 16 8.5 28t9.5 22q1 2 8 19t15.5 39t14.5 40.5
t6 23.5q5 5 8 17t9 22q-1 9 4 25.5t10 31.5q11 43 20 62t18 19q7 0 16 -8.5t21 -25.5q6 -13 6.5 -17.5t-1.5 -18.5l-34 -98q-7 -26 -19.5 -61.5t-25.5 -71t-24 -62t-16 -34.5l-20 -40q-3 -13 -8.5 -24.5l-5.5 -11.5l-5.5 -7.5t-11.5 -16.5q-3 -9 -11 -19q-1 -6 -2 -12.5
t-3 -12.5q-4 -7 -11 -23t-13 -30.5t-9 -18.5q-1 -4 -4 -7.5t-3 -6.5t-9 -25.5t-26 -51.5q-5 -12 -18 -29.5t-27 -33t-23 -22.5z" />
    <glyph glyph-name="Ntilde" unicode="&#xd1;" horiz-adv-x="566" 
d="M100 -70q-13 11 -17.5 21t-2 23t7.5 32q8 32 17.5 53.5t19 45t16.5 60.5q16 37 28.5 70t19.5 54l7 21q1 4 8.5 21t20 41.5t23.5 49.5q17 48 29 82.5t24.5 62t30.5 54.5q12 21 30 26.5t34 -2t22 -27.5q5 -10 8.5 -23.5t7 -39.5t4.5 -74q2 -57 1.5 -110t1.5 -97.5t11 -77.5
q3 -18 7.5 -43.5t10 -50.5t11.5 -42t10 -17q5 0 12.5 11.5t20.5 43.5t31 93t42 159q5 17 13.5 55t12.5 77q7 25 14 55t12.5 53t5.5 26q0 7 0.5 12t-0.5 10q5 0 9 13.5t4 23.5q0 17 4.5 27.5t9.5 15.5q6 12 20 12t27 -7.5t16 -19.5q2 -11 -5.5 -49.5t-22.5 -103.5
q0 -11 -6 -36t-12.5 -53t-9.5 -48q-4 -26 -9 -48.5t-10 -21.5q-26 -113 -54.5 -192.5t-50.5 -129.5q-24 -55 -55.5 -68t-63.5 28q-19 26 -31 51.5t-19 60t-16 85.5q-12 41 -14.5 82.5t-0.5 85.5t4 92q-1 51 -4.5 65t-12.5 -4.5t-26 -66.5q-7 -19 -18 -45.5t-21.5 -52.5
t-18.5 -45t-10 -24q-6 -12 -14 -31.5t-13 -41.5q-36 -94 -53.5 -154t-25.5 -82q-10 -28 -20 -36t-32 10zM546 728q-18 0 -31.5 7.5t-32.5 21.5q-9 5 -23.5 19.5t-26.5 14.5q-10 0 -16.5 -8t-12.5 -16.5t-17 -10.5q-1 -5 -5.5 -12.5t-8.5 -2.5q-10 3 -16 10.5t-7 16.5
q4 14 19 36t46 38q18 6 38.5 0t36.5 -22q23 -20 35.5 -27.5t31.5 0.5q15 4 31.5 15t37.5 19q7 3 13.5 -2t10 -13t2.5 -14t-8 -16.5t-16 -15.5q-30 -17 -46.5 -25t-23.5 -10.5t-11 -2.5z" />
    <glyph glyph-name="O" unicode="O" horiz-adv-x="499" 
d="M179 -25q-37 28 -51 46t-16 40q-2 18 0.5 49t6.5 61t7 45q5 5 4.5 13.5l-0.5 8.5q-1 5 7 26.5t15 55.5q20 60 38.5 100.5t36.5 69.5t36 53q41 42 70 64.5t60 36.5q20 12 37 19t28 2q56 -12 87.5 -46.5t44.5 -104.5q7 -44 8.5 -79.5t-5.5 -70t-25.5 -75.5t-51.5 -96
q-37 -73 -82 -125t-91.5 -81t-89.5 -32.5t-74 20.5zM248 16q23 3 42 12.5t39.5 29.5t49.5 53q26 30 43 50.5t29 42t22.5 51.5t24.5 78q8 30 12 48.5t5 33.5t0.5 36t-0.5 57q-1 17 -7 36.5t-14 28.5q-10 11 -28.5 16.5t-40.5 -4.5q-12 -5 -31 -21.5t-39 -39t-38 -45.5
t-29 -41t-11 -25l-0.5 -5t-4.5 -10q-13 -14 -28 -48.5t-28.5 -78.5t-22.5 -87.5t-11 -76.5q-1 -23 -1 -33.5t3.5 -17t11.5 -19.5q6 -10 21.5 -17t30.5 -4z" />
    <glyph glyph-name="Oacute" unicode="&#xd3;" horiz-adv-x="496" 
d="M178 -25q-37 28 -51 46t-16 40q-2 18 0.5 49t6.5 61t7 45q5 5 4.5 13.5l-0.5 8.5q-1 5 7 26.5t15 55.5q20 60 38.5 100.5t36.5 69.5t36 53q41 42 70 64.5t60 36.5q20 12 37 19t28 2q56 -12 87.5 -46.5t44.5 -104.5q7 -44 8.5 -79.5t-5.5 -70t-25.5 -75.5t-51.5 -96
q-37 -73 -82 -125t-91.5 -81t-89.5 -32.5t-74 20.5zM247 16q23 3 42 12.5t39.5 29.5t49.5 53q26 30 43 50.5t29 42t22.5 51.5t24.5 78q8 30 12 48.5t5 33.5t0.5 36t-0.5 57q-1 17 -7 36.5t-14 28.5q-10 11 -28.5 16.5t-40.5 -4.5q-12 -5 -31 -21.5t-39 -39t-38 -45.5
t-29 -41t-11 -25l-0.5 -5t-4.5 -10q-13 -14 -28 -48.5t-28.5 -78.5t-22.5 -87.5t-11 -76.5q-1 -23 -1 -33.5t3.5 -17t11.5 -19.5q6 -10 21.5 -17t30.5 -4zM477 714q-7 7 -10.5 20t-2.5 24q1 5 13.5 20t29.5 33t33.5 32.5t24.5 17.5q12 7 23.5 -4.5t18.5 -29.5q3 -9 -8 -21.5
t-28 -26.5t-33 -27.5t-24 -24.5q-10 -16 -17.5 -18.5t-19.5 5.5z" />
    <glyph glyph-name="Obreve" unicode="&#x14e;" horiz-adv-x="496" 
d="M178 -25q-37 28 -51 46t-16 40q-2 18 0.5 49t6.5 61t7 45q5 5 4.5 13.5l-0.5 8.5q-1 5 7 26.5t15 55.5q20 60 38.5 100.5t36.5 69.5t36 53q41 42 70 64.5t60 36.5q20 12 37 19t28 2q56 -12 87.5 -46.5t44.5 -104.5q7 -44 8.5 -79.5t-5.5 -70t-25.5 -75.5t-51.5 -96
q-37 -73 -82 -125t-91.5 -81t-89.5 -32.5t-74 20.5zM247 16q23 3 42 12.5t39.5 29.5t49.5 53q26 30 43 50.5t29 42t22.5 51.5t24.5 78q8 30 12 48.5t5 33.5t0.5 36t-0.5 57q-1 17 -7 36.5t-14 28.5q-10 11 -28.5 16.5t-40.5 -4.5q-12 -5 -31 -21.5t-39 -39t-38 -45.5
t-29 -41t-11 -25l-0.5 -5t-4.5 -10q-13 -14 -28 -48.5t-28.5 -78.5t-22.5 -87.5t-11 -76.5q-1 -23 -1 -33.5t3.5 -17t11.5 -19.5q6 -10 21.5 -17t30.5 -4zM511 701q-32 3 -55.5 16.5t-33.5 37.5t-4 57q4 21 14.5 31t21 10t17 -9t1.5 -26q-3 -11 -1.5 -27t13.5 -27t42 -10
q13 1 26.5 11.5t24.5 25.5t17 25q13 22 23.5 27.5t18 -0.5t10.5 -17t1 -20q-4 -13 -15 -31.5t-29 -36t-41.5 -28.5t-50.5 -9z" />
    <glyph glyph-name="Ocircumflex" unicode="&#xd4;" horiz-adv-x="496" 
d="M178 -25q-37 28 -51 46t-16 40q-2 18 0.5 49t6.5 61t7 45q5 5 4.5 13.5l-0.5 8.5q-1 5 7 26.5t15 55.5q20 60 38.5 100.5t36.5 69.5t36 53q41 42 70 64.5t60 36.5q20 12 37 19t28 2q56 -12 87.5 -46.5t44.5 -104.5q7 -44 8.5 -79.5t-5.5 -70t-25.5 -75.5t-51.5 -96
q-37 -73 -82 -125t-91.5 -81t-89.5 -32.5t-74 20.5zM247 16q23 3 42 12.5t39.5 29.5t49.5 53q26 30 43 50.5t29 42t22.5 51.5t24.5 78q8 30 12 48.5t5 33.5t0.5 36t-0.5 57q-1 17 -7 36.5t-14 28.5q-10 11 -28.5 16.5t-40.5 -4.5q-12 -5 -31 -21.5t-39 -39t-38 -45.5
t-29 -41t-11 -25l-0.5 -5t-4.5 -10q-13 -14 -28 -48.5t-28.5 -78.5t-22.5 -87.5t-11 -76.5q-1 -23 -1 -33.5t3.5 -17t11.5 -19.5q6 -10 21.5 -17t30.5 -4zM465 729q-17 -17 -29.5 -13.5t-16 17.5t6.5 28q3 4 14.5 14.5t27 24t31 25t25.5 17.5q10 9 20 8t16 -10
q12 -10 29.5 -27.5t32.5 -33t19 -20.5q6 -9 4.5 -20.5t-9 -19t-18.5 -5t-25 18.5q-7 8 -22.5 23.5t-30.5 28.5q-12 -7 -27 -18t-28 -21.5t-20 -16.5z" />
    <glyph glyph-name="uni020C" unicode="&#x20c;" horiz-adv-x="496" 
d="M178 -25q-37 28 -51 46t-16 40q-2 18 0.5 49t6.5 61t7 45q5 5 4.5 13.5l-0.5 8.5q-1 5 7 26.5t15 55.5q20 60 38.5 100.5t36.5 69.5t36 53q41 42 70 64.5t60 36.5q20 12 37 19t28 2q56 -12 87.5 -46.5t44.5 -104.5q7 -44 8.5 -79.5t-5.5 -70t-25.5 -75.5t-51.5 -96
q-37 -73 -82 -125t-91.5 -81t-89.5 -32.5t-74 20.5zM247 16q23 3 42 12.5t39.5 29.5t49.5 53q26 30 43 50.5t29 42t22.5 51.5t24.5 78q8 30 12 48.5t5 33.5t0.5 36t-0.5 57q-1 17 -7 36.5t-14 28.5q-10 11 -28.5 16.5t-40.5 -4.5q-12 -5 -31 -21.5t-39 -39t-38 -45.5
t-29 -41t-11 -25l-0.5 -5t-4.5 -10q-13 -14 -28 -48.5t-28.5 -78.5t-22.5 -87.5t-11 -76.5q-1 -23 -1 -33.5t3.5 -17t11.5 -19.5q6 -10 21.5 -17t30.5 -4zM425 714q-10 -5 -15 -0.5t-11 23.5q-5 12 -16.5 27.5t-22.5 32t-16.5 29.5t-0.5 20q11 14 23 20.5t20 0.5
q8 -5 19 -22t21.5 -37.5t18 -36.5t7.5 -19q1 -4 -4 -11.5t-11 -15t-12 -11.5zM545 715q-11 -5 -15.5 -1.5t-10.5 22.5q-7 13 -18 29l-22 32t-16.5 29t-0.5 19q14 17 25 22t18 0q7 -4 17.5 -20t21.5 -36t18.5 -36.5t8.5 -23.5q1 -3 -6.5 -15.5t-19.5 -20.5z" />
    <glyph glyph-name="Odieresis" unicode="&#xd6;" horiz-adv-x="496" 
d="M178 -25q-37 28 -51 46t-16 40q-2 18 0.5 49t6.5 61t7 45q5 5 4.5 13.5l-0.5 8.5q-1 5 7 26.5t15 55.5q20 60 38.5 100.5t36.5 69.5t36 53q41 42 70 64.5t60 36.5q20 12 37 19t28 2q56 -12 87.5 -46.5t44.5 -104.5q7 -44 8.5 -79.5t-5.5 -70t-25.5 -75.5t-51.5 -96
q-37 -73 -82 -125t-91.5 -81t-89.5 -32.5t-74 20.5zM247 16q23 3 42 12.5t39.5 29.5t49.5 53q26 30 43 50.5t29 42t22.5 51.5t24.5 78q8 30 12 48.5t5 33.5t0.5 36t-0.5 57q-1 17 -7 36.5t-14 28.5q-10 11 -28.5 16.5t-40.5 -4.5q-12 -5 -31 -21.5t-39 -39t-38 -45.5
t-29 -41t-11 -25l-0.5 -5t-4.5 -10q-13 -14 -28 -48.5t-28.5 -78.5t-22.5 -87.5t-11 -76.5q-1 -23 -1 -33.5t3.5 -17t11.5 -19.5q6 -10 21.5 -17t30.5 -4zM569 749q-7 7 -11.5 19t-3.5 16q2 5 7.5 20t11.5 20q4 4 10 11t10 8q12 10 24.5 4t18.5 -22q12 -17 7.5 -31.5
t-19.5 -32.5q-17 -24 -30.5 -24.5t-24.5 12.5zM435 745q-9 8 -14.5 21t-4.5 18q2 8 9.5 24t14.5 22q3 2 7.5 7t8.5 6q10 7 19 4.5t16 -10t10 -18.5q8 -14 4.5 -26.5t-17.5 -29.5q-16 -21 -29 -25t-24 7z" />
    <glyph glyph-name="uni1ECC" unicode="&#x1ecc;" horiz-adv-x="496" 
d="M178 -25q-37 28 -51 46t-16 40q-2 18 0.5 49t6.5 61t7 45q5 5 4.5 13.5l-0.5 8.5q-1 5 7 26.5t15 55.5q20 60 38.5 100.5t36.5 69.5t36 53q41 42 70 64.5t60 36.5q20 12 37 19t28 2q56 -12 87.5 -46.5t44.5 -104.5q7 -44 8.5 -79.5t-5.5 -70t-25.5 -75.5t-51.5 -96
q-37 -73 -82 -125t-91.5 -81t-89.5 -32.5t-74 20.5zM247 16q23 3 42 12.5t39.5 29.5t49.5 53q26 30 43 50.5t29 42t22.5 51.5t24.5 78q8 30 12 48.5t5 33.5t0.5 36t-0.5 57q-1 17 -7 36.5t-14 28.5q-10 11 -28.5 16.5t-40.5 -4.5q-12 -5 -31 -21.5t-39 -39t-38 -45.5
t-29 -41t-11 -25l-0.5 -5t-4.5 -10q-13 -14 -28 -48.5t-28.5 -78.5t-22.5 -87.5t-11 -76.5q-1 -23 -1 -33.5t3.5 -17t11.5 -19.5q6 -10 21.5 -17t30.5 -4zM163 -177q-9 9 -13 18.5t-3 14.5q3 9 9.5 24t12.5 19q5 4 9 7.5t8 4.5q12 8 23 3t18 -20q10 -16 7.5 -27.5
t-15.5 -27.5q-20 -23 -32.5 -25.5t-23.5 9.5z" />
    <glyph glyph-name="Ograve" unicode="&#xd2;" horiz-adv-x="496" 
d="M178 -25q-37 28 -51 46t-16 40q-2 18 0.5 49t6.5 61t7 45q5 5 4.5 13.5l-0.5 8.5q-1 5 7 26.5t15 55.5q20 60 38.5 100.5t36.5 69.5t36 53q41 42 70 64.5t60 36.5q20 12 37 19t28 2q56 -12 87.5 -46.5t44.5 -104.5q7 -44 8.5 -79.5t-5.5 -70t-25.5 -75.5t-51.5 -96
q-37 -73 -82 -125t-91.5 -81t-89.5 -32.5t-74 20.5zM247 16q23 3 42 12.5t39.5 29.5t49.5 53q26 30 43 50.5t29 42t22.5 51.5t24.5 78q8 30 12 48.5t5 33.5t0.5 36t-0.5 57q-1 17 -7 36.5t-14 28.5q-10 11 -28.5 16.5t-40.5 -4.5q-12 -5 -31 -21.5t-39 -39t-38 -45.5
t-29 -41t-11 -25l-0.5 -5t-4.5 -10q-13 -14 -28 -48.5t-28.5 -78.5t-22.5 -87.5t-11 -76.5q-1 -23 -1 -33.5t3.5 -17t11.5 -19.5q6 -10 21.5 -17t30.5 -4zM544 709q-9 -6 -13 -3.5t-7 11t-8 19.5q-8 17 -23.5 39.5t-24 43.5t0.5 33q16 15 26 19t20 -7q7 -4 16.5 -21
t19 -38.5t16 -39.5t6.5 -24q1 -4 -8.5 -16.5t-20.5 -15.5z" />
    <glyph glyph-name="Ohungarumlaut" unicode="&#x150;" horiz-adv-x="496" 
d="M178 -25q-37 28 -51 46t-16 40q-2 18 0.5 49t6.5 61t7 45q5 5 4.5 13.5l-0.5 8.5q-1 5 7 26.5t15 55.5q20 60 38.5 100.5t36.5 69.5t36 53q41 42 70 64.5t60 36.5q20 12 37 19t28 2q56 -12 87.5 -46.5t44.5 -104.5q7 -44 8.5 -79.5t-5.5 -70t-25.5 -75.5t-51.5 -96
q-37 -73 -82 -125t-91.5 -81t-89.5 -32.5t-74 20.5zM247 16q23 3 42 12.5t39.5 29.5t49.5 53q26 30 43 50.5t29 42t22.5 51.5t24.5 78q8 30 12 48.5t5 33.5t0.5 36t-0.5 57q-1 17 -7 36.5t-14 28.5q-10 11 -28.5 16.5t-40.5 -4.5q-12 -5 -31 -21.5t-39 -39t-38 -45.5
t-29 -41t-11 -25l-0.5 -5t-4.5 -10q-13 -14 -28 -48.5t-28.5 -78.5t-22.5 -87.5t-11 -76.5q-1 -23 -1 -33.5t3.5 -17t11.5 -19.5q6 -10 21.5 -17t30.5 -4zM411 717q-7 6 -10 20t-2 23q2 4 13 17.5t26 30t29.5 29.5t21.5 16q12 6 21.5 -3t17.5 -28q3 -7 -4 -16.5t-19.5 -21
t-27 -24t-27.5 -25.5q-7 -8 -12 -14t-10.5 -7.5t-16.5 3.5zM557 718q-7 7 -10.5 22t-2.5 20q1 3 12 16.5t27 30t30 30t21 16.5q11 5 21.5 -2.5t18.5 -29.5q3 -7 -7 -18.5t-25 -25t-29.5 -25.5t-21.5 -22q-10 -15 -17.5 -17t-16.5 5z" />
    <glyph glyph-name="uni020E" unicode="&#x20e;" horiz-adv-x="496" 
d="M178 -25q-37 28 -51 46t-16 40q-2 18 0.5 49t6.5 61t7 45q5 5 4.5 13.5l-0.5 8.5q-1 5 7 26.5t15 55.5q20 60 38.5 100.5t36.5 69.5t36 53q41 42 70 64.5t60 36.5q20 12 37 19t28 2q56 -12 87.5 -46.5t44.5 -104.5q7 -44 8.5 -79.5t-5.5 -70t-25.5 -75.5t-51.5 -96
q-37 -73 -82 -125t-91.5 -81t-89.5 -32.5t-74 20.5zM247 16q23 3 42 12.5t39.5 29.5t49.5 53q26 30 43 50.5t29 42t22.5 51.5t24.5 78q8 30 12 48.5t5 33.5t0.5 36t-0.5 57q-1 17 -7 36.5t-14 28.5q-10 11 -28.5 16.5t-40.5 -4.5q-12 -5 -31 -21.5t-39 -39t-38 -45.5
t-29 -41t-11 -25l-0.5 -5t-4.5 -10q-13 -14 -28 -48.5t-28.5 -78.5t-22.5 -87.5t-11 -76.5q-1 -23 -1 -33.5t3.5 -17t11.5 -19.5q6 -10 21.5 -17t30.5 -4zM561 733q3 12 2.5 28t-11.5 27.5t-40 10.5q-13 1 -27.5 -10t-27.5 -26.5t-22 -31.5q-14 -24 -26 -24.5t-18 12.5
t-5 28q5 12 17 30.5t30.5 36.5t41.5 29t48 9q36 -3 59 -19t32 -40t3 -53q-6 -28 -21.5 -36.5t-27 -0.5t-7.5 30z" />
    <glyph glyph-name="Omacron" unicode="&#x14c;" horiz-adv-x="496" 
d="M178 -25q-37 28 -51 46t-16 40q-2 18 0.5 49t6.5 61t7 45q5 5 4.5 13.5l-0.5 8.5q-1 5 7 26.5t15 55.5q20 60 38.5 100.5t36.5 69.5t36 53q41 42 70 64.5t60 36.5q20 12 37 19t28 2q56 -12 87.5 -46.5t44.5 -104.5q7 -44 8.5 -79.5t-5.5 -70t-25.5 -75.5t-51.5 -96
q-37 -73 -82 -125t-91.5 -81t-89.5 -32.5t-74 20.5zM247 16q23 3 42 12.5t39.5 29.5t49.5 53q26 30 43 50.5t29 42t22.5 51.5t24.5 78q8 30 12 48.5t5 33.5t0.5 36t-0.5 57q-1 17 -7 36.5t-14 28.5q-10 11 -28.5 16.5t-40.5 -4.5q-12 -5 -31 -21.5t-39 -39t-38 -45.5
t-29 -41t-11 -25l-0.5 -5t-4.5 -10q-13 -14 -28 -48.5t-28.5 -78.5t-22.5 -87.5t-11 -76.5q-1 -23 -1 -33.5t3.5 -17t11.5 -19.5q6 -10 21.5 -17t30.5 -4zM452 761q-7 0 -16.5 1t-18.5 4q-15 0 -20.5 3t-10.5 12q-9 15 0.5 21t43.5 10q33 5 66.5 8.5t69.5 3.5q25 0 44 -3
t30 -12q13 -14 9.5 -27.5t-24.5 -12.5q-6 0 -20.5 -1t-31 -1.5t-28.5 -0.5q-7 -1 -22 -2t-34 -2t-37 -1z" />
    <glyph glyph-name="uni01EA" unicode="&#x1ea;" horiz-adv-x="496" 
d="M178 -25q-37 28 -51 46t-16 40q-2 18 0.5 49t6.5 61t7 45q5 5 4.5 13.5l-0.5 8.5q-1 5 7 26.5t15 55.5q20 60 38.5 100.5t36.5 69.5t36 53q41 42 70 64.5t60 36.5q20 12 37 19t28 2q56 -12 87.5 -46.5t44.5 -104.5q7 -44 8.5 -79.5t-5.5 -70t-25.5 -75.5t-51.5 -96
q-37 -73 -82 -125t-91.5 -81t-89.5 -32.5t-74 20.5zM247 16q23 3 42 12.5t39.5 29.5t49.5 53q26 30 43 50.5t29 42t22.5 51.5t24.5 78q8 30 12 48.5t5 33.5t0.5 36t-0.5 57q-1 17 -7 36.5t-14 28.5q-10 11 -28.5 16.5t-40.5 -4.5q-12 -5 -31 -21.5t-39 -39t-38 -45.5
t-29 -41t-11 -25l-0.5 -5t-4.5 -10q-13 -14 -28 -48.5t-28.5 -78.5t-22.5 -87.5t-11 -76.5q-1 -23 -1 -33.5t3.5 -17t11.5 -19.5q6 -10 21.5 -17t30.5 -4zM165 -219q-20 6 -36 21.5t-21.5 37.5t6.5 44q12 23 34.5 46.5t48.5 44.5t48 35l38 -30q-22 -13 -52.5 -38.5
t-48.5 -47.5q-14 -17 -19.5 -30.5t1.5 -24.5q3 -6 18 -6q23 4 39 14t41 22q13 7 20 3t8.5 -14t-3 -20t-16.5 -15q-4 -1 -17 -7.5t-29.5 -13.5t-32.5 -13t-27 -8z" />
    <glyph glyph-name="Oslash" unicode="&#xd8;" horiz-adv-x="496" 
d="M129 -81q-20 1 -29 16t-2 43t32 68q8 11 14.5 20.5t8.5 16.5q4 6 19.5 30t38.5 57.5t48 70t47 69t37.5 54t17.5 23.5q4 -1 9 4.5t7 12.5q3 8 9 16.5t11 9.5q2 5 6.5 10.5t5.5 9.5t4.5 7t4.5 7q10 10 30 34t43 53.5t45 58t36.5 48.5t16.5 25q5 15 21 9q3 2 10.5 2t11.5 -1
l2 -4.5t8 -15.5q6 -10 5 -20t-6 -21q-4 -13 -10.5 -22t-22 -24t-45.5 -47q-15 -17 -28 -29.5t-13 -16.5q-2 -4 -6.5 -9t-11.5 -16q-6 -6 -18 -19t-24 -28t-21 -26t-9 -13q-2 -3 -3.5 -7t-7.5 -6q-3 2 -5.5 -3.5l-2.5 -5.5q0 -4 -8.5 -16.5t-22.5 -29.5q-11 -16 -31 -45.5
t-45 -67.5t-51 -77t-48.5 -74.5t-37.5 -60t-18 -33.5q-7 -22 -10.5 -28.5t-11.5 -8.5zM176 -25q-37 28 -51 46t-16 40q-2 18 0.5 49t6.5 61t7 45q5 5 4.5 13.5l-0.5 8.5q-1 5 7 26.5t15 55.5q20 60 38.5 100.5t36.5 69.5t36 53q41 42 70 64.5t60 36.5q20 12 37 19t28 2
q56 -12 87.5 -46.5t44.5 -104.5q7 -44 8.5 -79.5t-5.5 -70t-25.5 -75.5t-51.5 -96q-37 -73 -82 -125t-91.5 -81t-89.5 -32.5t-74 20.5zM245 16q23 3 42 12.5t39.5 29.5t49.5 53q26 30 43 50.5t28.5 42t22.5 51.5t25 78q8 30 12 48.5t5 33.5t0.5 36t-0.5 57q-1 17 -7 36.5
t-14 28.5q-10 11 -29 16.5t-41 -4.5q-12 -5 -30.5 -21.5t-39 -39t-38.5 -45.5t-29 -41t-11 -25l-0.5 -5t-4.5 -10q-13 -14 -28 -48.5t-28 -78.5t-22 -87.5t-11 -76.5q-2 -23 -2 -33.5t3.5 -17t11.5 -19.5q6 -10 22 -17t31 -4z" />
    <glyph glyph-name="Oslashacute" unicode="&#x1fe;" horiz-adv-x="496" 
d="M129 -81q-20 1 -29 16t-2 43t32 68q8 11 14.5 20.5t8.5 16.5q4 6 19.5 30t38.5 57.5t48 70t47 69t37.5 54t17.5 23.5q4 -1 9 4.5t7 12.5q3 8 9 16.5t11 9.5q2 5 6.5 10.5t5.5 9.5t4.5 7t4.5 7q10 10 30 34t43 53.5t45 58t36.5 48.5t16.5 25q5 15 21 9q3 2 10.5 2t11.5 -1
l2 -4.5t8 -15.5q6 -10 5 -20t-6 -21q-4 -13 -10.5 -22t-22 -24t-45.5 -47q-15 -17 -28 -29.5t-13 -16.5q-2 -4 -6.5 -9t-11.5 -16q-6 -6 -18 -19t-24 -28t-21 -26t-9 -13q-2 -3 -3.5 -7t-7.5 -6q-3 2 -5.5 -3.5l-2.5 -5.5q0 -4 -8.5 -16.5t-22.5 -29.5q-11 -16 -31 -45.5
t-45 -67.5t-51 -77t-48.5 -74.5t-37.5 -60t-18 -33.5q-7 -22 -10.5 -28.5t-11.5 -8.5zM176 -25q-37 28 -51 46t-16 40q-2 18 0.5 49t6.5 61t7 45q5 5 4.5 13.5l-0.5 8.5q-1 5 7 26.5t15 55.5q20 60 38.5 100.5t36.5 69.5t36 53q41 42 70 64.5t60 36.5q20 12 37 19t28 2
q56 -12 87.5 -46.5t44.5 -104.5q7 -44 8.5 -79.5t-5.5 -70t-25.5 -75.5t-51.5 -96q-37 -73 -82 -125t-91.5 -81t-89.5 -32.5t-74 20.5zM245 16q23 3 42 12.5t39.5 29.5t49.5 53q26 30 43 50.5t28.5 42t22.5 51.5t25 78q8 30 12 48.5t5 33.5t0.5 36t-0.5 57q-1 17 -7 36.5
t-14 28.5q-10 11 -29 16.5t-41 -4.5q-12 -5 -30.5 -21.5t-39 -39t-38.5 -45.5t-29 -41t-11 -25l-0.5 -5t-4.5 -10q-13 -14 -28 -48.5t-28 -78.5t-22 -87.5t-11 -76.5q-2 -23 -2 -33.5t3.5 -17t11.5 -19.5q6 -10 22 -17t31 -4zM476 714q-7 7 -10.5 20t-2.5 24q1 5 13.5 20
t29.5 33t33.5 32.5t24.5 17.5q12 7 23.5 -4.5t18.5 -29.5q3 -9 -8 -21.5t-28 -26.5t-33 -27.5t-24 -24.5q-10 -16 -17.5 -18.5t-19.5 5.5z" />
    <glyph glyph-name="Otilde" unicode="&#xd5;" horiz-adv-x="496" 
d="M178 -25q-37 28 -51 46t-16 40q-2 18 0.5 49t6.5 61t7 45q5 5 4.5 13.5l-0.5 8.5q-1 5 7 26.5t15 55.5q20 60 38.5 100.5t36.5 69.5t36 53q41 42 70 64.5t60 36.5q20 12 37 19t28 2q56 -12 87.5 -46.5t44.5 -104.5q7 -44 8.5 -79.5t-5.5 -70t-25.5 -75.5t-51.5 -96
q-37 -73 -82 -125t-91.5 -81t-89.5 -32.5t-74 20.5zM247 16q23 3 42 12.5t39.5 29.5t49.5 53q26 30 43 50.5t29 42t22.5 51.5t24.5 78q8 30 12 48.5t5 33.5t0.5 36t-0.5 57q-1 17 -7 36.5t-14 28.5q-10 11 -28.5 16.5t-40.5 -4.5q-12 -5 -31 -21.5t-39 -39t-38 -45.5
t-29 -41t-11 -25l-0.5 -5t-4.5 -10q-13 -14 -28 -48.5t-28.5 -78.5t-22.5 -87.5t-11 -76.5q-1 -23 -1 -33.5t3.5 -17t11.5 -19.5q6 -10 21.5 -17t30.5 -4zM566 728q-18 0 -31.5 7.5t-32.5 21.5q-9 5 -23.5 19.5t-26.5 14.5q-10 0 -16.5 -8t-12.5 -16.5t-17 -10.5
q-1 -5 -5.5 -12.5t-8.5 -2.5q-10 3 -16 10.5t-7 16.5q4 14 19 36t46 38q18 6 38.5 0t36.5 -22q23 -20 35.5 -27.5t31.5 0.5q15 4 31.5 15t37.5 19q7 3 13.5 -2t10 -13t2.5 -14t-8 -16.5t-16 -15.5q-30 -17 -46.5 -25t-23.5 -10.5t-11 -2.5z" />
    <glyph glyph-name="OE" unicode="&#x152;" horiz-adv-x="784" 
d="M568 -49q-32 1 -55.5 3t-41 9.5t-34.5 20.5q-7 5 -14 15t-11 17q-5 -2 -12 -7t-12 -9q-11 -9 -27 -16t-34 -12.5t-34.5 -9t-30.5 -3.5q-33 -4 -71 12t-65 42q-11 14 -18.5 38t-9 49t3.5 40q4 15 5.5 27t4.5 27.5t11 41.5l16 36t17 38.5t20.5 45.5t25.5 57q23 45 56 90
t68.5 83.5t66.5 63.5q18 14 35 17t33 0.5t28 -4.5q22 -3 40.5 -15t34 -29t26.5 -35l3 -6l9 14q-1 6 10 15t29 15q20 7 46.5 14.5t63 11.5t87.5 0q23 1 37.5 -2.5t24.5 -8.5t19 -11q9 -7 11 -18l2 -11q0 -8 -26.5 -9.5t-59.5 -1.5q-37 0 -72.5 -6t-52.5 -7q-14 -4 -24.5 -5
l-10.5 -1q-3 0 -12 -13t-20 -31t-19.5 -34.5t-8.5 -22.5q0 -10 -10.5 -24.5t-19.5 -29.5q-8 -12 -10.5 -22t6.5 -14q16 3 43.5 6t54.5 5.5t42 2.5q17 4 27.5 1t15.5 -6q12 -2 16 -9t2 -13.5t-9 -9.5q-6 -6 -29.5 -14t-55 -16t-63.5 -14.5t-54.5 -10.5t-26.5 -3
q-6 6 -10.5 -5t-21.5 -53q-16 -36 -25 -67.5t-17 -78.5q-5 -26 3 -42t35 -28q20 -3 50.5 -2t69.5 11q18 11 34 18.5t23 11.5q5 0 15.5 3t14.5 3q4 5 8.5 8.5t11.5 3.5q3 0 11 -8.5t15.5 -19t6.5 -17.5q0 -10 -22 -20.5t-72 -30.5q-25 -11 -41.5 -17.5t-33 -10t-42.5 -3.5z
M466 592q-21 6 -48 -13t-64 -69q-7 -15 -18 -28t-22.5 -27t-23.5 -34q-30 -45 -51 -92t-34.5 -88.5t-21.5 -71.5q-9 -38 -8.5 -55t-3.5 -27q6 -28 18.5 -44.5t34.5 -16.5q7 -2 20.5 -0.5t27 3.5t19.5 3q15 3 27.5 7.5t33.5 8.5l11.5 5t19.5 7q1 12 5 27t8 21q3 10 9 25.5
t13 32.5q4 19 8.5 30.5t8.5 14.5l7 27q5 24 9 37.5t10 19.5q3 4 6.5 13t4.5 11l2 12t13 32q3 10 7 14.5t4 8.5q2 4 6 9.5t6 11.5l18 34q0 8 3.5 20.5t2.5 22.5q0 27 -7 51.5t-22 40t-39 16.5z" />
    <glyph glyph-name="P" unicode="P" horiz-adv-x="465" 
d="M112 -51q-12 0 -20 13q-6 6 -9.5 17.5t2.5 39.5t25 85q10 38 16 55.5t6 25.5q0 11 2.5 18.5t2.5 14.5q6 0 12 11t10 30q4 17 7.5 27.5t3.5 14.5q5 8 10.5 25t17.5 41q8 30 18 62.5t20.5 61t17.5 44.5q11 31 17 43.5t0 16.5q-7 5 -4 20t21 30q11 13 22 18.5t26.5 5.5
t39.5 -2q18 -1 38.5 -1h25.5q9 -4 22 -9t23.5 -9t10.5 -7q0 -6 4.5 -7.5t9.5 -2.5q7 0 20.5 -11t27.5 -27.5t21 -33.5q8 -17 13 -32t0 -43q-1 -15 -4.5 -30t-7.5 -20q-6 -4 -11 -10t-5 -11q0 -4 -7.5 -16.5t-18.5 -29t-24.5 -33t-25.5 -27.5q-13 -16 -30.5 -30t-31.5 -23
q-26 -12 -58 -23.5t-61.5 -19t-48.5 -6.5q-29 -4 -37.5 -7.5t-12.5 -17.5q-5 -13 -9.5 -27t-4.5 -19q-2 -4 -9.5 -23.5t-16 -45.5t-16 -51.5t-11.5 -42.5q-4 -14 -12 -18t-17 -4zM242 267q4 -4 29 -1t56 15q20 7 40.5 17t39.5 22q10 7 27 22.5t37 40.5q3 5 10.5 19.5
t13.5 27.5q9 14 18 41.5t4 45.5q-5 26 -24 47t-46 29q-22 4 -36.5 4t-31.5 -3q-16 -5 -23 -14t-19 -38q-7 -14 -20 -41t-22 -52q-18 -66 -34 -106t-20 -51q1 -11 -1 -15.5t2 -9.5z" />
    <glyph glyph-name="Thorn" unicode="&#xde;" horiz-adv-x="472" 
d="M119 -72q-5 3 -15 6t-17.5 8.5t-8.5 14.5q-1 3 -1.5 7t2.5 15.5t9 35.5q1 3 7.5 25t15.5 52.5t18 59.5t15.5 48t7.5 16q1 5 6.5 21t9.5 20q1 9 5.5 23.5t11 28t12.5 18.5q0 6 5 20t12 29.5t13 26.5t7 11l1.5 6t11.5 19l1.5 10t9.5 16q4 15 5 20.5t-3 7.5q-9 26 16 27
q6 0 14 17q2 4 4 5q13 34 25 67t19.5 56t7.5 28q0 8 10 12t18 4q3 3 7.5 4t8.5 1l16 -16q8 -7 9.5 -16t1.5 -21t-2.5 -21t-10 -25.5t-24.5 -51.5q14 2 23.5 4l9.5 2q14 0 36.5 -2t35.5 -5q36 -17 56 -45t23 -51q2 -12 -4 -36t-14.5 -51t-19.5 -48.5t-20 -28.5q5 1 -4 -11
t-22.5 -24.5t-20.5 -14.5l-7 -12.5t-20 -19.5q-12 -7 -25.5 -16.5t-21.5 -21.5q0 8 -5 5.5t-11 -8t-10 -7.5q-45 -27 -87 -35q-5 -4 -15.5 -5t-20.5 -1l-34 5l-19 -52q-7 -31 -15 -56t-15 -55q-3 -18 -9 -29.5t-13 -15.5t-12 0zM229 199q54 -1 87.5 17.5t63.5 46.5
q8 7 21.5 22.5t28 33.5t25.5 32q15 21 22 47.5t7.5 49t-4.5 32.5q-13 18 -35.5 21.5t-46.5 -2t-43 -16.5q-5 -2 -17 -22t-26.5 -50.5t-29.5 -64.5t-27.5 -65.5t-19.5 -53.5t-6 -28z" />
    <glyph glyph-name="Q" unicode="Q" horiz-adv-x="499" 
d="M232 -76q-15 3 -34 13.5t-35.5 25t-23.5 28.5q-25 51 -27.5 108.5t14.5 139.5q5 17 13.5 46t18.5 58t18 49t10 20q3 3 3 17q0 5 8.5 21.5t22 37.5t28 40.5t27.5 30.5q20 26 45.5 47t50.5 34q6 4 19 9t28 9t26 5q50 3 77.5 -13.5t46.5 -55.5q20 -22 22 -43t6 -50
q0 -27 -5.5 -63.5t-14.5 -72t-20 -59t-21 -23.5l-3 -0.5t-3 -5.5q2 -7 -4 -31.5t-21 -53.5q-32 -90 -76.5 -152t-95 -92t-100.5 -24zM438 -126q-16 -1 -33.5 10t-21.5 24q-7 6 -7 11.5t-2 7.5q-4 2 -11 10.5t-10 19.5q-7 14 -20.5 40.5t-28.5 55t-26.5 50t-13.5 24.5
q-8 8 2 20q5 12 14.5 17t28.5 0q23 0 42 -48q1 -5 9 -24t18 -37.5t16 -23.5q5 -11 11 -25t13 -23q3 -11 13 -24t14 -27q23 -36 21 -47.5t-28 -10.5zM243 -9q42 6 81.5 47t75.5 109.5t66 153.5q9 25 22.5 55t23.5 67t10 78q6 44 -3 63.5t-33 30.5q-32 12 -69.5 -4
t-73.5 -58.5t-65 -112.5q-41 -87 -64 -154.5t-29.5 -121t3.5 -98.5q2 -31 16 -46.5t39 -8.5z" />
    <glyph glyph-name="R" unicode="R" horiz-adv-x="539" 
d="M147 -60q-4 -10 -19 -10.5t-32 12.5q-12 12 -15.5 18.5t3.5 22t24 54.5q4 24 14 48.5t15 34.5q4 14 16.5 46.5t29 72.5t31.5 75.5t22 53.5q17 40 35 84t49 111q4 10 2 21t-19 11q-10 11 -11 22.5t10 16.5l66 25q47 11 96.5 6.5t93.5 -27.5q48 -28 68.5 -58.5t21.5 -61.5
t-10 -59q-8 -21 -30.5 -46t-52 -50t-61 -45.5t-58.5 -31.5q-25 -12 -53 -22t-57 -19q-16 -4 -38 -4t-33 4l-17 -42q-10 -36 -34.5 -107t-56.5 -156zM544 -74q-8 -3 -21.5 -2t-36.5 16q-44 26 -88 63t-99 100q-21 25 -34 47.5t-29 60.5l-14 54l31 18l38 -36q16 -35 40.5 -67
t46.5 -57q18 -21 49 -50.5t66 -56.5t63 -41q6 -5 3.5 -16.5t-7 -21.5t-8.5 -11zM288 305q23 2 52.5 12t60.5 23q29 14 60.5 32.5t58 41t42.5 47.5t14 51q0 13 -9.5 27.5t-23 26.5t-26.5 16q-40 10 -64 12.5t-36.5 -4.5t-17.5 -27q0 -3 -8 -19.5t-19.5 -41.5t-22.5 -53
l-43.5 -88.5t-18 -40.5t0.5 -15z" />
    <glyph glyph-name="Racute" unicode="&#x154;" horiz-adv-x="498" 
d="M147 -60q-4 -10 -19 -10.5t-32 12.5q-12 12 -15.5 18.5t3.5 22t24 54.5q4 24 14 48.5t15 34.5q4 14 16.5 46.5t29 72.5t31.5 75.5t22 53.5q17 40 35 84t49 111q4 10 2 21t-19 11q-10 11 -11 22.5t10 16.5l66 25q47 11 96.5 6.5t93.5 -27.5q48 -28 68.5 -58.5t21.5 -61.5
t-10 -59q-8 -21 -30.5 -46t-52 -50t-61 -45.5t-58.5 -31.5q-25 -12 -53 -22t-57 -19q-16 -4 -38 -4t-33 4l-17 -42q-10 -36 -34.5 -107t-56.5 -156zM544 -74q-8 -3 -21.5 -2t-36.5 16q-44 26 -88 63t-99 100q-21 25 -34 47.5t-29 60.5l-14 54l31 18l38 -36q16 -35 40.5 -67
t46.5 -57q18 -21 49 -50.5t66 -56.5t63 -41q6 -5 3.5 -16.5t-7 -21.5t-8.5 -11zM288 305q23 2 52.5 12t60.5 23q29 14 60.5 32.5t58 41t42.5 47.5t14 51q0 13 -9.5 27.5t-23 26.5t-26.5 16q-40 10 -64 12.5t-36.5 -4.5t-17.5 -27q0 -3 -8 -19.5t-19.5 -41.5t-22.5 -53
l-43.5 -88.5t-18 -40.5t0.5 -15zM456 714q-7 7 -10.5 20t-2.5 24q1 5 13.5 20t29.5 33t33.5 32.5t24.5 17.5q12 7 23.5 -4.5t18.5 -29.5q3 -9 -8 -21.5t-28 -26.5t-33 -27.5t-24 -24.5q-10 -16 -17.5 -18.5t-19.5 5.5z" />
    <glyph glyph-name="Rcaron" unicode="&#x158;" horiz-adv-x="498" 
d="M147 -60q-4 -10 -19 -10.5t-32 12.5q-12 12 -15.5 18.5t3.5 22t24 54.5q4 24 14 48.5t15 34.5q4 14 16.5 46.5t29 72.5t31.5 75.5t22 53.5q17 40 35 84t49 111q4 10 2 21t-19 11q-10 11 -11 22.5t10 16.5l66 25q47 11 96.5 6.5t93.5 -27.5q48 -28 68.5 -58.5t21.5 -61.5
t-10 -59q-8 -21 -30.5 -46t-52 -50t-61 -45.5t-58.5 -31.5q-25 -12 -53 -22t-57 -19q-16 -4 -38 -4t-33 4l-17 -42q-10 -36 -34.5 -107t-56.5 -156zM544 -74q-8 -3 -21.5 -2t-36.5 16q-44 26 -88 63t-99 100q-21 25 -34 47.5t-29 60.5l-14 54l31 18l38 -36q16 -35 40.5 -67
t46.5 -57q18 -21 49 -50.5t66 -56.5t63 -41q6 -5 3.5 -16.5t-7 -21.5t-8.5 -11zM288 305q23 2 52.5 12t60.5 23q29 14 60.5 32.5t58 41t42.5 47.5t14 51q0 13 -9.5 27.5t-23 26.5t-26.5 16q-40 10 -64 12.5t-36.5 -4.5t-17.5 -27q0 -3 -8 -19.5t-19.5 -41.5t-22.5 -53
l-43.5 -88.5t-18 -40.5t0.5 -15zM509 719q-8 -6 -17 -6.5t-17 8.5q-12 10 -30.5 28t-34.5 34t-19 21q-3 12 2.5 25t18 15.5t28.5 -16.5q7 -10 23 -23.5t32 -27.5q12 7 27.5 17t29 20t20.5 16q22 15 33 11.5t13.5 -15.5t-1.5 -21q-1 -4 -14 -16t-30.5 -26t-34.5 -26t-29 -18z
" />
    <glyph glyph-name="uni0156" unicode="&#x156;" horiz-adv-x="498" 
d="M147 -60q-4 -10 -19 -10.5t-32 12.5q-12 12 -15.5 18.5t3.5 22t24 54.5q4 24 14 48.5t15 34.5q4 14 16.5 46.5t29 72.5t31.5 75.5t22 53.5q17 40 35 84t49 111q4 10 2 21t-19 11q-10 11 -11 22.5t10 16.5l66 25q47 11 96.5 6.5t93.5 -27.5q48 -28 68.5 -58.5t21.5 -61.5
t-10 -59q-8 -21 -30.5 -46t-52 -50t-61 -45.5t-58.5 -31.5q-25 -12 -53 -22t-57 -19q-16 -4 -38 -4t-33 4l-17 -42q-10 -36 -34.5 -107t-56.5 -156zM544 -74q-8 -3 -21.5 -2t-36.5 16q-44 26 -88 63t-99 100q-21 25 -34 47.5t-29 60.5l-14 54l31 18l38 -36q16 -35 40.5 -67
t46.5 -57q18 -21 49 -50.5t66 -56.5t63 -41q6 -5 3.5 -16.5t-7 -21.5t-8.5 -11zM288 305q23 2 52.5 12t60.5 23q29 14 60.5 32.5t58 41t42.5 47.5t14 51q0 13 -9.5 27.5t-23 26.5t-26.5 16q-40 10 -64 12.5t-36.5 -4.5t-17.5 -27q0 -3 -8 -19.5t-19.5 -41.5t-22.5 -53
l-43.5 -88.5t-18 -40.5t0.5 -15zM182 -186q-10 0 -14.5 2t-7.5 7q0 7 14 19q18 17 33.5 39.5t17.5 41.5q-1 24 11.5 35t33.5 -1q5 -14 6.5 -27t-6.5 -40q-1 -5 -7.5 -15.5t-14 -20.5t-11.5 -13q-2 -2 -7.5 -6.5t-10.5 -8.5t-8 -6q-3 -1 -5.5 -2.5t-7.5 -2.5t-16 -1z" />
    <glyph glyph-name="uni0210" unicode="&#x210;" horiz-adv-x="498" 
d="M147 -60q-4 -10 -19 -10.5t-32 12.5q-12 12 -15.5 18.5t3.5 22t24 54.5q4 24 14 48.5t15 34.5q4 14 16.5 46.5t29 72.5t31.5 75.5t22 53.5q17 40 35 84t49 111q4 10 2 21t-19 11q-10 11 -11 22.5t10 16.5l66 25q47 11 96.5 6.5t93.5 -27.5q48 -28 68.5 -58.5t21.5 -61.5
t-10 -59q-8 -21 -30.5 -46t-52 -50t-61 -45.5t-58.5 -31.5q-25 -12 -53 -22t-57 -19q-16 -4 -38 -4t-33 4l-17 -42q-10 -36 -34.5 -107t-56.5 -156zM544 -74q-8 -3 -21.5 -2t-36.5 16q-44 26 -88 63t-99 100q-21 25 -34 47.5t-29 60.5l-14 54l31 18l38 -36q16 -35 40.5 -67
t46.5 -57q18 -21 49 -50.5t66 -56.5t63 -41q6 -5 3.5 -16.5t-7 -21.5t-8.5 -11zM288 305q23 2 52.5 12t60.5 23q29 14 60.5 32.5t58 41t42.5 47.5t14 51q0 13 -9.5 27.5t-23 26.5t-26.5 16q-40 10 -64 12.5t-36.5 -4.5t-17.5 -27q0 -3 -8 -19.5t-19.5 -41.5t-22.5 -53
l-43.5 -88.5t-18 -40.5t0.5 -15zM404 714q-10 -5 -15 -0.5t-11 23.5q-5 12 -16.5 27.5t-22.5 32t-16.5 29.5t-0.5 20q11 14 23 20.5t20 0.5q8 -5 19 -22t21.5 -37.5t18 -36.5t7.5 -19q1 -4 -4 -11.5t-11 -15t-12 -11.5zM524 715q-11 -5 -15.5 -1.5t-10.5 22.5q-7 13 -18 29
l-22 32t-16.5 29t-0.5 19q14 17 25 22t18 0q7 -4 17.5 -20t21.5 -36t18.5 -36.5t8.5 -23.5q1 -3 -6.5 -15.5t-19.5 -20.5z" />
    <glyph glyph-name="uni1E5A" unicode="&#x1e5a;" horiz-adv-x="498" 
d="M147 -60q-4 -10 -19 -10.5t-32 12.5q-12 12 -15.5 18.5t3.5 22t24 54.5q4 24 14 48.5t15 34.5q4 14 16.5 46.5t29 72.5t31.5 75.5t22 53.5q17 40 35 84t49 111q4 10 2 21t-19 11q-10 11 -11 22.5t10 16.5l66 25q47 11 96.5 6.5t93.5 -27.5q48 -28 68.5 -58.5t21.5 -61.5
t-10 -59q-8 -21 -30.5 -46t-52 -50t-61 -45.5t-58.5 -31.5q-25 -12 -53 -22t-57 -19q-16 -4 -38 -4t-33 4l-17 -42q-10 -36 -34.5 -107t-56.5 -156zM544 -74q-8 -3 -21.5 -2t-36.5 16q-44 26 -88 63t-99 100q-21 25 -34 47.5t-29 60.5l-14 54l31 18l38 -36q16 -35 40.5 -67
t46.5 -57q18 -21 49 -50.5t66 -56.5t63 -41q6 -5 3.5 -16.5t-7 -21.5t-8.5 -11zM288 305q23 2 52.5 12t60.5 23q29 14 60.5 32.5t58 41t42.5 47.5t14 51q0 13 -9.5 27.5t-23 26.5t-26.5 16q-40 10 -64 12.5t-36.5 -4.5t-17.5 -27q0 -3 -8 -19.5t-19.5 -41.5t-22.5 -53
l-43.5 -88.5t-18 -40.5t0.5 -15zM216 -145q-9 9 -13 18.5t-3 14.5q3 9 9.5 24t12.5 19q5 4 9 7.5t8 4.5q12 8 23 3t18 -20q10 -16 7.5 -27.5t-15.5 -27.5q-20 -23 -32.5 -25.5t-23.5 9.5z" />
    <glyph glyph-name="uni0212" unicode="&#x212;" horiz-adv-x="498" 
d="M147 -60q-4 -10 -19 -10.5t-32 12.5q-12 12 -15.5 18.5t3.5 22t24 54.5q4 24 14 48.5t15 34.5q4 14 16.5 46.5t29 72.5t31.5 75.5t22 53.5q17 40 35 84t49 111q4 10 2 21t-19 11q-10 11 -11 22.5t10 16.5l66 25q47 11 96.5 6.5t93.5 -27.5q48 -28 68.5 -58.5t21.5 -61.5
t-10 -59q-8 -21 -30.5 -46t-52 -50t-61 -45.5t-58.5 -31.5q-25 -12 -53 -22t-57 -19q-16 -4 -38 -4t-33 4l-17 -42q-10 -36 -34.5 -107t-56.5 -156zM544 -74q-8 -3 -21.5 -2t-36.5 16q-44 26 -88 63t-99 100q-21 25 -34 47.5t-29 60.5l-14 54l31 18l38 -36q16 -35 40.5 -67
t46.5 -57q18 -21 49 -50.5t66 -56.5t63 -41q6 -5 3.5 -16.5t-7 -21.5t-8.5 -11zM288 305q23 2 52.5 12t60.5 23q29 14 60.5 32.5t58 41t42.5 47.5t14 51q0 13 -9.5 27.5t-23 26.5t-26.5 16q-40 10 -64 12.5t-36.5 -4.5t-17.5 -27q0 -3 -8 -19.5t-19.5 -41.5t-22.5 -53
l-43.5 -88.5t-18 -40.5t0.5 -15zM540 733q3 12 2.5 28t-11.5 27.5t-40 10.5q-13 1 -27.5 -10t-27.5 -26.5t-22 -31.5q-14 -24 -26 -24.5t-18 12.5t-5 28q5 12 17 30.5t30.5 36.5t41.5 29t48 9q36 -3 59 -19t32 -40t3 -53q-6 -28 -21.5 -36.5t-27 -0.5t-7.5 30z" />
    <glyph glyph-name="S" unicode="S" horiz-adv-x="489" 
d="M258 -55q-18 5 -29 8.5l-11 3.5q2 5 -1.5 9t-14.5 5q-15 9 -28.5 24t-23 30t-13.5 24q-7 15 -4 18.5t14 8.5q11 8 19 7.5t16 -17.5q13 -23 43 -36.5t68 -13.5t74 16q33 14 40 31.5t-10 43.5q-3 8 -7.5 13t-13.5 13t-28 26q-15 7 -27.5 13t-26.5 13q-16 8 -38 23t-41 33.5
t-28 34.5q-16 15 -22.5 41.5t-3.5 56.5t16 54q6 14 21 35t34 43t36.5 40t28.5 25q8 8 17 16.5l9 8.5q1 5 3.5 5h2.5q5 3 22 10t37 26q67 32 110.5 46t70.5 14v0v0q25 -1 46.5 -12.5t36.5 -29t18 -41.5q7 -24 -5 -56t-34 -60.5t-47 -42.5q-28 -12 -41 -8t-12 23q0 8 5.5 19
t30.5 39q32 47 37.5 72.5t-14.5 28.5q-6 2 -22 -0.5t-35 -6t-32.5 -7.5t-13.5 -6v-3t-4 -2q-2 0 -15.5 -7.5t-33 -19.5t-38.5 -24.5t-32.5 -21.5t-14.5 -11q-2 -11 -23 -20q-20 -12 -36 -34.5t-36 -56.5q-17 -23 -24 -49.5t0 -42.5q5 -16 30 -38t64 -45q34 -19 62 -38
t46.5 -37t24.5 -31q12 -17 16.5 -36t4 -36.5t-4.5 -30.5q-7 -16 -23.5 -33.5t-28.5 -16.5q-11 -3 -16.5 -7t-12.5 -7q-7 -4 -30.5 -8.5t-52 -6.5t-51.5 -1z" />
    <glyph glyph-name="Sacute" unicode="&#x15a;" horiz-adv-x="486" 
d="M257 -55q-18 5 -29 8.5l-11 3.5q2 5 -1.5 9t-14.5 5q-15 9 -28.5 24t-23 30t-13.5 24q-7 15 -4 18.5t14 8.5q11 8 19 7.5t16 -17.5q13 -23 43 -36.5t68 -13.5t74 16q33 14 40 31.5t-10 43.5q-3 8 -7.5 13t-13.5 13t-28 26q-15 7 -27.5 13t-26.5 13q-16 8 -38 23t-41 33.5
t-28 34.5q-16 15 -22.5 41.5t-3.5 56.5t16 54q6 14 21 35t34 43t36.5 40t28.5 25q8 8 17 16.5l9 8.5q1 5 3.5 5h2.5q5 3 22 10t37 26q67 32 110.5 46t70.5 14v0v0q25 -1 46.5 -12.5t36.5 -29t18 -41.5q7 -24 -5 -56t-34 -60.5t-47 -42.5q-28 -12 -41 -8t-12 23q0 8 5.5 19
t30.5 39q32 47 37.5 72.5t-14.5 28.5q-6 2 -22 -0.5t-35 -6t-32.5 -7.5t-13.5 -6v-3t-4 -2q-2 0 -15.5 -7.5t-33 -19.5t-38.5 -24.5t-32.5 -21.5t-14.5 -11q-2 -11 -23 -20q-20 -12 -36 -34.5t-36 -56.5q-17 -23 -24 -49.5t0 -42.5q5 -16 30 -38t64 -45q34 -19 62 -38
t46.5 -37t24.5 -31q12 -17 16.5 -36t4 -36.5t-4.5 -30.5q-7 -16 -23.5 -33.5t-28.5 -16.5q-11 -3 -16.5 -7t-12.5 -7q-7 -4 -30.5 -8.5t-52 -6.5t-51.5 -1zM520 714q-7 7 -10.5 20t-2.5 24q1 5 13.5 20t29.5 33t33.5 32.5t24.5 17.5q12 7 23.5 -4.5t18.5 -29.5
q3 -9 -8 -21.5t-28 -26.5t-33 -27.5t-24 -24.5q-10 -16 -17.5 -18.5t-19.5 5.5z" />
    <glyph glyph-name="Scaron" unicode="&#x160;" horiz-adv-x="486" 
d="M257 -55q-18 5 -29 8.5l-11 3.5q2 5 -1.5 9t-14.5 5q-15 9 -28.5 24t-23 30t-13.5 24q-7 15 -4 18.5t14 8.5q11 8 19 7.5t16 -17.5q13 -23 43 -36.5t68 -13.5t74 16q33 14 40 31.5t-10 43.5q-3 8 -7.5 13t-13.5 13t-28 26q-15 7 -27.5 13t-26.5 13q-16 8 -38 23t-41 33.5
t-28 34.5q-16 15 -22.5 41.5t-3.5 56.5t16 54q6 14 21 35t34 43t36.5 40t28.5 25q8 8 17 16.5l9 8.5q1 5 3.5 5h2.5q5 3 22 10t37 26q67 32 110.5 46t70.5 14v0v0q25 -1 46.5 -12.5t36.5 -29t18 -41.5q7 -24 -5 -56t-34 -60.5t-47 -42.5q-28 -12 -41 -8t-12 23q0 8 5.5 19
t30.5 39q32 47 37.5 72.5t-14.5 28.5q-6 2 -22 -0.5t-35 -6t-32.5 -7.5t-13.5 -6v-3t-4 -2q-2 0 -15.5 -7.5t-33 -19.5t-38.5 -24.5t-32.5 -21.5t-14.5 -11q-2 -11 -23 -20q-20 -12 -36 -34.5t-36 -56.5q-17 -23 -24 -49.5t0 -42.5q5 -16 30 -38t64 -45q34 -19 62 -38
t46.5 -37t24.5 -31q12 -17 16.5 -36t4 -36.5t-4.5 -30.5q-7 -16 -23.5 -33.5t-28.5 -16.5q-11 -3 -16.5 -7t-12.5 -7q-7 -4 -30.5 -8.5t-52 -6.5t-51.5 -1zM573 719q-8 -6 -17 -6.5t-17 8.5q-12 10 -30.5 28t-34.5 34t-19 21q-3 12 2.5 25t18 15.5t28.5 -16.5
q7 -10 23 -23.5t32 -27.5q12 7 27.5 17t29 20t20.5 16q22 15 33 11.5t13.5 -15.5t-1.5 -21q-1 -4 -14 -16t-30.5 -26t-34.5 -26t-29 -18z" />
    <glyph glyph-name="Scircumflex" unicode="&#x15c;" horiz-adv-x="486" 
d="M257 -55q-18 5 -29 8.5l-11 3.5q2 5 -1.5 9t-14.5 5q-15 9 -28.5 24t-23 30t-13.5 24q-7 15 -4 18.5t14 8.5q11 8 19 7.5t16 -17.5q13 -23 43 -36.5t68 -13.5t74 16q33 14 40 31.5t-10 43.5q-3 8 -7.5 13t-13.5 13t-28 26q-15 7 -27.5 13t-26.5 13q-16 8 -38 23t-41 33.5
t-28 34.5q-16 15 -22.5 41.5t-3.5 56.5t16 54q6 14 21 35t34 43t36.5 40t28.5 25q8 8 17 16.5l9 8.5q1 5 3.5 5h2.5q5 3 22 10t37 26q67 32 110.5 46t70.5 14v0v0q25 -1 46.5 -12.5t36.5 -29t18 -41.5q7 -24 -5 -56t-34 -60.5t-47 -42.5q-28 -12 -41 -8t-12 23q0 8 5.5 19
t30.5 39q32 47 37.5 72.5t-14.5 28.5q-6 2 -22 -0.5t-35 -6t-32.5 -7.5t-13.5 -6v-3t-4 -2q-2 0 -15.5 -7.5t-33 -19.5t-38.5 -24.5t-32.5 -21.5t-14.5 -11q-2 -11 -23 -20q-20 -12 -36 -34.5t-36 -56.5q-17 -23 -24 -49.5t0 -42.5q5 -16 30 -38t64 -45q34 -19 62 -38
t46.5 -37t24.5 -31q12 -17 16.5 -36t4 -36.5t-4.5 -30.5q-7 -16 -23.5 -33.5t-28.5 -16.5q-11 -3 -16.5 -7t-12.5 -7q-7 -4 -30.5 -8.5t-52 -6.5t-51.5 -1zM508 729q-17 -17 -29.5 -13.5t-16 17.5t6.5 28q3 4 14.5 14.5t27 24t31 25t25.5 17.5q10 9 20 8t16 -10
q12 -10 29.5 -27.5t32.5 -33t19 -20.5q6 -9 4.5 -20.5t-9 -19t-18.5 -5t-25 18.5q-7 8 -22.5 23.5t-30.5 28.5q-12 -7 -27 -18t-28 -21.5t-20 -16.5z" />
    <glyph glyph-name="uni1E62" unicode="&#x1e62;" horiz-adv-x="486" 
d="M257 -55q-18 5 -29 8.5l-11 3.5q2 5 -1.5 9t-14.5 5q-15 9 -28.5 24t-23 30t-13.5 24q-7 15 -4 18.5t14 8.5q11 8 19 7.5t16 -17.5q13 -23 43 -36.5t68 -13.5t74 16q33 14 40 31.5t-10 43.5q-3 8 -7.5 13t-13.5 13t-28 26q-15 7 -27.5 13t-26.5 13q-16 8 -38 23t-41 33.5
t-28 34.5q-16 15 -22.5 41.5t-3.5 56.5t16 54q6 14 21 35t34 43t36.5 40t28.5 25q8 8 17 16.5l9 8.5q1 5 3.5 5h2.5q5 3 22 10t37 26q67 32 110.5 46t70.5 14v0v0q25 -1 46.5 -12.5t36.5 -29t18 -41.5q7 -24 -5 -56t-34 -60.5t-47 -42.5q-28 -12 -41 -8t-12 23q0 8 5.5 19
t30.5 39q32 47 37.5 72.5t-14.5 28.5q-6 2 -22 -0.5t-35 -6t-32.5 -7.5t-13.5 -6v-3t-4 -2q-2 0 -15.5 -7.5t-33 -19.5t-38.5 -24.5t-32.5 -21.5t-14.5 -11q-2 -11 -23 -20q-20 -12 -36 -34.5t-36 -56.5q-17 -23 -24 -49.5t0 -42.5q5 -16 30 -38t64 -45q34 -19 62 -38
t46.5 -37t24.5 -31q12 -17 16.5 -36t4 -36.5t-4.5 -30.5q-7 -16 -23.5 -33.5t-28.5 -16.5q-11 -3 -16.5 -7t-12.5 -7q-7 -4 -30.5 -8.5t-52 -6.5t-51.5 -1zM217 -189q-9 9 -13 18.5t-3 14.5q3 9 9.5 24t12.5 19q5 4 9 7.5t8 4.5q12 8 23 3t18 -20q10 -16 7.5 -27.5
t-15.5 -27.5q-20 -23 -32.5 -25.5t-23.5 9.5z" />
    <glyph glyph-name="uni018F" unicode="&#x18f;" horiz-adv-x="498" 
d="M316 -23q-6 -4 -21 -4.5t-33.5 3.5t-36.5 11t-30 16q-10 6 -23 18.5t-24 28t-16 28.5q-7 7 -15 24t-12.5 32.5t-2.5 15.5q6 0 6.5 3.5t0.5 13.5q-3 12 -2 28t4.5 31.5t8.5 27t9 13.5t9.5 2.5t13.5 0.5q5 0 28 1t54 2q29 1 59.5 3t43.5 7q14 2 48.5 3t63.5 1l69 4l11 20
q15 29 19.5 46l4.5 17l4 8.5t5 21.5q8 21 10.5 47t-2.5 63q0 18 -15.5 30.5t-38.5 16.5q-23 7 -58.5 6.5t-72.5 -8t-64 -21.5q-19 -10 -33 -8.5t-25 21.5q-9 12 -9.5 18t3.5 13q3 8 11 13.5t10 5.5q3 1 3 8l5.5 3.5t11.5 3.5q4 0 13.5 1t18.5 6q5 5 17.5 7.5t19.5 9.5
q28 0 28 3h17.5t38.5 -0.5t42 -2t27 -4.5q21 -6 44 -25t42 -44t25 -49q15 -37 5.5 -92t-35.5 -126q-10 -22 -15 -39.5t-5 -22.5l-1.5 -2.5t-9.5 -3.5q-4 -4 -5.5 -9.5t-6.5 -9.5q-7 -15 -25 -42t-40 -56t-43 -50q-24 -20 -48.5 -39.5t-44.5 -31.5t-33 -12q-4 -4 -6 -4.5z
M267 54q27 2 42 4t37 15q16 9 36.5 28t41 41t36.5 41t22 28q1 10 -1.5 11.5t-15.5 1.5q-9 -1 -14.5 1t-5.5 -3h-19.5t-44.5 -2q-66 -6 -106 -10.5t-61 -8.5t-29 -9.5t-9.5 -14t-3.5 -20.5q-2 -23 9.5 -47.5t33.5 -40.5q14 -13 22 -14.5t30 -0.5z" />
    <glyph glyph-name="T" unicode="T" horiz-adv-x="458" 
d="M218 -47q-11 0 -22 14.5t-10 26.5q1 16 9 46t18 61t18 49q4 16 7.5 28.5t4.5 16.5q3 4 9.5 21t10.5 33q2 8 8.5 30.5t16 52.5t19 59t16.5 51t9 29q8 12 12 23t5 15q6 4 7 10.5t1 10.5q0 5 3.5 8t3.5 7q4 3 5 6.5t6 8.5l5 23l69 1q-2 -12 -6 -29.5t-19 -46.5
q-5 -20 -11.5 -36t-5.5 -21q-2 -2 -8.5 -20t-15 -44l-17 -52t-15 -45.5t-8.5 -24.5q-8 -16 -18 -47t-30 -84q-8 -16 -19.5 -48t-18.5 -58q-11 -39 -16.5 -55t-10 -18t-12.5 -2zM226 546q-32 -2 -46 5.5t-10 23.5q3 12 13.5 19t33.5 11q11 2 28.5 5t33.5 6q33 4 54.5 7
t44.5 5t58 4q29 2 49.5 3.5l20.5 1.5q3 0 21 -2t39 -5t31 -7q23 -5 35 -15.5t16 -27.5q3 -12 0 -16t-11 -8q-23 -7 -35.5 -8.5t-26.5 3.5q-5 5 -11.5 9t-22 6.5t-48.5 4.5q-28 -3 -49 -3t-21 -5l-59 -3l-49 -5q-10 -1 -28 -2.5t-35 -3t-26 -3.5z" />
    <glyph glyph-name="Tbar" unicode="&#x166;" horiz-adv-x="458" 
d="M221 169q-6 0 -17 0.5t-23 3.5q-15 0 -20 2.5t-10 9.5q-13 15 -3.5 20.5t49.5 9.5q37 5 69.5 8t76.5 3q29 0 39 -2t21 -10q18 -15 14 -27.5t-30 -10.5q-7 -1 -28.5 -2t-39.5 -1q-15 0 -40.5 -2t-57.5 -2zM218 -47q-11 0 -22 14.5t-10 26.5q1 16 9 46t18 61t18 49
q4 16 7.5 28.5t4.5 16.5q3 4 9.5 21t10.5 33q2 8 8.5 30.5t16 52.5t19 59t16.5 51t9 29q8 12 12 23t5 15q6 4 7 10.5t1 10.5q0 5 3.5 8t3.5 7q4 3 5 6.5t6 8.5l5 23l69 1q-2 -12 -6 -29.5t-19 -46.5q-5 -20 -11.5 -36t-5.5 -21q-2 -2 -8.5 -20t-15 -44l-17 -52t-15 -45.5
t-8.5 -24.5q-8 -16 -18 -47t-30 -84q-8 -16 -19.5 -48t-18.5 -58q-11 -39 -16.5 -55t-10 -18t-12.5 -2zM226 546q-32 -2 -46 5.5t-10 23.5q3 12 13.5 19t33.5 11q11 2 28.5 5t33.5 6q33 4 54.5 7t44.5 5t58 4q29 2 49.5 3.5l20.5 1.5q3 0 21 -2t39 -5t31 -7q23 -5 35 -15.5
t16 -27.5q3 -12 0 -16t-11 -8q-23 -7 -35.5 -8.5t-26.5 3.5q-5 5 -11.5 9t-22 6.5t-48.5 4.5q-28 -3 -49 -3t-21 -5l-59 -3l-49 -5q-10 -1 -28 -2.5t-35 -3t-26 -3.5z" />
    <glyph glyph-name="Tcaron" unicode="&#x164;" horiz-adv-x="458" 
d="M218 -47q-11 0 -22 14.5t-10 26.5q1 16 9 46t18 61t18 49q4 16 7.5 28.5t4.5 16.5q3 4 9.5 21t10.5 33q2 8 8.5 30.5t16 52.5t19 59t16.5 51t9 29q8 12 12 23t5 15q6 4 7 10.5t1 10.5q0 5 3.5 8t3.5 7q4 3 5 6.5t6 8.5l5 23l69 1q-2 -12 -6 -29.5t-19 -46.5
q-5 -20 -11.5 -36t-5.5 -21q-2 -2 -8.5 -20t-15 -44l-17 -52t-15 -45.5t-8.5 -24.5q-8 -16 -18 -47t-30 -84q-8 -16 -19.5 -48t-18.5 -58q-11 -39 -16.5 -55t-10 -18t-12.5 -2zM226 546q-32 -2 -46 5.5t-10 23.5q3 12 13.5 19t33.5 11q11 2 28.5 5t33.5 6q33 4 54.5 7
t44.5 5t58 4q29 2 49.5 3.5l20.5 1.5q3 0 21 -2t39 -5t31 -7q23 -5 35 -15.5t16 -27.5q3 -12 0 -16t-11 -8q-23 -7 -35.5 -8.5t-26.5 3.5q-5 5 -11.5 9t-22 6.5t-48.5 4.5q-28 -3 -49 -3t-21 -5l-59 -3l-49 -5q-10 -1 -28 -2.5t-35 -3t-26 -3.5zM482 719q-8 -6 -17 -6.5
t-17 8.5q-12 10 -30.5 28t-34.5 34t-19 21q-3 12 2.5 25t18 15.5t28.5 -16.5q7 -10 23 -23.5t32 -27.5q12 7 27.5 17t29 20t20.5 16q22 15 33 11.5t13.5 -15.5t-1.5 -21q-1 -4 -14 -16t-30.5 -26t-34.5 -26t-29 -18z" />
    <glyph glyph-name="uni1E6C" unicode="&#x1e6c;" horiz-adv-x="458" 
d="M218 -47q-11 0 -22 14.5t-10 26.5q1 16 9 46t18 61t18 49q4 16 7.5 28.5t4.5 16.5q3 4 9.5 21t10.5 33q2 8 8.5 30.5t16 52.5t19 59t16.5 51t9 29q8 12 12 23t5 15q6 4 7 10.5t1 10.5q0 5 3.5 8t3.5 7q4 3 5 6.5t6 8.5l5 23l69 1q-2 -12 -6 -29.5t-19 -46.5
q-5 -20 -11.5 -36t-5.5 -21q-2 -2 -8.5 -20t-15 -44l-17 -52t-15 -45.5t-8.5 -24.5q-8 -16 -18 -47t-30 -84q-8 -16 -19.5 -48t-18.5 -58q-11 -39 -16.5 -55t-10 -18t-12.5 -2zM226 546q-32 -2 -46 5.5t-10 23.5q3 12 13.5 19t33.5 11q11 2 28.5 5t33.5 6q33 4 54.5 7
t44.5 5t58 4q29 2 49.5 3.5l20.5 1.5q3 0 21 -2t39 -5t31 -7q23 -5 35 -15.5t16 -27.5q3 -12 0 -16t-11 -8q-23 -7 -35.5 -8.5t-26.5 3.5q-5 5 -11.5 9t-22 6.5t-48.5 4.5q-28 -3 -49 -3t-21 -5l-59 -3l-49 -5q-10 -1 -28 -2.5t-35 -3t-26 -3.5zM153 -180q-9 9 -13 18.5
t-3 14.5q3 9 9.5 24t12.5 19q5 4 9 7.5t8 4.5q12 8 23 3t18 -20q10 -16 7.5 -27.5t-15.5 -27.5q-20 -23 -32.5 -25.5t-23.5 9.5z" />
    <glyph glyph-name="U" unicode="U" horiz-adv-x="482" 
d="M223 -55q-48 16 -73.5 53.5t-27.5 105t20 171.5q7 35 20 80t30.5 92.5t37 92t38.5 78.5q23 41 37 52.5t26 9.5q21 -4 30.5 -18.5t8 -30.5t-18.5 -27q-11 -13 -28.5 -47.5t-35.5 -66.5q-20 -58 -35 -102.5t-25 -83.5t-18 -82q-9 -42 -14 -67.5t-6.5 -41t-1.5 -27v-25.5
q8 -13 13 -23t13 -12q17 -8 37 -5.5t41 14.5q5 10 13 14l8 4q2 -5 4.5 -2.5t3.5 6.5q-1 4 2 7.5t7 7.5q8 3 22.5 19.5t29.5 37t25.5 37.5t10.5 21q0 5 4 9t9 10q5 5 20.5 32.5t34 64.5t33.5 68q3 11 11 35.5t17.5 56.5t18.5 64.5t16.5 58t9.5 37.5q2 13 6 21.5t5 12.5
q7 4 16.5 1t18.5 -8.5t15 -8.5q6 -8 5 -20t-6.5 -36.5t-15.5 -70.5q-21 -82 -50.5 -151t-63.5 -146v-0.5v-5.5q-12 -7 -19 -21q-5 -9 -8.5 -15.5t-8.5 -9.5q-3 -9 -6 -16l-3 -7q-1 -5 -7 -9l-12 -8q-5 -2 -6 -8t-4 -10q-22 -33 -51 -65.5t-60 -56.5t-58 -34q-18 -7 -29.5 -8
t-25.5 2z" />
    <glyph glyph-name="Uacute" unicode="&#xda;" horiz-adv-x="482" 
d="M223 -55q-48 16 -73.5 53.5t-27.5 105t20 171.5q7 35 20 80t30.5 92.5t37 92t38.5 78.5q23 41 37 52.5t26 9.5q21 -4 30.5 -18.5t8 -30.5t-18.5 -27q-11 -13 -28.5 -47.5t-35.5 -66.5q-20 -58 -35 -102.5t-25 -83.5t-18 -82q-9 -42 -14 -67.5t-6.5 -41t-1.5 -27v-25.5
q8 -13 13 -23t13 -12q17 -8 37 -5.5t41 14.5q5 10 13 14l8 4q2 -5 4.5 -2.5t3.5 6.5q-1 4 2 7.5t7 7.5q8 3 22.5 19.5t29.5 37t25.5 37.5t10.5 21q0 5 4 9t9 10q5 5 20.5 32.5t34 64.5t33.5 68q3 11 11 35.5t17.5 56.5t18.5 64.5t16.5 58t9.5 37.5q2 13 6 21.5t5 12.5
q7 4 16.5 1t18.5 -8.5t15 -8.5q6 -8 5 -20t-6.5 -36.5t-15.5 -70.5q-21 -82 -50.5 -151t-63.5 -146v-0.5v-5.5q-12 -7 -19 -21q-5 -9 -8.5 -15.5t-8.5 -9.5q-3 -9 -6 -16l-3 -7q-1 -5 -7 -9l-12 -8q-5 -2 -6 -8t-4 -10q-22 -33 -51 -65.5t-60 -56.5t-58 -34q-18 -7 -29.5 -8
t-25.5 2zM462 714q-7 7 -10.5 20t-2.5 24q1 5 13.5 20t29.5 33t33.5 32.5t24.5 17.5q12 7 23.5 -4.5t18.5 -29.5q3 -9 -8 -21.5t-28 -26.5t-33 -27.5t-24 -24.5q-10 -16 -17.5 -18.5t-19.5 5.5z" />
    <glyph glyph-name="Ubreve" unicode="&#x16c;" horiz-adv-x="482" 
d="M223 -55q-48 16 -73.5 53.5t-27.5 105t20 171.5q7 35 20 80t30.5 92.5t37 92t38.5 78.5q23 41 37 52.5t26 9.5q21 -4 30.5 -18.5t8 -30.5t-18.5 -27q-11 -13 -28.5 -47.5t-35.5 -66.5q-20 -58 -35 -102.5t-25 -83.5t-18 -82q-9 -42 -14 -67.5t-6.5 -41t-1.5 -27v-25.5
q8 -13 13 -23t13 -12q17 -8 37 -5.5t41 14.5q5 10 13 14l8 4q2 -5 4.5 -2.5t3.5 6.5q-1 4 2 7.5t7 7.5q8 3 22.5 19.5t29.5 37t25.5 37.5t10.5 21q0 5 4 9t9 10q5 5 20.5 32.5t34 64.5t33.5 68q3 11 11 35.5t17.5 56.5t18.5 64.5t16.5 58t9.5 37.5q2 13 6 21.5t5 12.5
q7 4 16.5 1t18.5 -8.5t15 -8.5q6 -8 5 -20t-6.5 -36.5t-15.5 -70.5q-21 -82 -50.5 -151t-63.5 -146v-0.5v-5.5q-12 -7 -19 -21q-5 -9 -8.5 -15.5t-8.5 -9.5q-3 -9 -6 -16l-3 -7q-1 -5 -7 -9l-12 -8q-5 -2 -6 -8t-4 -10q-22 -33 -51 -65.5t-60 -56.5t-58 -34q-18 -7 -29.5 -8
t-25.5 2zM496 701q-32 3 -55.5 16.5t-33.5 37.5t-4 57q4 21 14.5 31t21 10t17 -9t1.5 -26q-3 -11 -1.5 -27t13.5 -27t42 -10q13 1 26.5 11.5t24.5 25.5t17 25q13 22 23.5 27.5t18 -0.5t10.5 -17t1 -20q-4 -13 -15 -31.5t-29 -36t-41.5 -28.5t-50.5 -9z" />
    <glyph glyph-name="Ucircumflex" unicode="&#xdb;" horiz-adv-x="482" 
d="M223 -55q-48 16 -73.5 53.5t-27.5 105t20 171.5q7 35 20 80t30.5 92.5t37 92t38.5 78.5q23 41 37 52.5t26 9.5q21 -4 30.5 -18.5t8 -30.5t-18.5 -27q-11 -13 -28.5 -47.5t-35.5 -66.5q-20 -58 -35 -102.5t-25 -83.5t-18 -82q-9 -42 -14 -67.5t-6.5 -41t-1.5 -27v-25.5
q8 -13 13 -23t13 -12q17 -8 37 -5.5t41 14.5q5 10 13 14l8 4q2 -5 4.5 -2.5t3.5 6.5q-1 4 2 7.5t7 7.5q8 3 22.5 19.5t29.5 37t25.5 37.5t10.5 21q0 5 4 9t9 10q5 5 20.5 32.5t34 64.5t33.5 68q3 11 11 35.5t17.5 56.5t18.5 64.5t16.5 58t9.5 37.5q2 13 6 21.5t5 12.5
q7 4 16.5 1t18.5 -8.5t15 -8.5q6 -8 5 -20t-6.5 -36.5t-15.5 -70.5q-21 -82 -50.5 -151t-63.5 -146v-0.5v-5.5q-12 -7 -19 -21q-5 -9 -8.5 -15.5t-8.5 -9.5q-3 -9 -6 -16l-3 -7q-1 -5 -7 -9l-12 -8q-5 -2 -6 -8t-4 -10q-22 -33 -51 -65.5t-60 -56.5t-58 -34q-18 -7 -29.5 -8
t-25.5 2zM450 729q-17 -17 -29.5 -13.5t-16 17.5t6.5 28q3 4 14.5 14.5t27 24t31 25t25.5 17.5q10 9 20 8t16 -10q12 -10 29.5 -27.5t32.5 -33t19 -20.5q6 -9 4.5 -20.5t-9 -19t-18.5 -5t-25 18.5q-7 8 -22.5 23.5t-30.5 28.5q-12 -7 -27 -18t-28 -21.5t-20 -16.5z" />
    <glyph glyph-name="uni0214" unicode="&#x214;" horiz-adv-x="482" 
d="M223 -55q-48 16 -73.5 53.5t-27.5 105t20 171.5q7 35 20 80t30.5 92.5t37 92t38.5 78.5q23 41 37 52.5t26 9.5q21 -4 30.5 -18.5t8 -30.5t-18.5 -27q-11 -13 -28.5 -47.5t-35.5 -66.5q-20 -58 -35 -102.5t-25 -83.5t-18 -82q-9 -42 -14 -67.5t-6.5 -41t-1.5 -27v-25.5
q8 -13 13 -23t13 -12q17 -8 37 -5.5t41 14.5q5 10 13 14l8 4q2 -5 4.5 -2.5t3.5 6.5q-1 4 2 7.5t7 7.5q8 3 22.5 19.5t29.5 37t25.5 37.5t10.5 21q0 5 4 9t9 10q5 5 20.5 32.5t34 64.5t33.5 68q3 11 11 35.5t17.5 56.5t18.5 64.5t16.5 58t9.5 37.5q2 13 6 21.5t5 12.5
q7 4 16.5 1t18.5 -8.5t15 -8.5q6 -8 5 -20t-6.5 -36.5t-15.5 -70.5q-21 -82 -50.5 -151t-63.5 -146v-0.5v-5.5q-12 -7 -19 -21q-5 -9 -8.5 -15.5t-8.5 -9.5q-3 -9 -6 -16l-3 -7q-1 -5 -7 -9l-12 -8q-5 -2 -6 -8t-4 -10q-22 -33 -51 -65.5t-60 -56.5t-58 -34q-18 -7 -29.5 -8
t-25.5 2zM410 714q-10 -5 -15 -0.5t-11 23.5q-5 12 -16.5 27.5t-22.5 32t-16.5 29.5t-0.5 20q11 14 23 20.5t20 0.5q8 -5 19 -22t21.5 -37.5t18 -36.5t7.5 -19q1 -4 -4 -11.5t-11 -15t-12 -11.5zM530 715q-11 -5 -15.5 -1.5t-10.5 22.5q-7 13 -18 29l-22 32t-16.5 29
t-0.5 19q14 17 25 22t18 0q7 -4 17.5 -20t21.5 -36t18.5 -36.5t8.5 -23.5q1 -3 -6.5 -15.5t-19.5 -20.5z" />
    <glyph glyph-name="Udieresis" unicode="&#xdc;" horiz-adv-x="482" 
d="M223 -55q-48 16 -73.5 53.5t-27.5 105t20 171.5q7 35 20 80t30.5 92.5t37 92t38.5 78.5q23 41 37 52.5t26 9.5q21 -4 30.5 -18.5t8 -30.5t-18.5 -27q-11 -13 -28.5 -47.5t-35.5 -66.5q-20 -58 -35 -102.5t-25 -83.5t-18 -82q-9 -42 -14 -67.5t-6.5 -41t-1.5 -27v-25.5
q8 -13 13 -23t13 -12q17 -8 37 -5.5t41 14.5q5 10 13 14l8 4q2 -5 4.5 -2.5t3.5 6.5q-1 4 2 7.5t7 7.5q8 3 22.5 19.5t29.5 37t25.5 37.5t10.5 21q0 5 4 9t9 10q5 5 20.5 32.5t34 64.5t33.5 68q3 11 11 35.5t17.5 56.5t18.5 64.5t16.5 58t9.5 37.5q2 13 6 21.5t5 12.5
q7 4 16.5 1t18.5 -8.5t15 -8.5q6 -8 5 -20t-6.5 -36.5t-15.5 -70.5q-21 -82 -50.5 -151t-63.5 -146v-0.5v-5.5q-12 -7 -19 -21q-5 -9 -8.5 -15.5t-8.5 -9.5q-3 -9 -6 -16l-3 -7q-1 -5 -7 -9l-12 -8q-5 -2 -6 -8t-4 -10q-22 -33 -51 -65.5t-60 -56.5t-58 -34q-18 -7 -29.5 -8
t-25.5 2zM554 749q-7 7 -11.5 19t-3.5 16q2 5 7.5 20t11.5 20q4 4 10 11t10 8q12 10 24.5 4t18.5 -22q12 -17 7.5 -31.5t-19.5 -32.5q-17 -24 -30.5 -24.5t-24.5 12.5zM420 745q-9 8 -14.5 21t-4.5 18q2 8 9.5 24t14.5 22q3 2 7.5 7t8.5 6q10 7 19 4.5t16 -10t10 -18.5
q8 -14 4.5 -26.5t-17.5 -29.5q-16 -21 -29 -25t-24 7z" />
    <glyph glyph-name="uni1EE4" unicode="&#x1ee4;" horiz-adv-x="482" 
d="M223 -55q-48 16 -73.5 53.5t-27.5 105t20 171.5q7 35 20 80t30.5 92.5t37 92t38.5 78.5q23 41 37 52.5t26 9.5q21 -4 30.5 -18.5t8 -30.5t-18.5 -27q-11 -13 -28.5 -47.5t-35.5 -66.5q-20 -58 -35 -102.5t-25 -83.5t-18 -82q-9 -42 -14 -67.5t-6.5 -41t-1.5 -27v-25.5
q8 -13 13 -23t13 -12q17 -8 37 -5.5t41 14.5q5 10 13 14l8 4q2 -5 4.5 -2.5t3.5 6.5q-1 4 2 7.5t7 7.5q8 3 22.5 19.5t29.5 37t25.5 37.5t10.5 21q0 5 4 9t9 10q5 5 20.5 32.5t34 64.5t33.5 68q3 11 11 35.5t17.5 56.5t18.5 64.5t16.5 58t9.5 37.5q2 13 6 21.5t5 12.5
q7 4 16.5 1t18.5 -8.5t15 -8.5q6 -8 5 -20t-6.5 -36.5t-15.5 -70.5q-21 -82 -50.5 -151t-63.5 -146v-0.5v-5.5q-12 -7 -19 -21q-5 -9 -8.5 -15.5t-8.5 -9.5q-3 -9 -6 -16l-3 -7q-1 -5 -7 -9l-12 -8q-5 -2 -6 -8t-4 -10q-22 -33 -51 -65.5t-60 -56.5t-58 -34q-18 -7 -29.5 -8
t-25.5 2zM156 -189q-9 9 -13 18.5t-3 14.5q3 9 9.5 24t12.5 19q5 4 9 7.5t8 4.5q12 8 23 3t18 -20q10 -16 7.5 -27.5t-15.5 -27.5q-20 -23 -32.5 -25.5t-23.5 9.5z" />
    <glyph glyph-name="Ugrave" unicode="&#xd9;" horiz-adv-x="482" 
d="M223 -55q-48 16 -73.5 53.5t-27.5 105t20 171.5q7 35 20 80t30.5 92.5t37 92t38.5 78.5q23 41 37 52.5t26 9.5q21 -4 30.5 -18.5t8 -30.5t-18.5 -27q-11 -13 -28.5 -47.5t-35.5 -66.5q-20 -58 -35 -102.5t-25 -83.5t-18 -82q-9 -42 -14 -67.5t-6.5 -41t-1.5 -27v-25.5
q8 -13 13 -23t13 -12q17 -8 37 -5.5t41 14.5q5 10 13 14l8 4q2 -5 4.5 -2.5t3.5 6.5q-1 4 2 7.5t7 7.5q8 3 22.5 19.5t29.5 37t25.5 37.5t10.5 21q0 5 4 9t9 10q5 5 20.5 32.5t34 64.5t33.5 68q3 11 11 35.5t17.5 56.5t18.5 64.5t16.5 58t9.5 37.5q2 13 6 21.5t5 12.5
q7 4 16.5 1t18.5 -8.5t15 -8.5q6 -8 5 -20t-6.5 -36.5t-15.5 -70.5q-21 -82 -50.5 -151t-63.5 -146v-0.5v-5.5q-12 -7 -19 -21q-5 -9 -8.5 -15.5t-8.5 -9.5q-3 -9 -6 -16l-3 -7q-1 -5 -7 -9l-12 -8q-5 -2 -6 -8t-4 -10q-22 -33 -51 -65.5t-60 -56.5t-58 -34q-18 -7 -29.5 -8
t-25.5 2zM529 709q-9 -6 -13 -3.5t-7 11t-8 19.5q-8 17 -23.5 39.5t-24 43.5t0.5 33q16 15 26 19t20 -7q7 -4 16.5 -21t19 -38.5t16 -39.5t6.5 -24q1 -4 -8.5 -16.5t-20.5 -15.5z" />
    <glyph glyph-name="Uhungarumlaut" unicode="&#x170;" horiz-adv-x="482" 
d="M223 -55q-48 16 -73.5 53.5t-27.5 105t20 171.5q7 35 20 80t30.5 92.5t37 92t38.5 78.5q23 41 37 52.5t26 9.5q21 -4 30.5 -18.5t8 -30.5t-18.5 -27q-11 -13 -28.5 -47.5t-35.5 -66.5q-20 -58 -35 -102.5t-25 -83.5t-18 -82q-9 -42 -14 -67.5t-6.5 -41t-1.5 -27v-25.5
q8 -13 13 -23t13 -12q17 -8 37 -5.5t41 14.5q5 10 13 14l8 4q2 -5 4.5 -2.5t3.5 6.5q-1 4 2 7.5t7 7.5q8 3 22.5 19.5t29.5 37t25.5 37.5t10.5 21q0 5 4 9t9 10q5 5 20.5 32.5t34 64.5t33.5 68q3 11 11 35.5t17.5 56.5t18.5 64.5t16.5 58t9.5 37.5q2 13 6 21.5t5 12.5
q7 4 16.5 1t18.5 -8.5t15 -8.5q6 -8 5 -20t-6.5 -36.5t-15.5 -70.5q-21 -82 -50.5 -151t-63.5 -146v-0.5v-5.5q-12 -7 -19 -21q-5 -9 -8.5 -15.5t-8.5 -9.5q-3 -9 -6 -16l-3 -7q-1 -5 -7 -9l-12 -8q-5 -2 -6 -8t-4 -10q-22 -33 -51 -65.5t-60 -56.5t-58 -34q-18 -7 -29.5 -8
t-25.5 2zM396 717q-7 6 -10 20t-2 23q2 4 13 17.5t26 30t29.5 29.5t21.5 16q12 6 21.5 -3t17.5 -28q3 -7 -4 -16.5t-19.5 -21t-27 -24t-27.5 -25.5q-7 -8 -12 -14t-10.5 -7.5t-16.5 3.5zM542 718q-7 7 -10.5 22t-2.5 20q1 3 12 16.5t27 30t30 30t21 16.5q11 5 21.5 -2.5
t18.5 -29.5q3 -7 -7 -18.5t-25 -25t-29.5 -25.5t-21.5 -22q-10 -15 -17.5 -17t-16.5 5z" />
    <glyph glyph-name="uni0216" unicode="&#x216;" horiz-adv-x="482" 
d="M223 -55q-48 16 -73.5 53.5t-27.5 105t20 171.5q7 35 20 80t30.5 92.5t37 92t38.5 78.5q23 41 37 52.5t26 9.5q21 -4 30.5 -18.5t8 -30.5t-18.5 -27q-11 -13 -28.5 -47.5t-35.5 -66.5q-20 -58 -35 -102.5t-25 -83.5t-18 -82q-9 -42 -14 -67.5t-6.5 -41t-1.5 -27v-25.5
q8 -13 13 -23t13 -12q17 -8 37 -5.5t41 14.5q5 10 13 14l8 4q2 -5 4.5 -2.5t3.5 6.5q-1 4 2 7.5t7 7.5q8 3 22.5 19.5t29.5 37t25.5 37.5t10.5 21q0 5 4 9t9 10q5 5 20.5 32.5t34 64.5t33.5 68q3 11 11 35.5t17.5 56.5t18.5 64.5t16.5 58t9.5 37.5q2 13 6 21.5t5 12.5
q7 4 16.5 1t18.5 -8.5t15 -8.5q6 -8 5 -20t-6.5 -36.5t-15.5 -70.5q-21 -82 -50.5 -151t-63.5 -146v-0.5v-5.5q-12 -7 -19 -21q-5 -9 -8.5 -15.5t-8.5 -9.5q-3 -9 -6 -16l-3 -7q-1 -5 -7 -9l-12 -8q-5 -2 -6 -8t-4 -10q-22 -33 -51 -65.5t-60 -56.5t-58 -34q-18 -7 -29.5 -8
t-25.5 2zM546 733q3 12 2.5 28t-11.5 27.5t-40 10.5q-13 1 -27.5 -10t-27.5 -26.5t-22 -31.5q-14 -24 -26 -24.5t-18 12.5t-5 28q5 12 17 30.5t30.5 36.5t41.5 29t48 9q36 -3 59 -19t32 -40t3 -53q-6 -28 -21.5 -36.5t-27 -0.5t-7.5 30z" />
    <glyph glyph-name="Umacron" unicode="&#x16a;" horiz-adv-x="482" 
d="M223 -55q-48 16 -73.5 53.5t-27.5 105t20 171.5q7 35 20 80t30.5 92.5t37 92t38.5 78.5q23 41 37 52.5t26 9.5q21 -4 30.5 -18.5t8 -30.5t-18.5 -27q-11 -13 -28.5 -47.5t-35.5 -66.5q-20 -58 -35 -102.5t-25 -83.5t-18 -82q-9 -42 -14 -67.5t-6.5 -41t-1.5 -27v-25.5
q8 -13 13 -23t13 -12q17 -8 37 -5.5t41 14.5q5 10 13 14l8 4q2 -5 4.5 -2.5t3.5 6.5q-1 4 2 7.5t7 7.5q8 3 22.5 19.5t29.5 37t25.5 37.5t10.5 21q0 5 4 9t9 10q5 5 20.5 32.5t34 64.5t33.5 68q3 11 11 35.5t17.5 56.5t18.5 64.5t16.5 58t9.5 37.5q2 13 6 21.5t5 12.5
q7 4 16.5 1t18.5 -8.5t15 -8.5q6 -8 5 -20t-6.5 -36.5t-15.5 -70.5q-21 -82 -50.5 -151t-63.5 -146v-0.5v-5.5q-12 -7 -19 -21q-5 -9 -8.5 -15.5t-8.5 -9.5q-3 -9 -6 -16l-3 -7q-1 -5 -7 -9l-12 -8q-5 -2 -6 -8t-4 -10q-22 -33 -51 -65.5t-60 -56.5t-58 -34q-18 -7 -29.5 -8
t-25.5 2zM437 761q-7 0 -16.5 1t-18.5 4q-15 0 -20.5 3t-10.5 12q-9 15 0.5 21t43.5 10q33 5 66.5 8.5t69.5 3.5q25 0 44 -3t30 -12q13 -14 9.5 -27.5t-24.5 -12.5q-6 0 -20.5 -1t-31 -1.5t-28.5 -0.5q-7 -1 -22 -2t-34 -2t-37 -1z" />
    <glyph glyph-name="Uogonek" unicode="&#x172;" horiz-adv-x="482" 
d="M223 -55q-48 16 -73.5 53.5t-27.5 105t20 171.5q7 35 20 80t30.5 92.5t37 92t38.5 78.5q23 41 37 52.5t26 9.5q21 -4 30.5 -18.5t8 -30.5t-18.5 -27q-11 -13 -28.5 -47.5t-35.5 -66.5q-20 -58 -35 -102.5t-25 -83.5t-18 -82q-9 -42 -14 -67.5t-6.5 -41t-1.5 -27v-25.5
q8 -13 13 -23t13 -12q17 -8 37 -5.5t41 14.5q5 10 13 14l8 4q2 -5 4.5 -2.5t3.5 6.5q-1 4 2 7.5t7 7.5q8 3 22.5 19.5t29.5 37t25.5 37.5t10.5 21q0 5 4 9t9 10q5 5 20.5 32.5t34 64.5t33.5 68q3 11 11 35.5t17.5 56.5t18.5 64.5t16.5 58t9.5 37.5q2 13 6 21.5t5 12.5
q7 4 16.5 1t18.5 -8.5t15 -8.5q6 -8 5 -20t-6.5 -36.5t-15.5 -70.5q-21 -82 -50.5 -151t-63.5 -146v-0.5v-5.5q-12 -7 -19 -21q-5 -9 -8.5 -15.5t-8.5 -9.5q-3 -9 -6 -16l-3 -7q-1 -5 -7 -9l-12 -8q-5 -2 -6 -8t-4 -10q-22 -33 -51 -65.5t-60 -56.5t-58 -34q-18 -7 -29.5 -8
t-25.5 2zM139 -227q-20 6 -36 21.5t-21.5 37.5t6.5 44q12 23 34.5 46.5t48.5 44.5t48 35l38 -30q-22 -13 -52.5 -38.5t-48.5 -47.5q-14 -17 -19.5 -30.5t1.5 -24.5q3 -6 18 -6q23 4 39 14t41 22q13 7 20 3t8.5 -14t-3 -20t-16.5 -15q-4 -1 -17 -7.5t-29.5 -13.5t-32.5 -13
t-27 -8z" />
    <glyph glyph-name="Uring" unicode="&#x16e;" horiz-adv-x="482" 
d="M223 -55q-48 16 -73.5 53.5t-27.5 105t20 171.5q7 35 20 80t30.5 92.5t37 92t38.5 78.5q23 41 37 52.5t26 9.5q21 -4 30.5 -18.5t8 -30.5t-18.5 -27q-11 -13 -28.5 -47.5t-35.5 -66.5q-20 -58 -35 -102.5t-25 -83.5t-18 -82q-9 -42 -14 -67.5t-6.5 -41t-1.5 -27v-25.5
q8 -13 13 -23t13 -12q17 -8 37 -5.5t41 14.5q5 10 13 14l8 4q2 -5 4.5 -2.5t3.5 6.5q-1 4 2 7.5t7 7.5q8 3 22.5 19.5t29.5 37t25.5 37.5t10.5 21q0 5 4 9t9 10q5 5 20.5 32.5t34 64.5t33.5 68q3 11 11 35.5t17.5 56.5t18.5 64.5t16.5 58t9.5 37.5q2 13 6 21.5t5 12.5
q7 4 16.5 1t18.5 -8.5t15 -8.5q6 -8 5 -20t-6.5 -36.5t-15.5 -70.5q-21 -82 -50.5 -151t-63.5 -146v-0.5v-5.5q-12 -7 -19 -21q-5 -9 -8.5 -15.5t-8.5 -9.5q-3 -9 -6 -16l-3 -7q-1 -5 -7 -9l-12 -8q-5 -2 -6 -8t-4 -10q-22 -33 -51 -65.5t-60 -56.5t-58 -34q-18 -7 -29.5 -8
t-25.5 2zM508 688q-34 0 -49 20.5t-20 51.5q0 23 9 46.5t26 39t38 15.5q36 0 57.5 -16t21.5 -45q-1 -28 -11.5 -54t-28.5 -42t-43 -16zM506 734q18 0 28 12t9 32q0 14 -4.5 25t-20.5 11q-36 -1 -36 -47q0 -10 8 -21.5t16 -11.5z" />
    <glyph glyph-name="Utilde" unicode="&#x168;" horiz-adv-x="482" 
d="M223 -55q-48 16 -73.5 53.5t-27.5 105t20 171.5q7 35 20 80t30.5 92.5t37 92t38.5 78.5q23 41 37 52.5t26 9.5q21 -4 30.5 -18.5t8 -30.5t-18.5 -27q-11 -13 -28.5 -47.5t-35.5 -66.5q-20 -58 -35 -102.5t-25 -83.5t-18 -82q-9 -42 -14 -67.5t-6.5 -41t-1.5 -27v-25.5
q8 -13 13 -23t13 -12q17 -8 37 -5.5t41 14.5q5 10 13 14l8 4q2 -5 4.5 -2.5t3.5 6.5q-1 4 2 7.5t7 7.5q8 3 22.5 19.5t29.5 37t25.5 37.5t10.5 21q0 5 4 9t9 10q5 5 20.5 32.5t34 64.5t33.5 68q3 11 11 35.5t17.5 56.5t18.5 64.5t16.5 58t9.5 37.5q2 13 6 21.5t5 12.5
q7 4 16.5 1t18.5 -8.5t15 -8.5q6 -8 5 -20t-6.5 -36.5t-15.5 -70.5q-21 -82 -50.5 -151t-63.5 -146v-0.5v-5.5q-12 -7 -19 -21q-5 -9 -8.5 -15.5t-8.5 -9.5q-3 -9 -6 -16l-3 -7q-1 -5 -7 -9l-12 -8q-5 -2 -6 -8t-4 -10q-22 -33 -51 -65.5t-60 -56.5t-58 -34q-18 -7 -29.5 -8
t-25.5 2zM551 728q-18 0 -31.5 7.5t-32.5 21.5q-9 5 -23.5 19.5t-26.5 14.5q-10 0 -16.5 -8t-12.5 -16.5t-17 -10.5q-1 -5 -5.5 -12.5t-8.5 -2.5q-10 3 -16 10.5t-7 16.5q4 14 19 36t46 38q18 6 38.5 0t36.5 -22q23 -20 35.5 -27.5t31.5 0.5q15 4 31.5 15t37.5 19
q7 3 13.5 -2t10 -13t2.5 -14t-8 -16.5t-16 -15.5q-30 -17 -46.5 -25t-23.5 -10.5t-11 -2.5z" />
    <glyph glyph-name="V" unicode="V" horiz-adv-x="490" 
d="M261 -59q-5 2 -7 6t-4 16q0 11 -6 16t-23 9q-11 11 -16.5 25.5t-8.5 46.5t-7 96q2 35 3.5 59t3.5 45t4.5 45t7.5 60q-2 23 2.5 50t1.5 43q7 22 9 50.5t9 50.5q2 17 4.5 32t2.5 25q-2 20 3 38.5t20 25.5q6 2 17 2.5t16 -2.5q11 -5 13.5 -16t1.5 -22q2 -11 1.5 -38
t-4 -59.5t-10.5 -63.5q-8 -41 -12.5 -83.5t-6.5 -83.5q-4 -82 -8 -136t-1 -78q0 -3 1.5 -13.5t4 -19.5t5.5 -9q7 1 12.5 11.5t11 25.5t11.5 28q13 25 26.5 54.5t23.5 56.5q18 42 36 72t34 67q6 16 21.5 46.5t29.5 56.5q17 26 32.5 50t36.5 64q29 48 47 67.5t34 19.5
q11 2 15 0.5t11 -11.5q8 -11 9 -23.5t-9 -33t-36 -57.5q-20 -30 -44.5 -70t-45 -75.5t-29.5 -52.5q-5 -11 -9 -23t-12 -22q-10 -10 -27 -43t-33 -65q-18 -42 -28.5 -65.5t-17 -38.5t-12.5 -29l-15 -35q-5 -17 -13.5 -33.5t-9.5 -22.5q-7 -11 -20.5 -20.5t-26.5 -14t-20 -1.5
z" />
    <glyph glyph-name="W" unicode="W" horiz-adv-x="720" 
d="M500 -56q-13 -1 -23.5 5.5t-14.5 16.5q-4 5 -12.5 18.5t-10.5 25.5q-3 32 -3.5 62t2.5 84q3 44 11.5 83t17.5 69.5t14 47.5t2 17q-4 0 -11 -12t-15.5 -30t-17.5 -36.5t-16 -31.5q-14 -31 -32.5 -65.5t-37.5 -66.5t-33 -56q-9 -10 -21 -28.5t-26 -38.5t-29 -33
q-22 -21 -44 -24t-38 9q-6 3 -12 10t-9.5 17.5t-0.5 22.5q-1 14 0.5 43.5t5.5 65t8.5 68.5t8.5 55q9 64 24.5 131t28.5 135q8 20 14.5 45.5t13.5 47.5q1 22 12 29t24.5 4t20.5 -13q10 -10 17 -31t-7 -53q-20 -49 -38.5 -119.5t-33.5 -170.5q-4 -24 -9 -56t-9 -61.5
t-5.5 -49.5t0.5 -21q8 -2 20.5 11.5t23.5 37.5q41 68 80.5 140t76.5 145q17 29 34.5 63.5t33.5 63.5q17 30 31.5 55.5t25 43t16.5 19.5q20 -1 32 -10t20 -29q2 -5 0.5 -17t-5.5 -21q-1 -7 -8.5 -29t-13.5 -49q-10 -27 -17.5 -53.5t-10.5 -43.5q-8 -43 -20 -94.5t-20.5 -102
t-9.5 -89.5q-1 -28 0.5 -41.5t5.5 -22.5q2 -8 11 -8t16 9q18 24 30.5 42.5t23.5 38.5t25 47q25 46 51.5 102t51 111.5t42.5 97.5q19 54 31 86.5t22 49t20 22.5q5 4 16.5 4t20.5 -8q4 -4 9.5 -12.5t4.5 -20.5q-5 -16 -18 -51.5t-29.5 -78t-32 -81t-26.5 -61.5
q-11 -21 -21 -36t-10 -23q0 -4 -10 -24.5t-25.5 -49.5t-33.5 -60t-34 -57t-27 -40q-25 -31 -50 -51.5t-43.5 -30t-25.5 -9.5z" />
    <glyph glyph-name="Wacute" unicode="&#x1e82;" horiz-adv-x="720" 
d="M500 -56q-13 -1 -23.5 5.5t-14.5 16.5q-4 5 -12.5 18.5t-10.5 25.5q-3 32 -3.5 62t2.5 84q3 44 11.5 83t17.5 69.5t14 47.5t2 17q-4 0 -11 -12t-15.5 -30t-17.5 -36.5t-16 -31.5q-14 -31 -32.5 -65.5t-37.5 -66.5t-33 -56q-9 -10 -21 -28.5t-26 -38.5t-29 -33
q-22 -21 -44 -24t-38 9q-6 3 -12 10t-9.5 17.5t-0.5 22.5q-1 14 0.5 43.5t5.5 65t8.5 68.5t8.5 55q9 64 24.5 131t28.5 135q8 20 14.5 45.5t13.5 47.5q1 22 12 29t24.5 4t20.5 -13q10 -10 17 -31t-7 -53q-20 -49 -38.5 -119.5t-33.5 -170.5q-4 -24 -9 -56t-9 -61.5
t-5.5 -49.5t0.5 -21q8 -2 20.5 11.5t23.5 37.5q41 68 80.5 140t76.5 145q17 29 34.5 63.5t33.5 63.5q17 30 31.5 55.5t25 43t16.5 19.5q20 -1 32 -10t20 -29q2 -5 0.5 -17t-5.5 -21q-1 -7 -8.5 -29t-13.5 -49q-10 -27 -17.5 -53.5t-10.5 -43.5q-8 -43 -20 -94.5t-20.5 -102
t-9.5 -89.5q-1 -28 0.5 -41.5t5.5 -22.5q2 -8 11 -8t16 9q18 24 30.5 42.5t23.5 38.5t25 47q25 46 51.5 102t51 111.5t42.5 97.5q19 54 31 86.5t22 49t20 22.5q5 4 16.5 4t20.5 -8q4 -4 9.5 -12.5t4.5 -20.5q-5 -16 -18 -51.5t-29.5 -78t-32 -81t-26.5 -61.5
q-11 -21 -21 -36t-10 -23q0 -4 -10 -24.5t-25.5 -49.5t-33.5 -60t-34 -57t-27 -40q-25 -31 -50 -51.5t-43.5 -30t-25.5 -9.5zM574 714q-7 7 -10.5 20t-2.5 24q1 5 13.5 20t29.5 33t33.5 32.5t24.5 17.5q12 7 23.5 -4.5t18.5 -29.5q3 -9 -8 -21.5t-28 -26.5t-33 -27.5
t-24 -24.5q-10 -16 -17.5 -18.5t-19.5 5.5z" />
    <glyph glyph-name="Wcircumflex" unicode="&#x174;" horiz-adv-x="720" 
d="M500 -56q-13 -1 -23.5 5.5t-14.5 16.5q-4 5 -12.5 18.5t-10.5 25.5q-3 32 -3.5 62t2.5 84q3 44 11.5 83t17.5 69.5t14 47.5t2 17q-4 0 -11 -12t-15.5 -30t-17.5 -36.5t-16 -31.5q-14 -31 -32.5 -65.5t-37.5 -66.5t-33 -56q-9 -10 -21 -28.5t-26 -38.5t-29 -33
q-22 -21 -44 -24t-38 9q-6 3 -12 10t-9.5 17.5t-0.5 22.5q-1 14 0.5 43.5t5.5 65t8.5 68.5t8.5 55q9 64 24.5 131t28.5 135q8 20 14.5 45.5t13.5 47.5q1 22 12 29t24.5 4t20.5 -13q10 -10 17 -31t-7 -53q-20 -49 -38.5 -119.5t-33.5 -170.5q-4 -24 -9 -56t-9 -61.5
t-5.5 -49.5t0.5 -21q8 -2 20.5 11.5t23.5 37.5q41 68 80.5 140t76.5 145q17 29 34.5 63.5t33.5 63.5q17 30 31.5 55.5t25 43t16.5 19.5q20 -1 32 -10t20 -29q2 -5 0.5 -17t-5.5 -21q-1 -7 -8.5 -29t-13.5 -49q-10 -27 -17.5 -53.5t-10.5 -43.5q-8 -43 -20 -94.5t-20.5 -102
t-9.5 -89.5q-1 -28 0.5 -41.5t5.5 -22.5q2 -8 11 -8t16 9q18 24 30.5 42.5t23.5 38.5t25 47q25 46 51.5 102t51 111.5t42.5 97.5q19 54 31 86.5t22 49t20 22.5q5 4 16.5 4t20.5 -8q4 -4 9.5 -12.5t4.5 -20.5q-5 -16 -18 -51.5t-29.5 -78t-32 -81t-26.5 -61.5
q-11 -21 -21 -36t-10 -23q0 -4 -10 -24.5t-25.5 -49.5t-33.5 -60t-34 -57t-27 -40q-25 -31 -50 -51.5t-43.5 -30t-25.5 -9.5zM562 729q-17 -17 -29.5 -13.5t-16 17.5t6.5 28q3 4 14.5 14.5t27 24t31 25t25.5 17.5q10 9 20 8t16 -10q12 -10 29.5 -27.5t32.5 -33t19 -20.5
q6 -9 4.5 -20.5t-9 -19t-18.5 -5t-25 18.5q-7 8 -22.5 23.5t-30.5 28.5q-12 -7 -27 -18t-28 -21.5t-20 -16.5z" />
    <glyph glyph-name="Wdieresis" unicode="&#x1e84;" horiz-adv-x="720" 
d="M500 -56q-13 -1 -23.5 5.5t-14.5 16.5q-4 5 -12.5 18.5t-10.5 25.5q-3 32 -3.5 62t2.5 84q3 44 11.5 83t17.5 69.5t14 47.5t2 17q-4 0 -11 -12t-15.5 -30t-17.5 -36.5t-16 -31.5q-14 -31 -32.5 -65.5t-37.5 -66.5t-33 -56q-9 -10 -21 -28.5t-26 -38.5t-29 -33
q-22 -21 -44 -24t-38 9q-6 3 -12 10t-9.5 17.5t-0.5 22.5q-1 14 0.5 43.5t5.5 65t8.5 68.5t8.5 55q9 64 24.5 131t28.5 135q8 20 14.5 45.5t13.5 47.5q1 22 12 29t24.5 4t20.5 -13q10 -10 17 -31t-7 -53q-20 -49 -38.5 -119.5t-33.5 -170.5q-4 -24 -9 -56t-9 -61.5
t-5.5 -49.5t0.5 -21q8 -2 20.5 11.5t23.5 37.5q41 68 80.5 140t76.5 145q17 29 34.5 63.5t33.5 63.5q17 30 31.5 55.5t25 43t16.5 19.5q20 -1 32 -10t20 -29q2 -5 0.5 -17t-5.5 -21q-1 -7 -8.5 -29t-13.5 -49q-10 -27 -17.5 -53.5t-10.5 -43.5q-8 -43 -20 -94.5t-20.5 -102
t-9.5 -89.5q-1 -28 0.5 -41.5t5.5 -22.5q2 -8 11 -8t16 9q18 24 30.5 42.5t23.5 38.5t25 47q25 46 51.5 102t51 111.5t42.5 97.5q19 54 31 86.5t22 49t20 22.5q5 4 16.5 4t20.5 -8q4 -4 9.5 -12.5t4.5 -20.5q-5 -16 -18 -51.5t-29.5 -78t-32 -81t-26.5 -61.5
q-11 -21 -21 -36t-10 -23q0 -4 -10 -24.5t-25.5 -49.5t-33.5 -60t-34 -57t-27 -40q-25 -31 -50 -51.5t-43.5 -30t-25.5 -9.5zM666 749q-7 7 -11.5 19t-3.5 16q2 5 7.5 20t11.5 20q4 4 10 11t10 8q12 10 24.5 4t18.5 -22q12 -17 7.5 -31.5t-19.5 -32.5q-17 -24 -30.5 -24.5
t-24.5 12.5zM532 745q-9 8 -14.5 21t-4.5 18q2 8 9.5 24t14.5 22q3 2 7.5 7t8.5 6q10 7 19 4.5t16 -10t10 -18.5q8 -14 4.5 -26.5t-17.5 -29.5q-16 -21 -29 -25t-24 7z" />
    <glyph glyph-name="Wgrave" unicode="&#x1e80;" horiz-adv-x="720" 
d="M500 -56q-13 -1 -23.5 5.5t-14.5 16.5q-4 5 -12.5 18.5t-10.5 25.5q-3 32 -3.5 62t2.5 84q3 44 11.5 83t17.5 69.5t14 47.5t2 17q-4 0 -11 -12t-15.5 -30t-17.5 -36.5t-16 -31.5q-14 -31 -32.5 -65.5t-37.5 -66.5t-33 -56q-9 -10 -21 -28.5t-26 -38.5t-29 -33
q-22 -21 -44 -24t-38 9q-6 3 -12 10t-9.5 17.5t-0.5 22.5q-1 14 0.5 43.5t5.5 65t8.5 68.5t8.5 55q9 64 24.5 131t28.5 135q8 20 14.5 45.5t13.5 47.5q1 22 12 29t24.5 4t20.5 -13q10 -10 17 -31t-7 -53q-20 -49 -38.5 -119.5t-33.5 -170.5q-4 -24 -9 -56t-9 -61.5
t-5.5 -49.5t0.5 -21q8 -2 20.5 11.5t23.5 37.5q41 68 80.5 140t76.5 145q17 29 34.5 63.5t33.5 63.5q17 30 31.5 55.5t25 43t16.5 19.5q20 -1 32 -10t20 -29q2 -5 0.5 -17t-5.5 -21q-1 -7 -8.5 -29t-13.5 -49q-10 -27 -17.5 -53.5t-10.5 -43.5q-8 -43 -20 -94.5t-20.5 -102
t-9.5 -89.5q-1 -28 0.5 -41.5t5.5 -22.5q2 -8 11 -8t16 9q18 24 30.5 42.5t23.5 38.5t25 47q25 46 51.5 102t51 111.5t42.5 97.5q19 54 31 86.5t22 49t20 22.5q5 4 16.5 4t20.5 -8q4 -4 9.5 -12.5t4.5 -20.5q-5 -16 -18 -51.5t-29.5 -78t-32 -81t-26.5 -61.5
q-11 -21 -21 -36t-10 -23q0 -4 -10 -24.5t-25.5 -49.5t-33.5 -60t-34 -57t-27 -40q-25 -31 -50 -51.5t-43.5 -30t-25.5 -9.5zM641 709q-9 -6 -13 -3.5t-7 11t-8 19.5q-8 17 -23.5 39.5t-24 43.5t0.5 33q16 15 26 19t20 -7q7 -4 16.5 -21t19 -38.5t16 -39.5t6.5 -24
q1 -4 -8.5 -16.5t-20.5 -15.5z" />
    <glyph glyph-name="X" unicode="X" horiz-adv-x="524" 
d="M633 645q20 -1 27 -18t0 -45t-31 -62q-23 -23 -26 -39q-7 -9 -21.5 -25.5t-31 -35t-29 -32.5t-16.5 -17q-14 -12 -31.5 -28t-31 -29.5t-17.5 -18.5q-7 -7 -13 -14.5t-11 -9.5q-1 -4 -6 -9.5t-7 -10.5q-2 -1 -13 -11t-24.5 -22.5t-24 -22.5t-11.5 -12q-11 -10 -34 -34.5
t-51 -54.5t-54 -58.5t-43.5 -49t-19.5 -25.5q-4 -8 -12.5 -10.5t-16.5 -0.5q-4 -2 -11.5 -1.5t-9.5 1.5l-2 5t-4 16q-6 10 -2.5 23.5t7.5 24.5q7 13 14 22t24 24.5t52 48.5q16 16 32.5 30.5t17.5 17.5q1 4 8 11t14 17q7 5 23.5 20.5t36.5 35t39.5 38.5t32.5 31
q6 8 14.5 16.5t18.5 20.5q1 2 13.5 14.5t29.5 30t32.5 34t23.5 25.5q40 47 72.5 88.5t45.5 69.5q10 21 14.5 25.5t12.5 5.5zM492 -28q-19 2 -39.5 20t-43.5 59q-37 51 -65 123.5t-39 156.5q-5 35 -11 60.5t-8 27.5q-1 4 1.5 5.5l2.5 1.5q3 3 1 6.5t-4 8.5l-5 23t-8 57
q-4 36 -6.5 62.5t-4.5 34.5q-3 2 -3 6v4q2 6 7.5 11.5l8.5 8.5q15 11 31 5.5t26.5 -23.5t10.5 -43q0 -26 6 -32q-1 -2 -0.5 -15t2 -29.5t3.5 -30.5t3 -19q-4 -12 0 -17q1 -8 3 -21.5t1 -18.5t2.5 -17.5t6.5 -25.5l26 -90q8 -32 15 -56.5t17 -48t24 -52.5q11 -24 26 -44.5
t27 -27.5q2 -2 10.5 -2.5t10.5 2.5q11 3 16 -4.5t7 -18.5t2 -21q2 -7 -7 -14t-23.5 -10.5t-29.5 -1.5z" />
    <glyph glyph-name="Y" unicode="Y" horiz-adv-x="504" 
d="M325 264l-35 44q-20 30 -32 56t-17 64q-7 24 -9 45t-1.5 48.5t1.5 68.5q1 38 9.5 57.5t12.5 27.5q14 14 24 4.5t16 -32.5t5 -52q3 -107 14.5 -167.5t31.5 -73.5q12 -3 21.5 1.5t26.5 23t51 54.5q27 29 55.5 62t54 63t46 51.5t32.5 28.5q4 6 10 9.5t12 4.5l6 1
q8 -2 9 -12.5t8 -20.5q2 -4 5 -9.5t2 -10.5q0 -3 -5.5 -9.5t-12 -13l-11.5 -11.5q-13 -11 -40.5 -38.5t-56.5 -59t-49 -56.5q-44 -51 -78.5 -88t-42.5 -44q-1 -2 -13.5 -10t-17.5 -16zM259 -71q-4 1 -13.5 7.5t-19.5 13.5q-7 8 -8.5 15.5t2.5 21.5t11 41q1 23 9.5 56
t20.5 55q0 11 5 30t12.5 39.5t13.5 35.5l18 52l40 34l36 -33q-4 -6 -7 -14t-8 -27t-15 -59q-8 -27 -17.5 -58t-17.5 -58t-14 -44q-12 -45 -19.5 -69.5t-13 -33t-15.5 -5.5z" />
    <glyph glyph-name="Yacute" unicode="&#xdd;" horiz-adv-x="504" 
d="M325 264l-35 44q-20 30 -32 56t-17 64q-7 24 -9 45t-1.5 48.5t1.5 68.5q1 38 9.5 57.5t12.5 27.5q14 14 24 4.5t16 -32.5t5 -52q3 -107 14.5 -167.5t31.5 -73.5q12 -3 21.5 1.5t26.5 23t51 54.5q27 29 55.5 62t54 63t46 51.5t32.5 28.5q4 6 10 9.5t12 4.5l6 1
q8 -2 9 -12.5t8 -20.5q2 -4 5 -9.5t2 -10.5q0 -3 -5.5 -9.5t-12 -13l-11.5 -11.5q-13 -11 -40.5 -38.5t-56.5 -59t-49 -56.5q-44 -51 -78.5 -88t-42.5 -44q-1 -2 -13.5 -10t-17.5 -16zM259 -71q-4 1 -13.5 7.5t-19.5 13.5q-7 8 -8.5 15.5t2.5 21.5t11 41q1 23 9.5 56
t20.5 55q0 11 5 30t12.5 39.5t13.5 35.5l18 52l40 34l36 -33q-4 -6 -7 -14t-8 -27t-15 -59q-8 -27 -17.5 -58t-17.5 -58t-14 -44q-12 -45 -19.5 -69.5t-13 -33t-15.5 -5.5zM459 715q-7 7 -10.5 20t-2.5 24q1 5 13.5 20t29.5 33t33.5 32.5t24.5 17.5q12 7 23.5 -4.5
t18.5 -29.5q3 -9 -8 -21.5t-28 -26.5t-33 -27.5t-24 -24.5q-10 -16 -17.5 -18.5t-19.5 5.5z" />
    <glyph glyph-name="Ycircumflex" unicode="&#x176;" horiz-adv-x="504" 
d="M325 264l-35 44q-20 30 -32 56t-17 64q-7 24 -9 45t-1.5 48.5t1.5 68.5q1 38 9.5 57.5t12.5 27.5q14 14 24 4.5t16 -32.5t5 -52q3 -107 14.5 -167.5t31.5 -73.5q12 -3 21.5 1.5t26.5 23t51 54.5q27 29 55.5 62t54 63t46 51.5t32.5 28.5q4 6 10 9.5t12 4.5l6 1
q8 -2 9 -12.5t8 -20.5q2 -4 5 -9.5t2 -10.5q0 -3 -5.5 -9.5t-12 -13l-11.5 -11.5q-13 -11 -40.5 -38.5t-56.5 -59t-49 -56.5q-44 -51 -78.5 -88t-42.5 -44q-1 -2 -13.5 -10t-17.5 -16zM259 -71q-4 1 -13.5 7.5t-19.5 13.5q-7 8 -8.5 15.5t2.5 21.5t11 41q1 23 9.5 56
t20.5 55q0 11 5 30t12.5 39.5t13.5 35.5l18 52l40 34l36 -33q-4 -6 -7 -14t-8 -27t-15 -59q-8 -27 -17.5 -58t-17.5 -58t-14 -44q-12 -45 -19.5 -69.5t-13 -33t-15.5 -5.5zM420 729q-17 -17 -29.5 -13.5t-16 17.5t6.5 28q3 4 14.5 14.5t27 24t31 25t25.5 17.5q10 9 20 8
t16 -10q12 -10 29.5 -27.5t32.5 -33t19 -20.5q6 -9 4.5 -20.5t-9 -19t-18.5 -5t-25 18.5q-7 8 -22.5 23.5t-30.5 28.5q-12 -7 -27 -18t-28 -21.5t-20 -16.5z" />
    <glyph glyph-name="Ydieresis" unicode="&#x178;" horiz-adv-x="504" 
d="M325 264l-35 44q-20 30 -32 56t-17 64q-7 24 -9 45t-1.5 48.5t1.5 68.5q1 38 9.5 57.5t12.5 27.5q14 14 24 4.5t16 -32.5t5 -52q3 -107 14.5 -167.5t31.5 -73.5q12 -3 21.5 1.5t26.5 23t51 54.5q27 29 55.5 62t54 63t46 51.5t32.5 28.5q4 6 10 9.5t12 4.5l6 1
q8 -2 9 -12.5t8 -20.5q2 -4 5 -9.5t2 -10.5q0 -3 -5.5 -9.5t-12 -13l-11.5 -11.5q-13 -11 -40.5 -38.5t-56.5 -59t-49 -56.5q-44 -51 -78.5 -88t-42.5 -44q-1 -2 -13.5 -10t-17.5 -16zM259 -71q-4 1 -13.5 7.5t-19.5 13.5q-7 8 -8.5 15.5t2.5 21.5t11 41q1 23 9.5 56
t20.5 55q0 11 5 30t12.5 39.5t13.5 35.5l18 52l40 34l36 -33q-4 -6 -7 -14t-8 -27t-15 -59q-8 -27 -17.5 -58t-17.5 -58t-14 -44q-12 -45 -19.5 -69.5t-13 -33t-15.5 -5.5zM524 749q-7 7 -11.5 19t-3.5 16q2 5 7.5 20t11.5 20q4 4 10 11t10 8q12 10 24.5 4t18.5 -22
q12 -17 7.5 -31.5t-19.5 -32.5q-17 -24 -30.5 -24.5t-24.5 12.5zM390 745q-9 8 -14.5 21t-4.5 18q2 8 9.5 24t14.5 22q3 2 7.5 7t8.5 6q10 7 19 4.5t16 -10t10 -18.5q8 -14 4.5 -26.5t-17.5 -29.5q-16 -21 -29 -25t-24 7z" />
    <glyph glyph-name="Ygrave" unicode="&#x1ef2;" horiz-adv-x="504" 
d="M325 264l-35 44q-20 30 -32 56t-17 64q-7 24 -9 45t-1.5 48.5t1.5 68.5q1 38 9.5 57.5t12.5 27.5q14 14 24 4.5t16 -32.5t5 -52q3 -107 14.5 -167.5t31.5 -73.5q12 -3 21.5 1.5t26.5 23t51 54.5q27 29 55.5 62t54 63t46 51.5t32.5 28.5q4 6 10 9.5t12 4.5l6 1
q8 -2 9 -12.5t8 -20.5q2 -4 5 -9.5t2 -10.5q0 -3 -5.5 -9.5t-12 -13l-11.5 -11.5q-13 -11 -40.5 -38.5t-56.5 -59t-49 -56.5q-44 -51 -78.5 -88t-42.5 -44q-1 -2 -13.5 -10t-17.5 -16zM259 -71q-4 1 -13.5 7.5t-19.5 13.5q-7 8 -8.5 15.5t2.5 21.5t11 41q1 23 9.5 56
t20.5 55q0 11 5 30t12.5 39.5t13.5 35.5l18 52l40 34l36 -33q-4 -6 -7 -14t-8 -27t-15 -59q-8 -27 -17.5 -58t-17.5 -58t-14 -44q-12 -45 -19.5 -69.5t-13 -33t-15.5 -5.5zM485 709q-9 -6 -13 -3.5t-7 11t-8 19.5q-8 17 -23.5 39.5t-24 43.5t0.5 33q16 15 26 19t20 -7
q7 -4 16.5 -21t19 -38.5t16 -39.5t6.5 -24q1 -4 -8.5 -16.5t-20.5 -15.5z" />
    <glyph glyph-name="uni1EF8" unicode="&#x1ef8;" horiz-adv-x="504" 
d="M325 264l-35 44q-20 30 -32 56t-17 64q-7 24 -9 45t-1.5 48.5t1.5 68.5q1 38 9.5 57.5t12.5 27.5q14 14 24 4.5t16 -32.5t5 -52q3 -107 14.5 -167.5t31.5 -73.5q12 -3 21.5 1.5t26.5 23t51 54.5q27 29 55.5 62t54 63t46 51.5t32.5 28.5q4 6 10 9.5t12 4.5l6 1
q8 -2 9 -12.5t8 -20.5q2 -4 5 -9.5t2 -10.5q0 -3 -5.5 -9.5t-12 -13l-11.5 -11.5q-13 -11 -40.5 -38.5t-56.5 -59t-49 -56.5q-44 -51 -78.5 -88t-42.5 -44q-1 -2 -13.5 -10t-17.5 -16zM259 -71q-4 1 -13.5 7.5t-19.5 13.5q-7 8 -8.5 15.5t2.5 21.5t11 41q1 23 9.5 56
t20.5 55q0 11 5 30t12.5 39.5t13.5 35.5l18 52l40 34l36 -33q-4 -6 -7 -14t-8 -27t-15 -59q-8 -27 -17.5 -58t-17.5 -58t-14 -44q-12 -45 -19.5 -69.5t-13 -33t-15.5 -5.5zM521 728q-18 0 -31.5 7.5t-32.5 21.5q-9 5 -23.5 19.5t-26.5 14.5q-10 0 -16.5 -8t-12.5 -16.5
t-17 -10.5q-1 -5 -5.5 -12.5t-8.5 -2.5q-10 3 -16 10.5t-7 16.5q4 14 19 36t46 38q18 6 38.5 0t36.5 -22q23 -20 35.5 -27.5t31.5 0.5q15 4 31.5 15t37.5 19q7 3 13.5 -2t10 -13t2.5 -14t-8 -16.5t-16 -15.5q-30 -17 -46.5 -25t-23.5 -10.5t-11 -2.5z" />
    <glyph glyph-name="Z" unicode="Z" horiz-adv-x="522" 
d="M121 -43q-21 2 -39 5.5t-23 23.5q-4 16 2.5 34t16.5 28q17 18 37 40t48 49.5t68 65.5t98 89q40 34 64 56.5t43 41.5t42 43q35 36 60.5 67.5t30.5 51.5q6 20 -0.5 28.5t-26 12t-54.5 5.5q-62 5 -111 -0.5t-93 -13.5q-7 -2 -16.5 4.5t-9.5 10.5q4 5 4 11.5t-8 12.5
q-4 10 0 17t8 11q8 4 27.5 6t42.5 6q15 3 44.5 4t60 1t48.5 -2q36 -3 70.5 -7t60.5 -14t35 -32q11 -23 4.5 -41t-17.5 -48q-12 -22 -40.5 -58.5t-65 -76t-74.5 -74.5q-56 -52 -100.5 -92.5t-88.5 -78.5q-28 -24 -54.5 -48t-54.5 -50q-10 -13 -3.5 -20t47.5 -5q23 1 36 4
t28 6t42 4q52 3 94 5.5t70 2.5q8 0 13.5 -2t15.5 -16q9 -3 11 -10.5t-1.5 -15.5t-12.5 -15q-7 0 -24.5 -3.5t-38 -6t-36.5 -1.5q-13 1 -49.5 -1.5t-78.5 -7.5q-37 -6 -81 -7t-71 0z" />
    <glyph glyph-name="Zacute" unicode="&#x179;" horiz-adv-x="522" 
d="M121 -43q-21 2 -39 5.5t-23 23.5q-4 16 2.5 34t16.5 28q17 18 37 40t48 49.5t68 65.5t98 89q40 34 64 56.5t43 41.5t42 43q35 36 60.5 67.5t30.5 51.5q6 20 -0.5 28.5t-26 12t-54.5 5.5q-62 5 -111 -0.5t-93 -13.5q-7 -2 -16.5 4.5t-9.5 10.5q4 5 4 11.5t-8 12.5
q-4 10 0 17t8 11q8 4 27.5 6t42.5 6q15 3 44.5 4t60 1t48.5 -2q36 -3 70.5 -7t60.5 -14t35 -32q11 -23 4.5 -41t-17.5 -48q-12 -22 -40.5 -58.5t-65 -76t-74.5 -74.5q-56 -52 -100.5 -92.5t-88.5 -78.5q-28 -24 -54.5 -48t-54.5 -50q-10 -13 -3.5 -20t47.5 -5q23 1 36 4
t28 6t42 4q52 3 94 5.5t70 2.5q8 0 13.5 -2t15.5 -16q9 -3 11 -10.5t-1.5 -15.5t-12.5 -15q-7 0 -24.5 -3.5t-38 -6t-36.5 -1.5q-13 1 -49.5 -1.5t-78.5 -7.5q-37 -6 -81 -7t-71 0zM448 714q-7 7 -10.5 20t-2.5 24q1 5 13.5 20t29.5 33t33.5 32.5t24.5 17.5q12 7 23.5 -4.5
t18.5 -29.5q3 -9 -8 -21.5t-28 -26.5t-33 -27.5t-24 -24.5q-10 -16 -17.5 -18.5t-19.5 5.5z" />
    <glyph glyph-name="Zcaron" unicode="&#x17d;" horiz-adv-x="522" 
d="M121 -43q-21 2 -39 5.5t-23 23.5q-4 16 2.5 34t16.5 28q17 18 37 40t48 49.5t68 65.5t98 89q40 34 64 56.5t43 41.5t42 43q35 36 60.5 67.5t30.5 51.5q6 20 -0.5 28.5t-26 12t-54.5 5.5q-62 5 -111 -0.5t-93 -13.5q-7 -2 -16.5 4.5t-9.5 10.5q4 5 4 11.5t-8 12.5
q-4 10 0 17t8 11q8 4 27.5 6t42.5 6q15 3 44.5 4t60 1t48.5 -2q36 -3 70.5 -7t60.5 -14t35 -32q11 -23 4.5 -41t-17.5 -48q-12 -22 -40.5 -58.5t-65 -76t-74.5 -74.5q-56 -52 -100.5 -92.5t-88.5 -78.5q-28 -24 -54.5 -48t-54.5 -50q-10 -13 -3.5 -20t47.5 -5q23 1 36 4
t28 6t42 4q52 3 94 5.5t70 2.5q8 0 13.5 -2t15.5 -16q9 -3 11 -10.5t-1.5 -15.5t-12.5 -15q-7 0 -24.5 -3.5t-38 -6t-36.5 -1.5q-13 1 -49.5 -1.5t-78.5 -7.5q-37 -6 -81 -7t-71 0zM501 719q-8 -6 -17 -6.5t-17 8.5q-12 10 -30.5 28t-34.5 34t-19 21q-3 12 2.5 25t18 15.5
t28.5 -16.5q7 -10 23 -23.5t32 -27.5q12 7 27.5 17t29 20t20.5 16q22 15 33 11.5t13.5 -15.5t-1.5 -21q-1 -4 -14 -16t-30.5 -26t-34.5 -26t-29 -18z" />
    <glyph glyph-name="Zdotaccent" unicode="&#x17b;" horiz-adv-x="522" 
d="M121 -43q-21 2 -39 5.5t-23 23.5q-4 16 2.5 34t16.5 28q17 18 37 40t48 49.5t68 65.5t98 89q40 34 64 56.5t43 41.5t42 43q35 36 60.5 67.5t30.5 51.5q6 20 -0.5 28.5t-26 12t-54.5 5.5q-62 5 -111 -0.5t-93 -13.5q-7 -2 -16.5 4.5t-9.5 10.5q4 5 4 11.5t-8 12.5
q-4 10 0 17t8 11q8 4 27.5 6t42.5 6q15 3 44.5 4t60 1t48.5 -2q36 -3 70.5 -7t60.5 -14t35 -32q11 -23 4.5 -41t-17.5 -48q-12 -22 -40.5 -58.5t-65 -76t-74.5 -74.5q-56 -52 -100.5 -92.5t-88.5 -78.5q-28 -24 -54.5 -48t-54.5 -50q-10 -13 -3.5 -20t47.5 -5q23 1 36 4
t28 6t42 4q52 3 94 5.5t70 2.5q8 0 13.5 -2t15.5 -16q9 -3 11 -10.5t-1.5 -15.5t-12.5 -15q-7 0 -24.5 -3.5t-38 -6t-36.5 -1.5q-13 1 -49.5 -1.5t-78.5 -7.5q-37 -6 -81 -7t-71 0zM466 737q-7 7 -12 21t-4 21q2 5 8.5 22.5t20.5 29.5q3 2 6.5 6.5t7.5 5.5q12 8 24 4t25 -21
q11 -23 6.5 -37t-23.5 -37q-15 -20 -28.5 -24t-30.5 9z" />
    <glyph glyph-name="uni1E92" unicode="&#x1e92;" horiz-adv-x="522" 
d="M121 -43q-21 2 -39 5.5t-23 23.5q-4 16 2.5 34t16.5 28q17 18 37 40t48 49.5t68 65.5t98 89q40 34 64 56.5t43 41.5t42 43q35 36 60.5 67.5t30.5 51.5q6 20 -0.5 28.5t-26 12t-54.5 5.5q-62 5 -111 -0.5t-93 -13.5q-7 -2 -16.5 4.5t-9.5 10.5q4 5 4 11.5t-8 12.5
q-4 10 0 17t8 11q8 4 27.5 6t42.5 6q15 3 44.5 4t60 1t48.5 -2q36 -3 70.5 -7t60.5 -14t35 -32q11 -23 4.5 -41t-17.5 -48q-12 -22 -40.5 -58.5t-65 -76t-74.5 -74.5q-56 -52 -100.5 -92.5t-88.5 -78.5q-28 -24 -54.5 -48t-54.5 -50q-10 -13 -3.5 -20t47.5 -5q23 1 36 4
t28 6t42 4q52 3 94 5.5t70 2.5q8 0 13.5 -2t15.5 -16q9 -3 11 -10.5t-1.5 -15.5t-12.5 -15q-7 0 -24.5 -3.5t-38 -6t-36.5 -1.5q-13 1 -49.5 -1.5t-78.5 -7.5q-37 -6 -81 -7t-71 0zM207 -178q-9 9 -13 18.5t-3 14.5q3 9 9.5 24t12.5 19q5 4 9 7.5t8 4.5q12 8 23 3t18 -20
q10 -16 7.5 -27.5t-15.5 -27.5q-20 -23 -32.5 -25.5t-23.5 9.5z" />
    <glyph glyph-name="uni015E" unicode="&#x15e;" horiz-adv-x="486" 
d="M257 -55q-18 5 -29 8.5l-11 3.5q2 5 -1.5 9t-14.5 5q-15 9 -28.5 24t-23 30t-13.5 24q-7 15 -4 18.5t14 8.5q11 8 19 7.5t16 -17.5q13 -23 43 -36.5t68 -13.5t74 16q33 14 40 31.5t-10 43.5q-3 8 -7.5 13t-13.5 13t-28 26q-15 7 -27.5 13t-26.5 13q-16 8 -38 23t-41 33.5
t-28 34.5q-16 15 -22.5 41.5t-3.5 56.5t16 54q6 14 21 35t34 43t36.5 40t28.5 25q8 8 17 16.5l9 8.5q1 5 3.5 5h2.5q5 3 22 10t37 26q67 32 110.5 46t70.5 14v0v0q25 -1 46.5 -12.5t36.5 -29t18 -41.5q7 -24 -5 -56t-34 -60.5t-47 -42.5q-28 -12 -41 -8t-12 23q0 8 5.5 19
t30.5 39q32 47 37.5 72.5t-14.5 28.5q-6 2 -22 -0.5t-35 -6t-32.5 -7.5t-13.5 -6v-3t-4 -2q-2 0 -15.5 -7.5t-33 -19.5t-38.5 -24.5t-32.5 -21.5t-14.5 -11q-2 -11 -23 -20q-20 -12 -36 -34.5t-36 -56.5q-17 -23 -24 -49.5t0 -42.5q5 -16 30 -38t64 -45q34 -19 62 -38
t46.5 -37t24.5 -31q12 -17 16.5 -36t4 -36.5t-4.5 -30.5q-7 -16 -23.5 -33.5t-28.5 -16.5q-11 -3 -16.5 -7t-12.5 -7q-7 -4 -30.5 -8.5t-52 -6.5t-51.5 -1zM305 -237q-15 -3 -37.5 0t-41.5 8t-25 7q-12 4 -16.5 13.5t-2 19t11 14.5t22.5 1q16 -4 35.5 -10.5t35 -6.5t22.5 14
q7 11 1.5 22t-16.5 23q-7 9 -16 19.5t-20 20.5q-8 12 -10 24.5t14 28.5t64 40l41 -25q-25 -12 -40.5 -23t-15.5 -24q14 -20 31 -38.5t22 -38.5q6 -24 -1 -42.5t-22.5 -30.5t-35.5 -16z" />
    <glyph glyph-name="uni0162" unicode="&#x162;" horiz-adv-x="458" 
d="M218 -47q-11 0 -22 14.5t-10 26.5q1 16 9 46t18 61t18 49q4 16 7.5 28.5t4.5 16.5q3 4 9.5 21t10.5 33q2 8 8.5 30.5t16 52.5t19 59t16.5 51t9 29q8 12 12 23t5 15q6 4 7 10.5t1 10.5q0 5 3.5 8t3.5 7q4 3 5 6.5t6 8.5l5 23l69 1q-2 -12 -6 -29.5t-19 -46.5
q-5 -20 -11.5 -36t-5.5 -21q-2 -2 -8.5 -20t-15 -44l-17 -52t-15 -45.5t-8.5 -24.5q-8 -16 -18 -47t-30 -84q-8 -16 -19.5 -48t-18.5 -58q-11 -39 -16.5 -55t-10 -18t-12.5 -2zM226 546q-32 -2 -46 5.5t-10 23.5q3 12 13.5 19t33.5 11q11 2 28.5 5t33.5 6q33 4 54.5 7
t44.5 5t58 4q29 2 49.5 3.5l20.5 1.5q3 0 21 -2t39 -5t31 -7q23 -5 35 -15.5t16 -27.5q3 -12 0 -16t-11 -8q-23 -7 -35.5 -8.5t-26.5 3.5q-5 5 -11.5 9t-22 6.5t-48.5 4.5q-28 -3 -49 -3t-21 -5l-59 -3l-49 -5q-10 -1 -28 -2.5t-35 -3t-26 -3.5zM181 -237q-15 -3 -37.5 0
t-41.5 8t-25 7q-12 4 -16.5 13.5t-2 19t11 14.5t22.5 1q16 -4 35.5 -10.5t35 -6.5t22.5 14q7 11 1.5 22t-16.5 23q-7 9 -16 19.5t-20 20.5q-8 12 -10 24.5t14 28.5t64 40l41 -25q-25 -12 -40.5 -23t-15.5 -24q14 -20 31 -38.5t22 -38.5q6 -24 -1 -42.5t-22.5 -30.5
t-35.5 -16z" />
    <glyph glyph-name="uni01C4" unicode="&#x1c4;" horiz-adv-x="1100" 
d="M220 -99q-19 -3 -39 -2t-51 9q-16 5 -22.5 12t-21.5 26q-10 16 -14 31t0.5 25t17.5 9q4 0 12.5 -5.5t16.5 -13.5q16 -14 37.5 -21.5t50.5 -3.5q14 3 33.5 7t38.5 10t30 14q53 36 83 57.5l30 21.5q2 4 7.5 6.5t13.5 5.5q6 6 19.5 19t26 26t15.5 15q2 9 4 14.5t2 11.5
q8 8 21.5 33.5t27.5 57t20 57.5q13 65 7 112t-26.5 82t-52.5 62q-11 9 -30.5 19.5t-40 19t-36 13.5t-18.5 4q-4 -1 -16 -31t-29 -77t-36 -99.5t-36 -99.5q-6 -19 -13 -40t-12 -36.5t-5 -20.5q-11 -17 -19.5 -47.5t-16.5 -95.5q-9 -34 -13 -53t-8 -18l-0.5 -3.5t-3.5 -6.5
q0 -6 -9.5 -7t-22 4.5t-20.5 16.5q-3 11 -4 24.5t7 42.5q5 19 13 47.5t17.5 59t18 56t12.5 38.5q7 17 20 64q8 26 16.5 52t16.5 46.5t11 26.5q5 13 14.5 43.5t25.5 68.5l7 33l-11 5q-12 -4 -18.5 -2.5t-8.5 2.5q-6 -2 -16.5 3t-19 13.5t-10.5 14.5q-2 4 -2.5 10.5l-0.5 6.5
q1 6 16 12t38.5 10.5t50.5 6.5t52 0q26 -2 54 -11.5t55 -19.5q32 -12 68 -41t66 -69t40 -84q3 -12 6 -34t3.5 -42.5t-4.5 -26.5q-2 -4 -2.5 -9.5t3.5 -7.5q-1 -3 -7 -22.5t-11 -33.5q-2 -26 -12.5 -56t-23 -56.5t-22.5 -43.5q-4 0 -7.5 -1.5t0.5 -2.5q0 -5 -11 -19
q-4 -3 -12.5 -14.5t-13.5 -15.5q-1 -7 -6 -11.5t-9 -4.5h-1.5t-1.5 -4q-8 -12 -25.5 -29.5t-40 -36t-45.5 -34t-43 -23.5q-10 -7 -21 -11.5t-21 -9.5q-5 -4 -24.5 -10t-41 -11.5t-36.5 -8.5zM699 -43q-21 2 -39 5.5t-23 23.5q-4 16 2.5 34t16.5 28q17 18 37 40t48 49.5
t68 65.5t98 89q40 34 64 56.5t43 41.5t42 43q35 36 60.5 67.5t30.5 51.5q6 20 -0.5 28.5t-26 12t-54.5 5.5q-62 5 -111 -0.5t-93 -13.5q-7 -2 -16.5 4.5t-9.5 10.5q4 5 4 11.5t-8 12.5q-4 10 0 17t8 11q8 4 27.5 6t42.5 6q15 3 44.5 4t60 1t48.5 -2q36 -3 70.5 -7t60.5 -14
t35 -32q11 -23 4.5 -41t-17.5 -48q-12 -22 -40.5 -58.5t-65 -76t-74.5 -74.5q-56 -52 -100.5 -92.5t-88.5 -78.5q-28 -24 -54.5 -48t-54.5 -50q-10 -13 -3.5 -20t47.5 -5q23 1 36 4t28 6t42 4q52 3 94 5.5t70 2.5q8 0 13.5 -2t15.5 -16q9 -3 11 -10.5t-1.5 -15.5t-12.5 -15
q-7 0 -24.5 -3.5t-38 -6t-36.5 -1.5q-13 1 -49.5 -1.5t-78.5 -7.5q-37 -6 -81 -7t-71 0zM1079 719q-8 -6 -17 -6.5t-17 8.5q-12 10 -30.5 28t-34.5 34t-19 21q-3 12 2.5 25t18 15.5t28.5 -16.5q7 -10 23 -23.5t32 -27.5q12 7 27.5 17t29 20t20.5 16q22 15 33 11.5
t13.5 -15.5t-1.5 -21q-1 -4 -14 -16t-30.5 -26t-34.5 -26t-29 -18z" />
    <glyph glyph-name="uni01C5" unicode="&#x1c5;" horiz-adv-x="893" 
d="M220 -99q-19 -3 -39 -2t-51 9q-16 5 -22.5 12t-21.5 26q-10 16 -14 31t0.5 25t17.5 9q4 0 12.5 -5.5t16.5 -13.5q16 -14 37.5 -21.5t50.5 -3.5q14 3 33.5 7t38.5 10t30 14q53 36 83 57.5l30 21.5q2 4 7.5 6.5t13.5 5.5q6 6 19.5 19t26 26t15.5 15q2 9 4 14.5t2 11.5
q8 8 21.5 33.5t27.5 57t20 57.5q13 65 7 112t-26.5 82t-52.5 62q-11 9 -30.5 19.5t-40 19t-36 13.5t-18.5 4q-4 -1 -16 -31t-29 -77t-36 -99.5t-36 -99.5q-6 -19 -13 -40t-12 -36.5t-5 -20.5q-11 -17 -19.5 -47.5t-16.5 -95.5q-9 -34 -13 -53t-8 -18l-0.5 -3.5t-3.5 -6.5
q0 -6 -9.5 -7t-22 4.5t-20.5 16.5q-3 11 -4 24.5t7 42.5q5 19 13 47.5t17.5 59t18 56t12.5 38.5q7 17 20 64q8 26 16.5 52t16.5 46.5t11 26.5q5 13 14.5 43.5t25.5 68.5l7 33l-11 5q-12 -4 -18.5 -2.5t-8.5 2.5q-6 -2 -16.5 3t-19 13.5t-10.5 14.5q-2 4 -2.5 10.5l-0.5 6.5
q1 6 16 12t38.5 10.5t50.5 6.5t52 0q26 -2 54 -11.5t55 -19.5q32 -12 68 -41t66 -69t40 -84q3 -12 6 -34t3.5 -42.5t-4.5 -26.5q-2 -4 -2.5 -9.5t3.5 -7.5q-1 -3 -7 -22.5t-11 -33.5q-2 -26 -12.5 -56t-23 -56.5t-22.5 -43.5q-4 0 -7.5 -1.5t0.5 -2.5q0 -5 -11 -19
q-4 -3 -12.5 -14.5t-13.5 -15.5q-1 -7 -6 -11.5t-9 -4.5h-1.5t-1.5 -4q-8 -12 -25.5 -29.5t-40 -36t-45.5 -34t-43 -23.5q-10 -7 -21 -11.5t-21 -9.5q-5 -4 -24.5 -10t-41 -11.5t-36.5 -8.5zM718 22q-38 -5 -57 -6t-29 3t-20 13q-9 8 -8 22.5t32 46.5q19 23 39 43.5t36 33.5
q7 6 15.5 12t28 19.5t58.5 39.5q19 15 29 22.5t16.5 12t14.5 10.5q-7 1 -29 3.5t-42 0.5q-28 0 -34.5 0.5t-14.5 2.5h-15q-5 0 -18 5t-24 13t-12 15l6 4.5t10 8.5q8 5 12.5 8t8.5 -1l21 1t45 2q58 -1 85.5 -3.5t41 -8.5t26.5 -18q16 -16 16 -32.5t-11 -28.5q-4 -4 -7.5 -8.5
t-6.5 -4.5l-14 -9t-34 -22q-19 -13 -37.5 -24t-22.5 -16q-7 -4 -17 -10.5t-14 -10.5q-3 -4 -13.5 -14t-22.5 -18q-9 -8 -21 -19.5t-20.5 -20l-8.5 -8.5l18.5 2.5t46.5 5t57 0.5q47 1 74.5 2.5t42 1t22.5 -4.5q7 -2 12 -10t7 -16.5t0 -11.5q-4 0 -31 -2.5t-62 -4.5
q-46 -4 -89 -10t-86 -11zM907 447q-11 -8 -20.5 -7t-15.5 9q-12 11 -30.5 28.5t-33.5 32.5t-17 18q-5 8 -3 19t8.5 18.5t17.5 6.5t23 -16q7 -9 23.5 -23t31.5 -28q13 7 27.5 16.5t27.5 19t20 15.5q22 17 34 13.5t15 -16t-3 -23.5q-2 -4 -14.5 -15.5t-29.5 -24.5t-33.5 -25
t-27.5 -18z" />
    <glyph glyph-name="uni01C7" unicode="&#x1c7;" horiz-adv-x="732" 
d="M209 -46q-40 10 -69 40.5t-40 66.5q-1 13 -2 35t0 40.5t3 21.5q3 2 3 12q-1 4 1.5 13.5t5.5 19.5q5 12 5 19.5t-1 11.5l3 6.5t7 10.5q6 6 5.5 12l-0.5 6q-1 4 2 11t6 11q2 2 5.5 8.5l3.5 6.5q0 3 4.5 16t10.5 28.5t11.5 28.5t8.5 17v2q4 10 11 21q1 5 5 16.5t9 22.5
q11 24 27.5 54.5t35.5 61t36.5 55t30.5 36.5q17 19 29.5 22.5t27.5 -11.5q7 -7 11 -18t3.5 -20t-6.5 -10q-7 -4 -20 -22.5t-29.5 -43.5t-32.5 -51.5t-28 -47.5q-13 -29 -24 -50.5l-11 -21.5q-1 -3 -2 -5l-2 -4q-15 -31 -25 -56.5t-20 -53.5q-6 -7 -7 -14l-1 -7q-2 1 -3 -4.5
t-4 -12.5q-5 -4 -6 -12.5t-1 -16.5q-7 -18 -13 -43.5t-8.5 -49t-1.5 -36.5q2 -17 15 -30t32 -21q11 -4 19.5 -7t15.5 -3q8 -1 20.5 0.5t34.5 5.5h-1q13 2 27.5 5.5t27.5 6.5q12 2 23 4.5t17 4.5l33 9t16 -1t8.5 -11.5t0.5 -16.5q-2 -5 -17.5 -16.5t-36 -22.5t-39.5 -17
q-20 -9 -49.5 -13.5t-57 -4t-43.5 5.5zM514 -189q-19 -9 -42.5 -8t-45.5 12t-38 28q-7 8 -8 20t3 25q5 18 13 18q11 0 25 -19q28 -25 55.5 -14t58.5 59q6 15 19 43t27.5 60t26.5 59.5t16 39.5l0.5 3.5t4.5 7.5q1 4 5 16t8 28q4 11 11.5 33t16 46t14.5 40q5 21 12.5 45.5
t12.5 37.5q4 8 12 32.5t18 53.5q12 39 22.5 71t16.5 52t4 23l-17.5 -3t-38.5 -7q-17 -7 -34 -6t-15 8v5.5v1.5q-3 -2 -8 2.5t-9 12t-4 12.5q0 8 21 16t52 12q20 3 42.5 5.5t35.5 4.5q4 3 16 -1t24.5 -9.5t17.5 -11.5q6 -8 7.5 -17t-2.5 -25t-14.5 -45.5t-29.5 -80.5
q-22 -62 -39 -112.5t-31 -83.5q-3 -11 -10.5 -32t-14.5 -42.5t-11 -35.5q-8 -19 -15 -41t-11 -35q0 -8 -4 -18t-9 -15l-7 -17.5t-17 -41.5q-8 -20 -17.5 -44.5t-17.5 -37.5q-5 -12 -12 -22.5t-7 -14.5l-0.5 -3t-4.5 -3l-3 -2.5t-3 -7.5q-2 -6 -11.5 -17t-21.5 -23.5
t-24.5 -22t-20.5 -14.5z" />
    <glyph glyph-name="uni01C8" unicode="&#x1c8;" horiz-adv-x="650" 
d="M209 -46q-40 10 -69 40.5t-40 66.5q-1 13 -2 35t0 40.5t3 21.5q3 2 3 12q-1 4 1.5 13.5t5.5 19.5q5 12 5 19.5t-1 11.5l3 6.5t7 10.5q6 6 5.5 12l-0.5 6q-1 4 2 11t6 11q2 2 5.5 8.5l3.5 6.5q0 3 4.5 16t10.5 28.5t11.5 28.5t8.5 17v2q4 10 11 21q1 5 5 16.5t9 22.5
q11 24 27.5 54.5t35.5 61t36.5 55t30.5 36.5q17 19 29.5 22.5t27.5 -11.5q7 -7 11 -18t3.5 -20t-6.5 -10q-7 -4 -20 -22.5t-29.5 -43.5t-32.5 -51.5t-28 -47.5q-13 -29 -24 -50.5l-11 -21.5q-1 -3 -2 -5l-2 -4q-15 -31 -25 -56.5t-20 -53.5q-6 -7 -7 -14l-1 -7q-2 1 -3 -4.5
t-4 -12.5q-5 -4 -6 -12.5t-1 -16.5q-7 -18 -13 -43.5t-8.5 -49t-1.5 -36.5q2 -17 15 -30t32 -21q11 -4 19.5 -7t15.5 -3q8 -1 20.5 0.5t34.5 5.5h-1q13 2 27.5 5.5t27.5 6.5q12 2 23 4.5t17 4.5l33 9t16 -1t8.5 -11.5t0.5 -16.5q-2 -5 -17.5 -16.5t-36 -22.5t-39.5 -17
q-20 -9 -49.5 -13.5t-57 -4t-43.5 5.5zM506 -199q-22 -22 -56.5 -21.5t-58.5 25.5q-16 23 -23 47.5t-5 42t14 17.5q5 0 10.5 -3.5t10.5 -9t5 -13.5q0 -15 5.5 -26.5t18.5 -12.5q11 -4 27 5t27 27q10 13 24 41t27.5 58.5t20.5 49.5q12 41 20.5 83.5t18.5 91.5q4 27 9.5 46.5
t5.5 23.5t1 16.5t6 22.5q0 15 3.5 29t3.5 18q3 3 9.5 1.5t14.5 -5t13 -8.5q8 -8 11.5 -16.5t3.5 -26.5t-5 -57q0 -6 -3 -24.5t-8 -41.5t-10 -44.5t-8 -35.5q-4 -15 -9 -33t-6 -25q-1 -6 -7 -23.5t-12.5 -34.5t-7.5 -24q-1 -4 -5.5 -19t-18.5 -46q-5 -12 -18 -32t-26.5 -38
t-22.5 -25zM660 482q-11 13 -7 36.5t20 44.5q13 15 30.5 17t30.5 -9q11 -17 12 -29.5t-10 -28.5q-25 -28 -44 -35t-32 4z" />
    <glyph glyph-name="uni01CA" unicode="&#x1ca;" horiz-adv-x="872" 
d="M100 -70q-13 11 -17.5 21t-2 23t7.5 32q8 32 17.5 53.5t19 45t16.5 60.5q16 37 28.5 70t19.5 54l7 21q1 4 8.5 21t20 41.5t23.5 49.5q17 48 29 82.5t24.5 62t30.5 54.5q12 21 30 26.5t34 -2t22 -27.5q5 -10 8.5 -23.5t7 -39.5t4.5 -74q2 -57 1.5 -110t1.5 -97.5t11 -77.5
q3 -18 7.5 -43.5t10 -50.5t11.5 -42t10 -17q5 0 12.5 11.5t20.5 43.5t31 93t42 159q5 17 13.5 55t12.5 77q7 25 14 55t12.5 53t5.5 26q0 7 0.5 12t-0.5 10q5 0 9 13.5t4 23.5q0 17 4.5 27.5t9.5 15.5q6 12 20 12t27 -7.5t16 -19.5q2 -11 -5.5 -49.5t-22.5 -103.5
q0 -11 -6 -36t-12.5 -53t-9.5 -48q-4 -26 -9 -48.5t-10 -21.5q-26 -113 -54.5 -192.5t-50.5 -129.5q-24 -55 -55.5 -68t-63.5 28q-19 26 -31 51.5t-19 60t-16 85.5q-12 41 -14.5 82.5t-0.5 85.5t4 92q-1 51 -4.5 65t-12.5 -4.5t-26 -66.5q-7 -19 -18 -45.5t-21.5 -52.5
t-18.5 -45t-10 -24q-6 -12 -14 -31.5t-13 -41.5q-36 -94 -53.5 -154t-25.5 -82q-10 -28 -20 -36t-32 10zM654 -189q-19 -9 -42.5 -8t-45.5 12t-38 28q-7 8 -8 20t3 25q5 18 13 18q11 0 25 -19q28 -25 55.5 -14t58.5 59q6 15 19 43t27.5 60t26.5 59.5t16 39.5l0.5 3.5
t4.5 7.5q1 4 5 16t8 28q4 11 11.5 33t16 46t14.5 40q5 21 12.5 45.5t12.5 37.5q4 8 12 32.5t18 53.5q12 39 22.5 71t16.5 52t4 23l-17.5 -3t-38.5 -7q-17 -7 -34 -6t-15 8v5.5v1.5q-3 -2 -8 2.5t-9 12t-4 12.5q0 8 21 16t52 12q20 3 42.5 5.5t35.5 4.5q4 3 16 -1t24.5 -9.5
t17.5 -11.5q6 -8 7.5 -17t-2.5 -25t-14.5 -45.5t-29.5 -80.5q-22 -62 -39 -112.5t-31 -83.5q-3 -11 -10.5 -32t-14.5 -42.5t-11 -35.5q-8 -19 -15 -41t-11 -35q0 -8 -4 -18t-9 -15l-7 -17.5t-17 -41.5q-8 -20 -17.5 -44.5t-17.5 -37.5q-5 -12 -12 -22.5t-7 -14.5l-0.5 -3
t-4.5 -3l-3 -2.5t-3 -7.5q-2 -6 -11.5 -17t-21.5 -23.5t-24.5 -22t-20.5 -14.5z" />
    <glyph glyph-name="uni01CB" unicode="&#x1cb;" horiz-adv-x="790" 
d="M100 -70q-13 11 -17.5 21t-2 23t7.5 32q8 32 17.5 53.5t19 45t16.5 60.5q16 37 28.5 70t19.5 54l7 21q1 4 8.5 21t20 41.5t23.5 49.5q17 48 29 82.5t24.5 62t30.5 54.5q12 21 30 26.5t34 -2t22 -27.5q5 -10 8.5 -23.5t7 -39.5t4.5 -74q2 -57 1.5 -110t1.5 -97.5t11 -77.5
q3 -18 7.5 -43.5t10 -50.5t11.5 -42t10 -17q5 0 12.5 11.5t20.5 43.5t31 93t42 159q5 17 13.5 55t12.5 77q7 25 14 55t12.5 53t5.5 26q0 7 0.5 12t-0.5 10q5 0 9 13.5t4 23.5q0 17 4.5 27.5t9.5 15.5q6 12 20 12t27 -7.5t16 -19.5q2 -11 -5.5 -49.5t-22.5 -103.5
q0 -11 -6 -36t-12.5 -53t-9.5 -48q-4 -26 -9 -48.5t-10 -21.5q-26 -113 -54.5 -192.5t-50.5 -129.5q-24 -55 -55.5 -68t-63.5 28q-19 26 -31 51.5t-19 60t-16 85.5q-12 41 -14.5 82.5t-0.5 85.5t4 92q-1 51 -4.5 65t-12.5 -4.5t-26 -66.5q-7 -19 -18 -45.5t-21.5 -52.5
t-18.5 -45t-10 -24q-6 -12 -14 -31.5t-13 -41.5q-36 -94 -53.5 -154t-25.5 -82q-10 -28 -20 -36t-32 10zM646 -199q-22 -22 -56.5 -21.5t-58.5 25.5q-16 23 -23 47.5t-5 42t14 17.5q5 0 10.5 -3.5t10.5 -9t5 -13.5q0 -15 5.5 -26.5t18.5 -12.5q11 -4 27 5t27 27q10 13 24 41
t27.5 58.5t20.5 49.5q12 41 20.5 83.5t18.5 91.5q4 27 9.5 46.5t5.5 23.5t1 16.5t6 22.5q0 15 3.5 29t3.5 18q3 3 9.5 1.5t14.5 -5t13 -8.5q8 -8 11.5 -16.5t3.5 -26.5t-5 -57q0 -6 -3 -24.5t-8 -41.5t-10 -44.5t-8 -35.5q-4 -15 -9 -33t-6 -25q-1 -6 -7 -23.5t-12.5 -34.5
t-7.5 -24q-1 -4 -5.5 -19t-18.5 -46q-5 -12 -18 -32t-26.5 -38t-22.5 -25zM800 482q-11 13 -7 36.5t20 44.5q13 15 30.5 17t30.5 -9q11 -17 12 -29.5t-10 -28.5q-25 -28 -44 -35t-32 4z" />
    <glyph glyph-name="uni01F1" unicode="&#x1f1;" horiz-adv-x="1070" 
d="M220 -99q-19 -3 -39 -2t-51 9q-16 5 -22.5 12t-21.5 26q-10 16 -14 31t0.5 25t17.5 9q4 0 12.5 -5.5t16.5 -13.5q16 -14 37.5 -21.5t50.5 -3.5q14 3 33.5 7t38.5 10t30 14q53 36 83 57.5l30 21.5q2 4 7.5 6.5t13.5 5.5q6 6 19.5 19t26 26t15.5 15q2 9 4 14.5t2 11.5
q8 8 21.5 33.5t27.5 57t20 57.5q13 65 7 112t-26.5 82t-52.5 62q-11 9 -30.5 19.5t-40 19t-36 13.5t-18.5 4q-4 -1 -16 -31t-29 -77t-36 -99.5t-36 -99.5q-6 -19 -13 -40t-12 -36.5t-5 -20.5q-11 -17 -19.5 -47.5t-16.5 -95.5q-9 -34 -13 -53t-8 -18l-0.5 -3.5t-3.5 -6.5
q0 -6 -9.5 -7t-22 4.5t-20.5 16.5q-3 11 -4 24.5t7 42.5q5 19 13 47.5t17.5 59t18 56t12.5 38.5q7 17 20 64q8 26 16.5 52t16.5 46.5t11 26.5q5 13 14.5 43.5t25.5 68.5l7 33l-11 5q-12 -4 -18.5 -2.5t-8.5 2.5q-6 -2 -16.5 3t-19 13.5t-10.5 14.5q-2 4 -2.5 10.5l-0.5 6.5
q1 6 16 12t38.5 10.5t50.5 6.5t52 0q26 -2 54 -11.5t55 -19.5q32 -12 68 -41t66 -69t40 -84q3 -12 6 -34t3.5 -42.5t-4.5 -26.5q-2 -4 -2.5 -9.5t3.5 -7.5q-1 -3 -7 -22.5t-11 -33.5q-2 -26 -12.5 -56t-23 -56.5t-22.5 -43.5q-4 0 -7.5 -1.5t0.5 -2.5q0 -5 -11 -19
q-4 -3 -12.5 -14.5t-13.5 -15.5q-1 -7 -6 -11.5t-9 -4.5h-1.5t-1.5 -4q-8 -12 -25.5 -29.5t-40 -36t-45.5 -34t-43 -23.5q-10 -7 -21 -11.5t-21 -9.5q-5 -4 -24.5 -10t-41 -11.5t-36.5 -8.5zM669 -43q-21 2 -39 5.5t-23 23.5q-4 16 2.5 34t16.5 28q17 18 37 40t48 49.5
t68 65.5t98 89q40 34 64 56.5t43 41.5t42 43q35 36 60.5 67.5t30.5 51.5q6 20 -0.5 28.5t-26 12t-54.5 5.5q-62 5 -111 -0.5t-93 -13.5q-7 -2 -16.5 4.5t-9.5 10.5q4 5 4 11.5t-8 12.5q-4 10 0 17t8 11q8 4 27.5 6t42.5 6q15 3 44.5 4t60 1t48.5 -2q36 -3 70.5 -7t60.5 -14
t35 -32q11 -23 4.5 -41t-17.5 -48q-12 -22 -40.5 -58.5t-65 -76t-74.5 -74.5q-56 -52 -100.5 -92.5t-88.5 -78.5q-28 -24 -54.5 -48t-54.5 -50q-10 -13 -3.5 -20t47.5 -5q23 1 36 4t28 6t42 4q52 3 94 5.5t70 2.5q8 0 13.5 -2t15.5 -16q9 -3 11 -10.5t-1.5 -15.5t-12.5 -15
q-7 0 -24.5 -3.5t-38 -6t-36.5 -1.5q-13 1 -49.5 -1.5t-78.5 -7.5q-37 -6 -81 -7t-71 0z" />
    <glyph glyph-name="uni01F2" unicode="&#x1f2;" horiz-adv-x="923" 
d="M220 -99q-19 -3 -39 -2t-51 9q-16 5 -22.5 12t-21.5 26q-10 16 -14 31t0.5 25t17.5 9q4 0 12.5 -5.5t16.5 -13.5q16 -14 37.5 -21.5t50.5 -3.5q14 3 33.5 7t38.5 10t30 14q53 36 83 57.5l30 21.5q2 4 7.5 6.5t13.5 5.5q6 6 19.5 19t26 26t15.5 15q2 9 4 14.5t2 11.5
q8 8 21.5 33.5t27.5 57t20 57.5q13 65 7 112t-26.5 82t-52.5 62q-11 9 -30.5 19.5t-40 19t-36 13.5t-18.5 4q-4 -1 -16 -31t-29 -77t-36 -99.5t-36 -99.5q-6 -19 -13 -40t-12 -36.5t-5 -20.5q-11 -17 -19.5 -47.5t-16.5 -95.5q-9 -34 -13 -53t-8 -18l-0.5 -3.5t-3.5 -6.5
q0 -6 -9.5 -7t-22 4.5t-20.5 16.5q-3 11 -4 24.5t7 42.5q5 19 13 47.5t17.5 59t18 56t12.5 38.5q7 17 20 64q8 26 16.5 52t16.5 46.5t11 26.5q5 13 14.5 43.5t25.5 68.5l7 33l-11 5q-12 -4 -18.5 -2.5t-8.5 2.5q-6 -2 -16.5 3t-19 13.5t-10.5 14.5q-2 4 -2.5 10.5l-0.5 6.5
q1 6 16 12t38.5 10.5t50.5 6.5t52 0q26 -2 54 -11.5t55 -19.5q32 -12 68 -41t66 -69t40 -84q3 -12 6 -34t3.5 -42.5t-4.5 -26.5q-2 -4 -2.5 -9.5t3.5 -7.5q-1 -3 -7 -22.5t-11 -33.5q-2 -26 -12.5 -56t-23 -56.5t-22.5 -43.5q-4 0 -7.5 -1.5t0.5 -2.5q0 -5 -11 -19
q-4 -3 -12.5 -14.5t-13.5 -15.5q-1 -7 -6 -11.5t-9 -4.5h-1.5t-1.5 -4q-8 -12 -25.5 -29.5t-40 -36t-45.5 -34t-43 -23.5q-10 -7 -21 -11.5t-21 -9.5q-5 -4 -24.5 -10t-41 -11.5t-36.5 -8.5zM748 22q-38 -5 -57 -6t-29 3t-20 13q-9 8 -8 22.5t32 46.5q19 23 39 43.5t36 33.5
q7 6 15.5 12t28 19.5t58.5 39.5q19 15 29 22.5t16.5 12t14.5 10.5q-7 1 -29 3.5t-42 0.5q-28 0 -34.5 0.5t-14.5 2.5h-15q-5 0 -18 5t-24 13t-12 15l6 4.5t10 8.5q8 5 12.5 8t8.5 -1l21 1t45 2q58 -1 85.5 -3.5t41 -8.5t26.5 -18q16 -16 16 -32.5t-11 -28.5q-4 -4 -7.5 -8.5
t-6.5 -4.5l-14 -9t-34 -22q-19 -13 -37.5 -24t-22.5 -16q-7 -4 -17 -10.5t-14 -10.5q-3 -4 -13.5 -14t-22.5 -18q-9 -8 -21 -19.5t-20.5 -20l-8.5 -8.5l18.5 2.5t46.5 5t57 0.5q47 1 74.5 2.5t42 1t22.5 -4.5q7 -2 12 -10t7 -16.5t0 -11.5q-4 0 -31 -2.5t-62 -4.5
q-46 -4 -89 -10t-86 -11z" />
    <glyph glyph-name="uni0218" unicode="&#x218;" horiz-adv-x="486" 
d="M257 -55q-18 5 -29 8.5l-11 3.5q2 5 -1.5 9t-14.5 5q-15 9 -28.5 24t-23 30t-13.5 24q-7 15 -4 18.5t14 8.5q11 8 19 7.5t16 -17.5q13 -23 43 -36.5t68 -13.5t74 16q33 14 40 31.5t-10 43.5q-3 8 -7.5 13t-13.5 13t-28 26q-15 7 -27.5 13t-26.5 13q-16 8 -38 23t-41 33.5
t-28 34.5q-16 15 -22.5 41.5t-3.5 56.5t16 54q6 14 21 35t34 43t36.5 40t28.5 25q8 8 17 16.5l9 8.5q1 5 3.5 5h2.5q5 3 22 10t37 26q67 32 110.5 46t70.5 14v0v0q25 -1 46.5 -12.5t36.5 -29t18 -41.5q7 -24 -5 -56t-34 -60.5t-47 -42.5q-28 -12 -41 -8t-12 23q0 8 5.5 19
t30.5 39q32 47 37.5 72.5t-14.5 28.5q-6 2 -22 -0.5t-35 -6t-32.5 -7.5t-13.5 -6v-3t-4 -2q-2 0 -15.5 -7.5t-33 -19.5t-38.5 -24.5t-32.5 -21.5t-14.5 -11q-2 -11 -23 -20q-20 -12 -36 -34.5t-36 -56.5q-17 -23 -24 -49.5t0 -42.5q5 -16 30 -38t64 -45q34 -19 62 -38
t46.5 -37t24.5 -31q12 -17 16.5 -36t4 -36.5t-4.5 -30.5q-7 -16 -23.5 -33.5t-28.5 -16.5q-11 -3 -16.5 -7t-12.5 -7q-7 -4 -30.5 -8.5t-52 -6.5t-51.5 -1zM164 -235q-10 0 -14.5 2t-7.5 7q0 7 14 19q18 17 33.5 39.5t17.5 41.5q-1 24 11.5 35t33.5 -1q5 -14 6.5 -27
t-6.5 -40q-1 -5 -7.5 -15.5t-14 -20.5t-11.5 -13q-2 -2 -7.5 -6.5t-10.5 -8.5t-8 -6q-3 -1 -5.5 -2.5t-7.5 -2.5t-16 -1z" />
    <glyph glyph-name="uni021A" unicode="&#x21a;" horiz-adv-x="458" 
d="M218 -47q-11 0 -22 14.5t-10 26.5q1 16 9 46t18 61t18 49q4 16 7.5 28.5t4.5 16.5q3 4 9.5 21t10.5 33q2 8 8.5 30.5t16 52.5t19 59t16.5 51t9 29q8 12 12 23t5 15q6 4 7 10.5t1 10.5q0 5 3.5 8t3.5 7q4 3 5 6.5t6 8.5l5 23l69 1q-2 -12 -6 -29.5t-19 -46.5
q-5 -20 -11.5 -36t-5.5 -21q-2 -2 -8.5 -20t-15 -44l-17 -52t-15 -45.5t-8.5 -24.5q-8 -16 -18 -47t-30 -84q-8 -16 -19.5 -48t-18.5 -58q-11 -39 -16.5 -55t-10 -18t-12.5 -2zM226 546q-32 -2 -46 5.5t-10 23.5q3 12 13.5 19t33.5 11q11 2 28.5 5t33.5 6q33 4 54.5 7
t44.5 5t58 4q29 2 49.5 3.5l20.5 1.5q3 0 21 -2t39 -5t31 -7q23 -5 35 -15.5t16 -27.5q3 -12 0 -16t-11 -8q-23 -7 -35.5 -8.5t-26.5 3.5q-5 5 -11.5 9t-22 6.5t-48.5 4.5q-28 -3 -49 -3t-21 -5l-59 -3l-49 -5q-10 -1 -28 -2.5t-35 -3t-26 -3.5zM113 -222q-10 0 -14.5 2
t-7.5 7q0 7 14 19q18 17 33.5 39.5t17.5 41.5q-1 24 11.5 35t33.5 -1q5 -14 6.5 -27t-6.5 -40q-1 -5 -7.5 -15.5t-14 -20.5t-11.5 -13q-2 -2 -7.5 -6.5t-10.5 -8.5t-8 -6q-3 -1 -5.5 -2.5t-7.5 -2.5t-16 -1z" />
    <glyph glyph-name="A.ss01" horiz-adv-x="505" 
d="M482 -82q-4 0 -11 3.5t-12 9.5q-7 7 -9.5 17t-2.5 19v29t-2 37q0 29 -1 58t3 38q-3 14 -0.5 30.5t2.5 25.5l-4 27h-55q-19 -3 -58 -1t-91 5l-13 -21q-3 -4 -12.5 -19.5t-17.5 -36.5q-5 -13 -12.5 -30t-15.5 -33.5t-17 -29.5q-16 -31 -26 -42.5t-15 -11.5q-9 0 -15 1
t-16 8q-20 9 -20 28t20 48q5 7 9 14l4 7q0 2 7.5 19t18.5 38.5t21.5 38.5t15.5 19q18 20 -3 38q-7 3 -7 11.5t7.5 16t21.5 6.5q10 5 14.5 7t4.5 6q0 2 6 15t15 30.5t18.5 33.5t16.5 25q11 28 17 37.5t10 18.5q5 5 14 22t19 33q14 14 25.5 30.5t20.5 27.5q5 11 14.5 24
t19.5 27q19 21 35.5 29t36.5 -1q23 -10 37 -34.5t17 -66.5q3 -23 6.5 -51.5t-1.5 -42.5q0 -18 -0.5 -44t2.5 -49q-4 -19 -3 -42.5t1 -32.5t-1 -28.5t-1 -33.5q-1 -38 -1.5 -63t0 -47.5t0.5 -52.5q2 -79 -6 -110t-31 -34zM279 276l22.5 2.5t50.5 1.5q33 3 54.5 1.5t25.5 0.5
q11 -1 15 9t4 26q-2 22 -3 58.5t-2 73.5t0 62q0 19 -2 36l-2 17q-2 3 -12.5 -8.5t-23.5 -29t-24 -34t-16 -24.5q-4 -5 -15 -26t-25 -45q-37 -59 -46.5 -87.5t-0.5 -33.5z" />
    <glyph glyph-name="B.ss01" horiz-adv-x="515" 
d="M346 -21q-32 -10 -65 -15t-69.5 1.5t-79.5 27.5q-1 11 -8.5 20.5t-16.5 10.5q-4 1 -9.5 10t-10.5 14q-3 12 -3.5 20t1.5 21.5t6 38.5q5 13 14.5 39.5t22 59t26.5 63.5q36 90 56.5 141t28.5 76t8 36t-5 22q-6 19 0.5 34t25.5 22q19 10 41.5 19.5t44.5 16t39 8.5
q14 2 34.5 0t41 -7t35.5 -11.5t18 -14.5l3 -1l3 -1l4 -1t12 -9q11 -8 19 -28t4 -35q0 -4 2.5 -13t4.5 -20q5 -27 -6 -60t-45 -70q-12 -14 -21.5 -27t-14.5 -12q-10 -9 -15 -19.5t4 -12.5l7 -10t19 -24q19 -29 24.5 -68.5t-5.5 -75.5q-7 -25 -33.5 -57.5t-63.5 -61.5t-78 -47
zM238 32q35 -5 72 5.5t70 35.5t55 60q28 35 27.5 61.5t-17.5 52.5q-15 23 -32 28.5t-36 1.5t-42 -11q-19 -3 -43.5 -11t-44.5 -14.5t-26 -6.5l-6 -6t-12 -12.5t-7 -10.5q-5 -2 -10.5 -14t-9.5 -26.5t-5.5 -25.5t0.5 -11q5 -1 -0.5 -16t-7.5 -25q-8 -24 16.5 -38.5
t58.5 -16.5zM254 309q8 1 27 8.5t35 11.5q42 9 77.5 32t61.5 55t37 64q6 11 9 33.5t1 32.5v8q-7 19 -33 27t-60.5 5.5t-68.5 -15.5q-14 -7 -17 -20.5t-8 -36.5q-4 -25 -12.5 -46t-14.5 -41q-1 -4 -5 -7t-4 -10l-6.5 -14t-11.5 -31q-7 -17 -10.5 -30l-3.5 -13l1.5 -9t5.5 -4z
" />
    <glyph glyph-name="C.ss01" horiz-adv-x="485" 
d="M321 -41q-16 -1 -44.5 0.5t-60 11.5t-56 32t-32.5 62q-12 56 -5 122t24 130q5 18 19 46.5t33.5 61.5t40.5 64.5t39 54.5q13 15 32 33.5t39 35.5t37 29.5t25 15.5q14 8 25.5 8.5t31.5 -4.5q14 -1 29.5 -9.5t27 -18.5t12.5 -19q1 -6 22 1q7 8 16 11t16.5 2t8.5 -8
q-6 -9 2 -16q3 1 1 -11t-7 -28t-12 -27l-1.5 -5l-1.5 -5q2 -5 -2 -10t-7 -9q-3 -5 -7.5 -18.5t-9 -30.5t-7 -30.5t-2.5 -18.5q2 -7 -10 -7.5t-29 5.5q-22 8 -27.5 21t5.5 51q14 46 16 68t-12 33q-5 9 -22 11.5t-28 -4.5q-15 -6 -41 -30.5t-54 -57t-50 -63.5
q-46 -64 -71 -131.5t-28.5 -129.5t13.5 -114q2 -4 12 -17t16 -17q32 -7 90 -1q43 8 63.5 24t39.5 44q11 16 23 18.5t21 -6t11 -26.5q0 -5 -8.5 -20.5t-19 -29.5t-16.5 -16q-4 -1 -4.5 -2t0.5 -6q0 -4 -13 -12t-32 -16.5t-38.5 -14.5t-32.5 -7z" />
    <glyph glyph-name="D.ss01" horiz-adv-x="581" 
d="M231 -45q-39 0 -71.5 13t-40.5 57q1 23 2.5 29t7.5 6q4 0 6.5 1.5t2.5 8.5q1 16 5 38t10.5 42t11.5 28q5 19 16 52t22.5 69.5t22 66.5t15.5 43t14.5 35t13.5 38q7 18 15 40.5t15 34.5l14 29l-24 21q-14 14 -14 27q0 15 19 25.5t43 14.5q10 2 22.5 2h24.5q27 0 54.5 -2
t45.5 -5q11 -2 27 -8.5t31 -15t22 -15.5l3.5 -3.5t7.5 -3.5q6 -3 21 -22t29 -42.5t17 -42.5q3 -15 4.5 -31t1.5 -30q-1 -22 -2.5 -43.5t-5.5 -45.5q-3 -21 -11.5 -47.5t-17.5 -50.5t-16 -39.5t-9 -15.5q-6 0 -7 -3t-1 -7q-1 -9 -11.5 -29t-26.5 -43.5t-33 -43.5t-33 -30
q-30 -33 -72.5 -56t-87.5 -34.5t-83 -11.5zM238 28q10 0 33.5 1.5t37.5 7.5q25 7 60 27.5t64 49.5q31 33 57 68.5t50 97.5q17 41 25.5 83.5t8.5 76.5q0 60 -23 98t-59 51q-14 5 -29.5 7.5t-29.5 2.5q-10 0 -21.5 -1t-14.5 -3q-8 0 -17.5 -16.5t-18 -41t-15.5 -48.5
q-8 -30 -15 -48t-14.5 -36.5t-17.5 -51.5q-14 -28 -24 -56.5t-16.5 -49.5t-9.5 -29q-6 -13 -12.5 -37t-12.5 -52t-9.5 -51.5t-3.5 -35.5q0 -9 8.5 -11.5t18.5 -2.5z" />
    <glyph glyph-name="E.ss01" horiz-adv-x="551" 
d="M315 -42q-40 0 -71.5 4.5t-57.5 24.5q-31 23 -38 62.5t12 110.5q5 25 11.5 44t11.5 19q1 5 3 14.5t4 22.5q5 18 7 26.5t8 14.5q3 2 7 13.5t5 13.5l1 7.5t5 17.5q15 25 15 33q2 4 8.5 12t10.5 21q30 53 49 90t23 56q5 11 9.5 22t11.5 19q-2 5 9 11t30.5 13t42 12t43.5 6
q6 4 26.5 6t47.5 2t50 -2q22 0 35 -6l26 -12q5 -5 10 -12.5t6.5 -14.5t-4.5 -10q-1 -4 -29.5 -5.5t-61.5 -1.5q-37 0 -68.5 -6t-42.5 -6q-14 -4 -27.5 -5l-13.5 -1q-2 0 -11.5 -14t-21 -33t-20.5 -35t-9 -19q0 -10 -8 -22t-19 -28q-10 -13 -13 -25t6 -16q16 3 44 6t55.5 5.5
t42.5 2.5q17 5 28 2t16 -6q12 -2 16 -9t3 -13.5t-8 -9.5q-6 -6 -30 -14t-56.5 -16t-65 -14.5t-55.5 -10.5t-27 -3q-6 14 -10 -0.5t-21 -58.5q-11 -25 -18.5 -44t-12 -40.5t-10.5 -52.5q-7 -27 -2 -45t37 -33q20 -4 51 -3t74 12q18 11 34 18.5t23 11.5q5 0 15.5 3t14.5 3
q8 11 20 11q2 0 10 -8t16 -18.5t7 -17.5q0 -10 -26 -22t-76 -32q-25 -11 -40.5 -17t-29.5 -8.5t-37 -2.5z" />
    <glyph glyph-name="F.ss01" horiz-adv-x="469" 
d="M141 2l8 47q7 45 14 84t13.5 63t8.5 24q4 2 4 8.5t1 16.5l2 25l-15 -2q-12 2 -14 5t-2 18q1 10 3 17t11 8q16 5 33.5 18.5t16.5 23.5q1 8 7.5 29.5t17.5 49t24 52.5q4 13 7.5 26.5t3.5 20.5q2 8 5 18t3 14q6 11 2 12.5t-19 -0.5l-9 -1.5t-20 -0.5q-16 -4 -22 0.5
t-10 12.5q-9 9 -7.5 19t10.5 9q5 -1 8.5 1.5t7.5 6.5t19 10t37 7q10 1 26.5 5t30 9t15.5 7q0 5 5.5 5h9.5q4 1 15.5 2.5t14.5 0.5q8 4 35 6.5t82 1.5q16 -1 27 -1.5t11 3.5l13 -1.5t29 -6.5q24 -1 39 -6.5t22 -18t7 -36.5l1 -23l-27 9q-8 1 -27.5 3.5t-42 4.5t-43 3.5
t-29.5 -0.5q-10 0 -21 -1.5t-22 -0.5q-14 -4 -26.5 -4t-16.5 1q-10 -4 -17.5 -4t-13.5 -5l-5.5 -3t-9.5 -3q-4 1 -4 -4.5t-2 -20.5q1 -14 -1 -23.5t-8 -24.5t-19 -48q-6 -17 -14 -35t-10 -29q-11 -30 -21 -46q2 -10 3.5 -10.5t8.5 5.5q8 -3 13.5 0t9.5 4h8.5t11.5 -2
q-1 4 8 4.5t20 1.5q11 5 27.5 7.5t23.5 6.5q11 5 15.5 5t17.5 -6q7 -9 10 -23t2 -25.5t-6 -15.5l-10 -3.5t-21 -7.5q-11 2 -21 0t-14 -4q-21 -13 -69 -9q-7 -5 -16.5 -5t-14.5 -4q-3 0 -11.5 -1.5t-12.5 -0.5q-4 0 -5 -5.5t-1 -9.5t-3 -8l-3 -4q-6 -6 -7 -13l-0.5 -12
t-5.5 -26q-8 -26 -15 -54t-10.5 -48t-1.5 -24q4 -4 10.5 -6t11.5 -3q5 4 9.5 -3t5.5 -18q-1 -4 -11.5 -16.5t-21.5 -26.5q-13 -31 -27.5 -36t-34.5 13z" />
    </font>
</defs>
</svg>
